<svg viewBox="0 0 540 400" xmlns="http://www.w3.org/2000/svg" font-family="ui-monospace, 'SF Mono', Menlo, Consolas, monospace">
  <rect width="540" height="400" rx="6" fill="#0e1217" stroke="#2c3a47"/>
  <text x="22" y="32" fill="#39c5e0" font-size="13" letter-spacing="2.5">2-RPR  GEOMETRY</text>
  <text x="22" y="50" fill="#5b6975" font-size="11">planar 2-DOF parallel machine — two prismatic (variable-length) legs</text>

  <!-- axes -->
  <line x1="44" y1="300" x2="500" y2="300" stroke="#2c3a47" stroke-width="1"/>
  <line x1="270" y1="312" x2="270" y2="92" stroke="#22303c" stroke-width="1" stroke-dasharray="3 3"/>
  <text x="490" y="318" fill="#5b6975" font-size="11">x</text>
  <text x="255" y="100" fill="#5b6975" font-size="11">y</text>
  <text x="276" y="316" fill="#5b6975" font-size="10">O</text>

  <!-- b dimension -->
  <line x1="270" y1="294" x2="380" y2="294" stroke="#ffb454" stroke-width="1.5"/>
  <line x1="270" y1="290" x2="270" y2="298" stroke="#ffb454" stroke-width="1"/>
  <line x1="380" y1="290" x2="380" y2="298" stroke="#ffb454" stroke-width="1"/>
  <text x="318" y="288" fill="#ffb454" font-size="11">b</text>

  <!-- legs -->
  <line x1="160" y1="300" x2="332" y2="140" stroke="#39c5e0" stroke-width="2"/>
  <line x1="380" y1="300" x2="332" y2="140" stroke="#39c5e0" stroke-width="2"/>
  <text x="220" y="212" fill="#39c5e0" font-size="13">L₁</text>
  <text x="374" y="212" fill="#39c5e0" font-size="13">L₂</text>

  <!-- x,y coordinates of P -->
  <line x1="332" y1="140" x2="332" y2="300" stroke="#22303c" stroke-width="1" stroke-dasharray="2 3"/>
  <line x1="270" y1="140" x2="332" y2="140" stroke="#22303c" stroke-width="1" stroke-dasharray="2 3"/>
  <text x="338" y="228" fill="#8a97a3" font-size="11">y</text>
  <text x="296" y="134" fill="#8a97a3" font-size="11">x</text>

  <!-- anchors -->
  <circle cx="160" cy="300" r="5" fill="#8a97a3"/>
  <circle cx="380" cy="300" r="5" fill="#8a97a3"/>
  <text x="116" y="324" fill="#cdd6df" font-size="11">A₁ (−b, 0)</text>
  <text x="356" y="324" fill="#cdd6df" font-size="11">A₂ (+b, 0)</text>

  <!-- platform point -->
  <circle cx="332" cy="140" r="7" fill="#3fe0a0" stroke="#06222b" stroke-width="2"/>
  <text x="346" y="138" fill="#3fe0a0" font-size="12">P (x, y)</text>

  <!-- formula strip -->
  <line x1="22" y1="340" x2="518" y2="340" stroke="#2c3a47" stroke-width="1"/>
  <text x="22" y="360" fill="#8a97a3" font-size="11">IK   Lᵢ = √((x ∓ b)² + y²)        FK   x = (L₁² − L₂²) ⁄ 4b ,  y = √(L₁² − (x+b)²)</text>

  <!-- metadata footer -->
  <text x="22" y="388" fill="#3a4753" font-size="9" letter-spacing="1">FIG A1 · 2-RPR GEOMETRY · USED IN 1.1, 1.2, 1.3, 1.4 · cyan=geometry green=pose amber=dimension</text>
</svg>
