<svg viewBox="0 0 540 400" xmlns="http://www.w3.org/2000/svg" font-family="ui-monospace, 'SF Mono', Menlo, Consolas, monospace">
  <rect width="540" height="400" rx="6" fill="#0e1217" stroke="#2c3a47"/>
  <text x="22" y="32" fill="#39c5e0" font-size="13" letter-spacing="2.5">3-RPR  GEOMETRY</text>
  <text x="22" y="50" fill="#5b6975" font-size="11">planar 3-DOF parallel machine — three prismatic legs — pose (x, y, θ)</text>

  <!-- base triangle (anchors) -->
  <polygon points="130,300 410,300 270,98" fill="none" stroke="#22303c" stroke-width="1" stroke-dasharray="3 3"/>

  <!-- legs -->
  <line x1="130" y1="300" x2="244" y2="232" stroke="#39c5e0" stroke-width="2"/>
  <line x1="410" y1="300" x2="296" y2="232" stroke="#39c5e0" stroke-width="2"/>
  <line x1="270" y1="98" x2="270" y2="188" stroke="#39c5e0" stroke-width="2"/>
  <text x="176" y="276" fill="#39c5e0" font-size="13">L₁</text>
  <text x="346" y="276" fill="#39c5e0" font-size="13">L₂</text>
  <text x="278" y="150" fill="#39c5e0" font-size="13">L₃</text>

  <!-- moving platform -->
  <polygon points="244,232 296,232 270,188" fill="rgba(63,224,160,0.18)" stroke="#3fe0a0" stroke-width="1.6"/>
  <circle cx="270" cy="217" r="4" fill="#3fe0a0"/>
  <text x="282" y="222" fill="#3fe0a0" font-size="12">P (x, y, θ)</text>
  <circle cx="244" cy="232" r="3.5" fill="#3fe0a0"/>
  <circle cx="296" cy="232" r="3.5" fill="#3fe0a0"/>
  <circle cx="270" cy="188" r="3.5" fill="#3fe0a0"/>
  <text x="216" y="248" fill="#cdd6df" font-size="11">p₁</text>
  <text x="300" y="248" fill="#cdd6df" font-size="11">p₂</text>
  <text x="252" y="180" fill="#cdd6df" font-size="11">p₃</text>

  <!-- rotation indicator -->
  <path d="M 292 217 A 22 22 0 0 1 285 234" fill="none" stroke="#ffb454" stroke-width="1.4"/>
  <text x="298" y="236" fill="#ffb454" font-size="12">θ</text>

  <!-- anchors -->
  <circle cx="130" cy="300" r="5" fill="#8a97a3"/>
  <circle cx="410" cy="300" r="5" fill="#8a97a3"/>
  <circle cx="270" cy="98" r="5" fill="#8a97a3"/>
  <text x="84" y="318" fill="#cdd6df" font-size="11">B₁ (−0.8, 0)</text>
  <text x="370" y="318" fill="#cdd6df" font-size="11">B₂ (0.8, 0)</text>
  <text x="230" y="90" fill="#cdd6df" font-size="11">B₃ (0, 1.0)</text>

  <!-- formula strip -->
  <line x1="22" y1="340" x2="518" y2="340" stroke="#2c3a47" stroke-width="1"/>
  <text x="22" y="360" fill="#8a97a3" font-size="11">Lᵢ = ‖ Bᵢ − (P + R(θ)·pᵢ) ‖    ·    symmetric pose (0, 0.45, 0) → rotation singularity (det J → 0)</text>

  <!-- metadata footer -->
  <text x="22" y="388" fill="#3a4753" font-size="9" letter-spacing="1">FIG A2 · 3-RPR GEOMETRY · USED IN 3.1, 3.2 · Bᵢ=base anchors  pᵢ=platform attach points  θ=platform rotation</text>
</svg>
