<svg viewBox="0 0 600 410" xmlns="http://www.w3.org/2000/svg" font-family="ui-monospace, Menlo, Consolas, monospace">
<metadata>source=Family 3; view=Tuning; params=baseline_control; exported=2026-06-23; key=PWM tuned: settle 0.48s, ripple 0.1mm</metadata>
<rect width="600" height="410" fill="#0e1217"/>
<text x="16" y="22" fill="#39c5e0" font-size="13">TUNED RESPONSE — PWM</text><text x="584" y="22" fill="#5b6975" font-size="10" text-anchor="end">baseline_control</text>
<g transform="translate(0,30)">
<line x1="64" y1="300" x2="566" y2="300" stroke="#2c3a47" stroke-width="1"/><line x1="64" y1="36" x2="64" y2="300" stroke="#2c3a47" stroke-width="1"/><text x="566" y="318" fill="#5b6975" font-size="11" text-anchor="end">time (s)</text><text x="64" y="28" fill="#5b6975" font-size="11">position (m)</text><line x1="64" y1="111.42857142857142" x2="566" y2="111.42857142857142" stroke="#ffb454" stroke-width="1" stroke-dasharray="4 4"/><rect x="64" y="107.7" width="502" height="7.5" fill="rgba(63,224,160,0.12)"/><path d="M64.2 300.0L64.3 299.9L64.5 299.9L64.7 299.8L64.8 299.6L65.0 299.5L65.2 299.3L65.3 299.2L65.5 299.0L65.7 298.7L65.8 298.5L66.0 298.2L66.2 298.0L66.3 297.7L66.5 297.4L66.7 297.1L66.8 296.8L67.0 296.4L67.2 296.1L67.3 295.7L67.5 295.4L67.7 295.0L67.8 294.6L68.0 294.2L68.2 293.8L68.4 293.4L68.5 293.0L68.7 292.6L68.9 292.1L69.0 291.7L69.2 291.3L69.4 290.8L69.5 290.4L69.7 289.9L69.9 289.4L70.0 289.0L70.2 288.5L70.4 288.0L70.5 287.5L70.7 287.0L70.9 286.6L71.0 286.1L71.2 285.6L71.4 285.1L71.5 284.6L71.7 284.1L71.9 283.5L72.0 283.0L72.2 282.5L72.4 282.0L72.5 281.5L72.7 281.0L72.9 280.5L73.0 279.9L73.2 279.4L73.4 278.9L73.5 278.4L73.7 277.8L73.9 277.3L74.0 276.8L74.2 276.2L74.4 275.7L74.5 275.2L74.7 274.6L74.9 274.1L75.0 273.5L75.2 273.0L75.4 272.5L75.5 271.9L75.7 271.4L75.9 270.8L76.0 270.3L76.2 269.7L76.4 269.2L76.6 268.7L76.7 268.1L76.9 267.6L77.1 267.0L77.2 266.5L77.4 265.9L77.6 265.4L77.7 264.8L77.9 264.3L78.1 263.7L78.2 263.2L78.4 262.6L78.6 262.1L78.7 261.5L78.9 261.0L79.1 260.4L79.2 259.9L79.4 259.3L79.6 258.7L79.7 258.2L79.9 257.6L80.1 257.1L80.2 256.5L80.4 256.0L80.6 255.4L80.7 254.9L80.9 254.3L81.1 253.8L81.2 253.2L81.4 252.6L81.6 252.1L81.7 251.5L81.9 251.0L82.1 250.4L82.2 249.9L82.4 249.3L82.6 248.8L82.7 248.2L82.9 247.6L83.1 247.1L83.2 246.5L83.4 246.0L83.6 245.4L83.7 244.9L83.9 244.3L84.1 243.7L84.2 243.2L84.4 242.6L84.6 242.1L84.7 241.5L84.9 241.0L85.1 240.4L85.3 239.8L85.4 239.3L85.6 238.7L85.8 238.2L85.9 237.6L86.1 237.1L86.3 236.5L86.4 235.9L86.6 235.4L86.8 234.8L86.9 234.3L87.1 233.7L87.3 233.2L87.4 232.6L87.6 232.0L87.8 231.5L87.9 230.9L88.1 230.4L88.3 229.8L88.4 229.2L88.6 228.7L88.8 228.1L88.9 227.6L89.1 227.0L89.3 226.5L89.4 225.9L89.6 225.3L89.8 224.8L89.9 224.2L90.1 223.7L90.3 223.1L90.4 222.6L90.6 222.0L90.8 221.4L90.9 220.9L91.1 220.3L91.3 219.8L91.4 219.2L91.6 218.6L91.8 218.1L91.9 217.5L92.1 217.0L92.3 216.4L92.4 215.9L92.6 215.3L92.8 214.7L92.9 214.2L93.1 213.6L93.3 213.1L93.5 212.5L93.6 212.0L93.8 211.4L94.0 210.8L94.1 210.3L94.3 209.7L94.5 209.2L94.6 208.6L94.8 208.0L95.0 207.5L95.1 206.9L95.3 206.4L95.5 205.8L95.6 205.3L95.8 204.7L96.0 204.1L96.1 203.6L96.3 203.0L96.5 202.5L96.6 201.9L96.8 201.3L97.0 200.8L97.1 200.2L97.3 199.7L97.5 199.1L97.6 198.6L97.8 198.0L98.0 197.4L98.1 196.9L98.3 196.3L98.5 195.8L98.6 195.2L98.8 194.6L99.0 194.1L99.1 193.5L99.3 193.0L99.5 192.4L99.6 191.9L99.8 191.3L100.0 190.7L100.1 190.2L100.3 189.6L100.5 189.1L100.6 188.5L100.8 188.0L101.0 187.4L101.1 186.8L101.3 186.3L101.5 185.7L101.7 185.2L101.8 184.6L102.0 184.0L102.2 183.5L102.3 182.9L102.5 182.4L102.7 181.8L102.8 181.3L103.0 180.7L103.2 180.1L103.3 179.6L103.5 179.0L103.7 178.5L103.8 177.9L104.0 177.3L104.2 176.8L104.3 176.2L104.5 175.7L104.7 175.1L104.8 174.6L105.0 174.0L105.2 173.4L105.3 172.9L105.5 172.3L105.7 171.8L105.8 171.2L106.0 170.7L106.2 170.2L106.3 169.6L106.5 169.1L106.7 168.6L106.8 168.0L107.0 167.5L107.2 166.9L107.3 166.4L107.5 165.9L107.7 165.3L107.8 164.8L108.0 164.2L108.2 163.7L108.3 163.1L108.5 162.6L108.7 162.1L108.8 161.5L109.0 161.0L109.2 160.4L109.3 159.9L109.5 159.4L109.7 158.9L109.8 158.5L110.0 158.1L110.2 157.6L110.4 157.2L110.5 156.8L110.7 156.3L110.9 155.9L111.0 155.4L111.2 154.9L111.4 154.5L111.5 154.0L111.7 153.5L111.9 153.0L112.0 152.6L112.2 152.1L112.4 151.6L112.5 151.1L112.7 150.6L112.9 150.1L113.0 149.7L113.2 149.2L113.4 148.8L113.5 148.4L113.7 148.1L113.9 147.7L114.0 147.4L114.2 147.1L114.4 146.8L114.5 146.4L114.7 146.1L114.9 145.7L115.0 145.4L115.2 145.0L115.4 144.6L115.5 144.2L115.7 143.8L115.9 143.4L116.0 143.0L116.2 142.6L116.4 142.1L116.5 141.7L116.7 141.3L116.9 141.0L117.0 140.6L117.2 140.3L117.4 140.0L117.5 139.7L117.7 139.4L117.9 139.1L118.0 138.8L118.2 138.6L118.4 138.4L118.6 138.1L118.7 137.9L118.9 137.6L119.1 137.3L119.2 137.0L119.4 136.7L119.6 136.4L119.7 136.0L119.9 135.7L120.1 135.3L120.2 135.0L120.4 134.6L120.6 134.3L120.7 134.0L120.9 133.7L121.1 133.5L121.2 133.2L121.4 133.0L121.6 132.8L121.7 132.6L121.9 132.4L122.1 132.2L122.2 132.0L122.4 131.8L122.6 131.6L122.7 131.5L122.9 131.3L123.1 131.0L123.2 130.8L123.4 130.6L123.6 130.3L123.7 130.0L123.9 129.7L124.1 129.4L124.2 129.2L124.4 128.9L124.6 128.7L124.7 128.4L124.9 128.2L125.1 128.0L125.2 127.8L125.4 127.6L125.6 127.5L125.7 127.3L125.9 127.1L126.1 127.0L126.2 126.9L126.4 126.7L126.6 126.6L126.8 126.5L126.9 126.3L127.1 126.2L127.3 126.0L127.4 125.8L127.6 125.6L127.8 125.3L127.9 125.1L128.1 124.9L128.3 124.7L128.4 124.5L128.6 124.3L128.8 124.2L128.9 124.0L129.1 123.8L129.3 123.7L129.4 123.6L129.6 123.4L129.8 123.3L129.9 123.2L130.1 123.1L130.3 123.0L130.4 122.9L130.6 122.8L130.8 122.7L130.9 122.6L131.1 122.5L131.3 122.4L131.4 122.2L131.6 122.0L131.8 121.8L131.9 121.7L132.1 121.5L132.3 121.3L132.4 121.2L132.6 121.0L132.8 120.9L132.9 120.8L133.1 120.6L133.3 120.5L133.4 120.4L133.6 120.3L133.8 120.2L133.9 120.1L134.1 120.0L134.3 119.9L134.4 119.9L134.6 119.8L134.8 119.7L134.9 119.6L135.1 119.6L135.3 119.5L135.5 119.4L135.6 119.2L135.8 119.1L136.0 118.9L136.1 118.8L136.3 118.7L136.5 118.5L136.6 118.4L136.8 118.3L137.0 118.2L137.1 118.1L137.3 118.0L137.5 117.9L137.6 117.8L137.8 117.7L138.0 117.7L138.1 117.6L138.3 117.5L138.5 117.5L138.6 117.4L138.8 117.4L139.0 117.3L139.1 117.2L139.3 117.2L139.5 117.1L139.6 117.0L139.8 116.9L140.0 116.8L140.1 116.7L140.3 116.6L140.5 116.5L140.6 116.4L140.8 116.3L141.0 116.2L141.1 116.1L141.3 116.1L141.5 116.0L141.6 115.9L141.8 115.9L142.0 115.8L142.1 115.8L142.3 115.7L142.5 115.7L142.6 115.6L142.8 115.6L143.0 115.5L143.1 115.5L143.3 115.5L143.5 115.4L143.7 115.4L143.8 115.3L144.0 115.2L144.2 115.1L144.3 115.0L144.5 115.0L144.7 114.9L144.8 114.9L145.0 114.8L145.2 114.7L145.3 114.7L145.5 114.6L145.7 114.6L145.8 114.6L146.0 114.5L146.2 114.5L146.3 114.4L146.5 114.4L146.7 114.4L146.8 114.4L147.0 114.3L147.2 114.3L147.3 114.3L147.5 114.3L147.7 114.2L147.8 114.2L148.0 114.1L148.2 114.0L148.3 114.0L148.5 113.9L148.7 113.9L148.8 113.8L149.0 113.7L149.2 113.7L149.3 113.7L149.5 113.6L149.7 113.6L149.8 113.5L150.0 113.5L150.2 113.5L150.3 113.4L150.5 113.4L150.7 113.4L150.8 113.3L151.0 113.3L151.2 113.3L151.3 113.3L151.5 113.3L151.7 113.2L151.9 113.2L152.0 113.2L152.2 113.1L152.4 113.1L152.5 113.1L152.7 113.0L152.9 113.0L153.0 113.0L153.2 112.9L153.4 112.9L153.5 112.9L153.7 112.9L153.9 112.8L154.0 112.8L154.2 112.8L154.4 112.8L154.5 112.8L154.7 112.7L154.9 112.7L155.0 112.7L155.2 112.7L155.4 112.7L155.5 112.7L155.7 112.7L155.9 112.7L156.0 112.7L156.2 112.6L156.4 112.6L156.5 112.6L156.7 112.5L156.9 112.5L157.0 112.5L157.2 112.5L157.4 112.4L157.5 112.4L157.7 112.4L157.9 112.4L158.0 112.4L158.2 112.3L158.4 112.3L158.5 112.3L158.7 112.3L158.9 112.3L159.0 112.3L159.2 112.3L159.4 112.3L159.5 112.3L159.7 112.2L159.9 112.2L160.0 112.2L160.2 112.2L160.4 112.2L160.6 112.2L160.7 112.1L160.9 112.1L161.1 112.1L161.2 112.1L161.4 112.0L161.6 112.0L161.7 112.0L161.9 112.0L162.1 112.0L162.2 112.0L162.4 111.9L162.6 111.9L162.7 111.9L162.9 111.9L163.1 111.9L163.2 111.9L163.4 111.9L163.6 111.9L163.7 111.9L163.9 111.9L164.1 111.8L164.2 111.8L164.4 111.8L164.6 111.8L164.7 111.8L164.9 111.7L165.1 111.7L165.2 111.7L165.4 111.7L165.6 111.7L165.7 111.6L165.9 111.6L166.1 111.6L166.2 111.6L166.4 111.6L166.6 111.6L166.7 111.5L166.9 111.5L167.1 111.5L167.2 111.5L167.4 111.5L167.6 111.5L167.7 111.5L167.9 111.5L168.1 111.5L168.2 111.5L168.4 111.5L168.6 111.5L168.8 111.4L168.9 111.4L169.1 111.4L169.3 111.3L169.4 111.3L169.6 111.3L169.8 111.3L169.9 111.3L170.1 111.2L170.3 111.2L170.4 111.2L170.6 111.2L170.8 111.2L170.9 111.2L171.1 111.2L171.3 111.1L171.4 111.1L171.6 111.1L171.8 111.1L171.9 111.1L172.1 111.1L172.3 111.1L172.4 111.1L172.6 111.1L172.8 111.1L172.9 111.1L173.1 111.1L173.3 111.2L173.4 111.2L173.6 111.2L173.8 111.2L173.9 111.2L174.1 111.3L174.3 111.3L174.4 111.3L174.6 111.3L174.8 111.3L174.9 111.3L175.1 111.4L175.3 111.4L175.4 111.4L175.6 111.4L175.8 111.4L175.9 111.4L176.1 111.5L176.3 111.5L176.4 111.5L176.6 111.5L176.8 111.5L177.0 111.5L177.1 111.5L177.3 111.5L177.5 111.5L177.6 111.5L177.8 111.5L178.0 111.4L178.1 111.4L178.3 111.4L178.5 111.4L178.6 111.4L178.8 111.4L179.0 111.4L179.1 111.4L179.3 111.4L179.5 111.4L179.6 111.4L179.8 111.4L180.0 111.4L180.1 111.4L180.3 111.4L180.5 111.4L180.6 111.4L180.8 111.4L181.0 111.4L181.1 111.4L181.3 111.4L181.5 111.4L181.6 111.5L181.8 111.5L182.0 111.5L182.1 111.5L182.3 111.6L182.5 111.6L182.6 111.6L182.8 111.6L183.0 111.6L183.1 111.7L183.3 111.7L183.5 111.7L183.6 111.7L183.8 111.7L184.0 111.8L184.1 111.8L184.3 111.8L184.5 111.8L184.6 111.8L184.8 111.8L185.0 111.8L185.1 111.9L185.3 111.9L185.5 111.9L185.7 111.8L185.8 111.8L186.0 111.8L186.2 111.8L186.3 111.8L186.5 111.8L186.7 111.8L186.8 111.8L187.0 111.8L187.2 111.8L187.3 111.8L187.5 111.8L187.7 111.8L187.8 111.7L188.0 111.7L188.2 111.7L188.3 111.7L188.5 111.7L188.7 111.7L188.8 111.7L189.0 111.7L189.2 111.7L189.3 111.7L189.5 111.7L189.7 111.7L189.8 111.7L190.0 111.7L190.2 111.6L190.3 111.6L190.5 111.6L190.7 111.6L190.8 111.6L191.0 111.6L191.2 111.5L191.3 111.5L191.5 111.5L191.7 111.5L191.8 111.5L192.0 111.5L192.2 111.5L192.3 111.5L192.5 111.5L192.7 111.5L192.8 111.4L193.0 111.4L193.2 111.4L193.3 111.4L193.5 111.4L193.7 111.4L193.9 111.4L194.0 111.4L194.2 111.3L194.4 111.3L194.5 111.3L194.7 111.3L194.9 111.3L195.0 111.2L195.2 111.2L195.4 111.2L195.5 111.2L195.7 111.2L195.9 111.2L196.0 111.1L196.2 111.1L196.4 111.1L196.5 111.1L196.7 111.1L196.9 111.1L197.0 111.1L197.2 111.1L197.4 111.1L197.5 111.1L197.7 111.1L197.9 111.1L198.0 111.1L198.2 111.1L198.4 111.1L198.5 111.2L198.7 111.2L198.9 111.2L199.0 111.2L199.2 111.3L199.4 111.3L199.5 111.3L199.7 111.3L199.9 111.3L200.0 111.3L200.2 111.4L200.4 111.4L200.5 111.4L200.7 111.4L200.9 111.4L201.0 111.4L201.2 111.5L201.4 111.5L201.5 111.5L201.7 111.5L201.9 111.5L202.1 111.5L202.2 111.5L202.4 111.5L202.6 111.5L202.7 111.5L202.9 111.5L203.1 111.4L203.2 111.4L203.4 111.4L203.6 111.4L203.7 111.4L203.9 111.4L204.1 111.4L204.2 111.4L204.4 111.4L204.6 111.4L204.7 111.4L204.9 111.4L205.1 111.4L205.2 111.4L205.4 111.4L205.6 111.4L205.7 111.4L205.9 111.4L206.1 111.4L206.2 111.4L206.4 111.4L206.6 111.4L206.7 111.5L206.9 111.5L207.1 111.5L207.2 111.5L207.4 111.6L207.6 111.6L207.7 111.6L207.9 111.6L208.1 111.6L208.2 111.7L208.4 111.7L208.6 111.7L208.7 111.7L208.9 111.7L209.1 111.8L209.2 111.8L209.4 111.8L209.6 111.8L209.7 111.8L209.9 111.8L210.1 111.8L210.2 111.9L210.4 111.9L210.6 111.9L210.8 111.8L210.9 111.8L211.1 111.8L211.3 111.8L211.4 111.8L211.6 111.8L211.8 111.8L211.9 111.8L212.1 111.8L212.3 111.8L212.4 111.8L212.6 111.8L212.8 111.8L212.9 111.7L213.1 111.7L213.3 111.7L213.4 111.7L213.6 111.7L213.8 111.7L213.9 111.7L214.1 111.7L214.3 111.7L214.4 111.7L214.6 111.7L214.8 111.7L214.9 111.7L215.1 111.7L215.3 111.6L215.4 111.6L215.6 111.6L215.8 111.6L215.9 111.6L216.1 111.6L216.3 111.5L216.4 111.5L216.6 111.5L216.8 111.5L216.9 111.5L217.1 111.5L217.3 111.5L217.4 111.5L217.6 111.5L217.8 111.5L217.9 111.4L218.1 111.4L218.3 111.4L218.4 111.4L218.6 111.4L218.8 111.4L219.0 111.4L219.1 111.4L219.3 111.3L219.5 111.3L219.6 111.3L219.8 111.3L220.0 111.3L220.1 111.2L220.3 111.2L220.5 111.2L220.6 111.2L220.8 111.2L221.0 111.2L221.1 111.1L221.3 111.1L221.5 111.1L221.6 111.1L221.8 111.1L222.0 111.1L222.1 111.1L222.3 111.1L222.5 111.1L222.6 111.1L222.8 111.1L223.0 111.1L223.1 111.1L223.3 111.1L223.5 111.1L223.6 111.2L223.8 111.2L224.0 111.2L224.1 111.2L224.3 111.3L224.5 111.3L224.6 111.3L224.8 111.3L225.0 111.3L225.1 111.3L225.3 111.4L225.5 111.4L225.6 111.4L225.8 111.4L226.0 111.4L226.1 111.4L226.3 111.5L226.5 111.5L226.6 111.5L226.8 111.5L227.0 111.5L227.2 111.5L227.3 111.5L227.5 111.5L227.7 111.5L227.8 111.5L228.0 111.5L228.2 111.4L228.3 111.4L228.5 111.4L228.7 111.4L228.8 111.4L229.0 111.4L229.2 111.4L229.3 111.4L229.5 111.4L229.7 111.4L229.8 111.4L230.0 111.4L230.2 111.4L230.3 111.4L230.5 111.4L230.7 111.4L230.8 111.4L231.0 111.4L231.2 111.4L231.3 111.4L231.5 111.4L231.7 111.4L231.8 111.5L232.0 111.5L232.2 111.5L232.3 111.5L232.5 111.6L232.7 111.6L232.8 111.6L233.0 111.6L233.2 111.6L233.3 111.7L233.5 111.7L233.7 111.7L233.8 111.7L234.0 111.7L234.2 111.8L234.3 111.8L234.5 111.8L234.7 111.8L234.8 111.8L235.0 111.8L235.2 111.8L235.3 111.9L235.5 111.9L235.7 111.9L235.9 111.9L236.0 111.9L236.2 111.9L236.4 111.9L236.5 112.0L236.7 112.0L236.9 112.0L237.0 112.0L237.2 112.0L237.4 112.0L237.5 112.0L237.7 112.0L237.9 112.0L238.0 112.1L238.2 112.1L238.4 112.1L238.5 112.1L238.7 112.1L238.9 112.1L239.0 112.1L239.2 112.1L239.4 112.1L239.5 112.1L239.7 112.1L239.9 112.2L240.0 112.2L240.2 112.2L240.4 112.2L240.5 112.2L240.7 112.2L240.9 112.2L241.0 112.2L241.2 112.2L241.4 112.2L241.5 112.2L241.7 112.3L241.9 112.3L242.0 112.3L242.2 112.3L242.4 112.3L242.5 112.3L242.7 112.3L242.9 112.3L243.0 112.3L243.2 112.3L243.4 112.3L243.5 112.3L243.7 112.4L243.9 112.4L244.1 112.4L244.2 112.4L244.4 112.4L244.6 112.4L244.7 112.4L244.9 112.4L245.1 112.4L245.2 112.4L245.4 112.4L245.6 112.4L245.7 112.4L245.9 112.5L246.1 112.5L246.2 112.5L246.4 112.5L246.6 112.5L246.7 112.5L246.9 112.5L247.1 112.5L247.2 112.5L247.4 112.5L247.6 112.5L247.7 112.5L247.9 112.5L248.1 112.6L248.2 112.6L248.4 112.6L248.6 112.6L248.7 112.6L248.9 112.6L249.1 112.6L249.2 112.6L249.4 112.6L249.6 112.6L249.7 112.6L249.9 112.6L250.1 112.6L250.2 112.7L250.4 112.7L250.6 112.7L250.7 112.7L250.9 112.7L251.1 112.7L251.2 112.7L251.4 112.7L251.6 112.7L251.7 112.7L251.9 112.7L252.1 112.7L252.2 112.7L252.4 112.8L252.6 112.8L252.8 112.8L252.9 112.8L253.1 112.8L253.3 112.8L253.4 112.8L253.6 112.8L253.8 112.8L253.9 112.8L254.1 112.8L254.3 112.8L254.4 112.8L254.6 112.9L254.8 112.9L254.9 112.9L255.1 112.9L255.3 112.9L255.4 112.9L255.6 112.9L255.8 112.9L255.9 112.9L256.1 112.9L256.3 112.9L256.4 112.9L256.6 112.9L256.8 113.0L256.9 113.0L257.1 113.0L257.3 113.0L257.4 113.0L257.6 113.0L257.8 113.0L257.9 113.0L258.1 113.0L258.3 113.0L258.4 113.0L258.6 113.0L258.8 113.0L258.9 113.1L259.1 113.1L259.3 113.1L259.4 113.1L259.6 113.1L259.8 113.1L259.9 113.1L260.1 113.1L260.3 113.1L260.4 113.1L260.6 113.1L260.8 113.1L261.0 113.1L261.1 113.1L261.3 113.2L261.5 113.2L261.6 113.2L261.8 113.2L262.0 113.2L262.1 113.2L262.3 113.2L262.5 113.2L262.6 113.2L262.8 113.2L263.0 113.2L263.1 113.2L263.3 113.2L263.5 113.3L263.6 113.3L263.8 113.3L264.0 113.3L264.1 113.3L264.3 113.3L264.5 113.3L264.6 113.3L264.8 113.3L265.0 113.3L265.1 113.3L265.3 113.3L265.5 113.3L265.6 113.4L265.8 113.4L266.0 113.4L266.1 113.4L266.3 113.4L266.5 113.4L266.6 113.4L266.8 113.4L267.0 113.4L267.1 113.4L267.3 113.4L267.5 113.4L267.6 113.4L267.8 113.5L268.0 113.5L268.1 113.5L268.3 113.5L268.5 113.5L268.6 113.5L268.8 113.5L269.0 113.5L269.2 113.5L269.3 113.5L269.5 113.5L269.7 113.5L269.8 113.5L270.0 113.5L270.2 113.6L270.3 113.6L270.5 113.6L270.7 113.6L270.8 113.6L271.0 113.6L271.2 113.6L271.3 113.6L271.5 113.6L271.7 113.6L271.8 113.6L272.0 113.6L272.2 113.6L272.3 113.7L272.5 113.7L272.7 113.7L272.8 113.7L273.0 113.7L273.2 113.7L273.3 113.7L273.5 113.7L273.7 113.7L273.8 113.7L274.0 113.7L274.2 113.7L274.3 113.7L274.5 113.8L274.7 113.8L274.8 113.8L275.0 113.8L275.2 113.8L275.3 113.8L275.5 113.8L275.7 113.8L275.8 113.8L276.0 113.8L276.2 113.8L276.3 113.8L276.5 113.8L276.7 113.8L276.8 113.9L277.0 113.9L277.2 113.9L277.3 113.9L277.5 113.9L277.7 113.9L277.9 113.9L278.0 113.9L278.2 113.9L278.4 113.9L278.5 113.9L278.7 113.9L278.9 113.9L279.0 114.0L279.2 114.0L279.4 114.0L279.5 114.0L279.7 114.0L279.9 114.0L280.0 114.0L280.2 114.0L280.4 114.0L280.5 114.0L280.7 114.0L280.9 114.0L281.0 114.0L281.2 114.1L281.4 114.1L281.5 114.1L281.7 114.1L281.9 114.1L282.0 114.0L282.2 114.0L282.4 114.0L282.5 114.0L282.7 114.0L282.9 114.0L283.0 113.9L283.2 113.9L283.4 113.9L283.5 113.9L283.7 113.9L283.9 113.9L284.0 113.9L284.2 113.9L284.4 113.9L284.5 113.9L284.7 113.9L284.9 113.9L285.0 113.9L285.2 113.9L285.4 113.9L285.5 113.9L285.7 113.9L285.9 113.9L286.1 113.9L286.2 113.9L286.4 113.9L286.6 113.9L286.7 113.9L286.9 113.9L287.1 113.9L287.2 113.9L287.4 113.9L287.6 113.9L287.7 113.9L287.9 113.9L288.1 113.9L288.2 113.9L288.4 113.9L288.6 113.9L288.7 113.9L288.9 113.9L289.1 113.9L289.2 113.9L289.4 113.9L289.6 113.9L289.7 113.9L289.9 113.9L290.1 113.9L290.2 113.9L290.4 113.9L290.6 113.9L290.7 114.0L290.9 114.0L291.1 114.0L291.2 114.0L291.4 114.0L291.6 114.0L291.7 114.0L291.9 114.0L292.1 114.0L292.2 114.0L292.4 114.0L292.6 114.0L292.7 114.0L292.9 114.0L293.1 114.0L293.2 114.0L293.4 114.1L293.6 114.1L293.7 114.1L293.9 114.1L294.1 114.1L294.3 114.1L294.4 114.1L294.6 114.0L294.8 114.0L294.9 114.0L295.1 114.0L295.3 114.0L295.4 114.0L295.6 114.0L295.8 113.9L295.9 113.9L296.1 113.9L296.3 113.9L296.4 113.9L296.6 113.9L296.8 113.9L296.9 113.9L297.1 113.9L297.3 113.9L297.4 113.9L297.6 113.9L297.8 113.9L297.9 113.9L298.1 113.9L298.3 113.9L298.4 113.9L298.6 113.9L298.8 113.9L298.9 113.9L299.1 113.9L299.3 113.9L299.4 113.9L299.6 113.9L299.8 113.9L299.9 113.9L300.1 113.9L300.3 113.9L300.4 113.9L300.6 113.9L300.8 113.9L300.9 113.9L301.1 113.9L301.3 113.9L301.4 113.9L301.6 113.9L301.8 113.9L301.9 113.9L302.1 113.9L302.3 113.9L302.4 113.9L302.6 113.9L302.8 113.9L303.0 113.9L303.1 113.9L303.3 114.0L303.5 114.0L303.6 114.0L303.8 114.0L304.0 114.0L304.1 114.0L304.3 114.0L304.5 114.0L304.6 114.0L304.8 114.0L305.0 114.0L305.1 114.0L305.3 114.0L305.5 114.0L305.6 114.0L305.8 114.0L306.0 114.1L306.1 114.1L306.3 114.1L306.5 114.1L306.6 114.1L306.8 114.1L307.0 114.1L307.1 114.0L307.3 114.0L307.5 114.0L307.6 114.0L307.8 114.0L308.0 114.0L308.1 114.0L308.3 113.9L308.5 113.9L308.6 113.9L308.8 113.9L309.0 113.9L309.1 113.9L309.3 113.9L309.5 113.9L309.6 113.9L309.8 113.9L310.0 113.9L310.1 113.9L310.3 113.9L310.5 113.9L310.6 113.9L310.8 113.9L311.0 113.9L311.2 113.9L311.3 113.9L311.5 113.9L311.7 113.9L311.8 113.9L312.0 113.9L312.2 113.9L312.3 113.9L312.5 113.9L312.7 113.9L312.8 113.9L313.0 113.9L313.2 113.9L313.3 113.9L313.5 113.9L313.7 113.9L313.8 113.9L314.0 113.9L314.2 113.9L314.3 113.9L314.5 113.9L314.7 113.9L314.8 113.9L315.0 113.9L315.2 113.9L315.3 113.9L315.5 113.9L315.7 113.9L315.8 114.0L316.0 114.0L316.2 114.0L316.3 114.0L316.5 114.0L316.7 114.0L316.8 114.0L317.0 114.0L317.2 114.0L317.3 114.0L317.5 114.0L317.7 114.0L317.8 114.0L318.0 114.0L318.2 114.0L318.3 114.0L318.5 114.1L318.7 114.1L318.8 114.1L319.0 114.1L319.2 114.1L319.4 114.1L319.5 114.1L319.7 114.0L319.9 114.0L320.0 114.0L320.2 114.0L320.4 114.0L320.5 114.0L320.7 114.0L320.9 113.9L321.0 113.9L321.2 113.9L321.4 113.9L321.5 113.9L321.7 113.9L321.9 113.9L322.0 113.9L322.2 113.9L322.4 113.9L322.5 113.9L322.7 113.9L322.9 113.9L323.0 113.9L323.2 113.9L323.4 113.9L323.5 113.9L323.7 113.9L323.9 113.9L324.0 113.9L324.2 113.9L324.4 113.9L324.5 113.9L324.7 113.9L324.9 113.9L325.0 113.9L325.2 113.9L325.4 113.9L325.5 113.9L325.7 113.9L325.9 113.9L326.0 113.9L326.2 113.9L326.4 113.9L326.5 113.9L326.7 113.9L326.9 113.9L327.0 113.9L327.2 113.9L327.4 113.9L327.5 113.9L327.7 113.9L327.9 113.9L328.1 113.9L328.2 113.9L328.4 114.0L328.6 114.0L328.7 114.0L328.9 114.0L329.1 114.0L329.2 114.0L329.4 114.0L329.6 114.0L329.7 114.0L329.9 114.0L330.1 114.0L330.2 114.0L330.4 114.0L330.6 114.0L330.7 114.0L330.9 114.0L331.1 114.1L331.2 114.1L331.4 114.1L331.6 114.1L331.7 114.1L331.9 114.1L332.1 114.1L332.2 114.0L332.4 114.0L332.6 114.0L332.7 114.0L332.9 114.0L333.1 114.0L333.2 114.0L333.4 113.9L333.6 113.9L333.7 113.9L333.9 113.9L334.1 113.9L334.2 113.9L334.4 113.9L334.6 113.9L334.7 113.9L334.9 113.9L335.1 113.9L335.2 113.9L335.4 113.9L335.6 113.9L335.7 113.9L335.9 113.9L336.1 113.9L336.3 113.9L336.4 113.9L336.6 113.9L336.8 113.9L336.9 113.9L337.1 113.9L337.3 113.9L337.4 113.9L337.6 113.9L337.8 113.9L337.9 113.9L338.1 113.9L338.3 113.9L338.4 113.9L338.6 113.9L338.8 113.9L338.9 113.9L339.1 113.9L339.3 113.9L339.4 113.9L339.6 113.9L339.8 113.9L339.9 113.9L340.1 113.9L340.3 113.9L340.4 113.9L340.6 113.9L340.8 113.9L340.9 114.0L341.1 114.0L341.3 114.0L341.4 114.0L341.6 114.0L341.8 114.0L341.9 114.0L342.1 114.0L342.3 114.0L342.4 114.0L342.6 114.0L342.8 114.0L342.9 114.0L343.1 114.0L343.3 114.0L343.4 114.0L343.6 114.1L343.8 114.1L343.9 114.1L344.1 114.1L344.3 114.1L344.5 114.1L344.6 114.1L344.8 114.0L345.0 114.0L345.1 114.0L345.3 114.0L345.5 114.0L345.6 114.0L345.8 114.0L346.0 113.9L346.1 113.9L346.3 113.9L346.5 113.9L346.6 113.9L346.8 113.9L347.0 113.9L347.1 113.9L347.3 113.9L347.5 113.9L347.6 113.9L347.8 113.9L348.0 113.9L348.1 113.9L348.3 113.9L348.5 113.9L348.6 113.9L348.8 113.9L349.0 113.9L349.1 113.9L349.3 113.9L349.5 113.9L349.6 113.9L349.8 113.9L350.0 113.9L350.1 113.9L350.3 113.9L350.5 113.9L350.6 113.9L350.8 113.9L351.0 113.9L351.1 113.9L351.3 113.9L351.5 113.9L351.6 113.9L351.8 113.9L352.0 113.9L352.1 113.9L352.3 113.9L352.5 113.9L352.6 113.9L352.8 113.9L353.0 113.9L353.2 113.9L353.3 113.9L353.5 114.0L353.7 114.0L353.8 114.0L354.0 114.0L354.2 114.0L354.3 114.0L354.5 114.0L354.7 114.0L354.8 114.0L355.0 114.0L355.2 114.0L355.3 114.0L355.5 114.0L355.7 114.0L355.8 114.0L356.0 114.0L356.2 114.1L356.3 114.1L356.5 114.1L356.7 114.1L356.8 114.1L357.0 114.1L357.2 114.1L357.3 114.0L357.5 114.0L357.7 114.0L357.8 114.0L358.0 114.0L358.2 114.0L358.3 114.0L358.5 113.9L358.7 113.9L358.8 113.9L359.0 113.9L359.2 113.9L359.3 113.9L359.5 113.9L359.7 113.9L359.8 113.9L360.0 113.9L360.2 113.9L360.3 113.9L360.5 113.9L360.7 113.9L360.8 113.9L361.0 113.9L361.2 113.9L361.4 113.9L361.5 113.9L361.7 113.9L361.9 113.9L362.0 113.9L362.2 113.9L362.4 113.9L362.5 113.9L362.7 113.9L362.9 113.9L363.0 113.9L363.2 113.9L363.4 113.9L363.5 113.9L363.7 113.9L363.9 113.9L364.0 113.9L364.2 113.9L364.4 113.9L364.5 113.9L364.7 113.9L364.9 113.9L365.0 113.9L365.2 113.9L365.4 113.9L365.5 113.9L365.7 113.9L365.9 113.9L366.0 114.0L366.2 114.0L366.4 114.0L366.5 114.0L366.7 114.0L366.9 114.0L367.0 114.0L367.2 114.0L367.4 114.0L367.5 114.0L367.7 114.0L367.9 114.0L368.0 114.0L368.2 114.0L368.4 114.0L368.5 114.0L368.7 114.1L368.9 114.1L369.0 114.1L369.2 114.1L369.4 114.1L369.6 114.1L369.7 114.1L369.9 114.0L370.1 114.0L370.2 114.0L370.4 114.0L370.6 114.0L370.7 114.0L370.9 114.0L371.1 113.9L371.2 113.9L371.4 113.9L371.6 113.9L371.7 113.9L371.9 113.9L372.1 113.9L372.2 113.9L372.4 113.9L372.6 113.9L372.7 113.9L372.9 113.9L373.1 113.9L373.2 113.9L373.4 113.9L373.6 113.9L373.7 113.9L373.9 113.9L374.1 113.9L374.2 113.9L374.4 113.9L374.6 113.9L374.7 113.9L374.9 113.9L375.1 113.9L375.2 113.9L375.4 113.9L375.6 113.9L375.7 113.9L375.9 113.9L376.1 113.9L376.2 113.9L376.4 113.9L376.6 113.9L376.7 113.9L376.9 113.9L377.1 113.9L377.2 113.9L377.4 113.9L377.6 113.9L377.7 113.9L377.9 113.9L378.1 113.9L378.3 113.9L378.4 113.9L378.6 114.0L378.8 114.0L378.9 114.0L379.1 114.0L379.3 114.0L379.4 114.0L379.6 114.0L379.8 114.0L379.9 114.0L380.1 114.0L380.3 114.0L380.4 114.0L380.6 114.0L380.8 114.0L380.9 114.0L381.1 114.0L381.3 114.1L381.4 114.1L381.6 114.1L381.8 114.1L381.9 114.1L382.1 114.1L382.3 114.1L382.4 114.0L382.6 114.0L382.8 114.0L382.9 114.0L383.1 114.0L383.3 114.0L383.4 114.0L383.6 113.9L383.8 113.9L383.9 113.9L384.1 113.9L384.3 113.9L384.4 113.9L384.6 113.9L384.8 113.9L384.9 113.9L385.1 113.9L385.3 113.9L385.4 113.9L385.6 113.9L385.8 113.9L385.9 113.9L386.1 113.9L386.3 113.9L386.5 113.9L386.6 113.9L386.8 113.9L387.0 113.9L387.1 113.9L387.3 113.9L387.5 113.9L387.6 113.9L387.8 113.9L388.0 113.9L388.1 113.9L388.3 113.9L388.5 113.9L388.6 113.9L388.8 113.9L389.0 113.9L389.1 113.9L389.3 113.9L389.5 113.9L389.6 113.9L389.8 113.9L390.0 113.9L390.1 113.9L390.3 113.9L390.5 113.9L390.6 113.9L390.8 113.9L391.0 113.9L391.1 114.0L391.3 114.0L391.5 114.0L391.6 114.0L391.8 114.0L392.0 114.0L392.1 114.0L392.3 114.0L392.5 114.0L392.6 114.0L392.8 114.0L393.0 114.0L393.1 114.0L393.3 114.0L393.5 114.0L393.6 114.0L393.8 114.1L394.0 114.1L394.1 114.1L394.3 114.1L394.5 114.1L394.7 114.1L394.8 114.1L395.0 114.0L395.2 114.0L395.3 114.0L395.5 114.0L395.7 114.0L395.8 114.0L396.0 114.0L396.2 113.9L396.3 113.9L396.5 113.9L396.7 113.9L396.8 113.9L397.0 113.9L397.2 113.9L397.3 113.9L397.5 113.9L397.7 113.9L397.8 113.9L398.0 113.9L398.2 113.9L398.3 113.9L398.5 113.9L398.7 113.9L398.8 113.9L399.0 113.9L399.2 113.9L399.3 113.9L399.5 113.9L399.7 113.9L399.8 113.9L400.0 113.9L400.2 113.9L400.3 113.9L400.5 113.9L400.7 113.9L400.8 113.9L401.0 113.9L401.2 113.9L401.3 113.9L401.5 113.9L401.7 113.9L401.8 113.9L402.0 113.9L402.2 113.9L402.3 113.9L402.5 113.9L402.7 113.9L402.8 113.9L403.0 113.9L403.2 113.9L403.4 113.9L403.5 113.9L403.7 114.0L403.9 114.0L404.0 114.0L404.2 114.0L404.4 114.0L404.5 114.0L404.7 114.0L404.9 114.0L405.0 114.0L405.2 114.0L405.4 114.0L405.5 114.0L405.7 114.0L405.9 114.0L406.0 114.0L406.2 114.0L406.4 114.1L406.5 114.1L406.7 114.1L406.9 114.1L407.0 114.1L407.2 114.1L407.4 114.1L407.5 114.0L407.7 114.0L407.9 114.0L408.0 114.0L408.2 114.0L408.4 114.0L408.5 114.0L408.7 113.9L408.9 113.9L409.0 113.9L409.2 113.9L409.4 113.9L409.5 113.9L409.7 113.9L409.9 113.9L410.0 113.9L410.2 113.9L410.4 113.9L410.5 113.9L410.7 113.9L410.9 113.9L411.0 113.9L411.2 113.9L411.4 113.9L411.6 113.9L411.7 113.9L411.9 113.9L412.1 113.9L412.2 113.9L412.4 113.9L412.6 113.9L412.7 113.9L412.9 113.9L413.1 113.9L413.2 113.9L413.4 113.9L413.6 113.9L413.7 113.9L413.9 113.9L414.1 113.9L414.2 113.9L414.4 113.9L414.6 113.9L414.7 113.9L414.9 113.9L415.1 113.9L415.2 113.9L415.4 113.9L415.6 113.9L415.7 113.9L415.9 113.9L416.1 113.9L416.2 114.0L416.4 114.0L416.6 114.0L416.7 114.0L416.9 114.0L417.1 114.0L417.2 114.0L417.4 114.0L417.6 114.0L417.7 114.0L417.9 114.0L418.1 114.0L418.2 114.0L418.4 114.0L418.6 114.0L418.7 114.0L418.9 114.1L419.1 114.1L419.2 114.1L419.4 114.1L419.6 114.1L419.8 114.1L419.9 114.1L420.1 114.0L420.3 114.0L420.4 114.0L420.6 114.0L420.8 114.0L420.9 114.0L421.1 114.0L421.3 113.9L421.4 113.9L421.6 113.9L421.8 113.9L421.9 113.9L422.1 113.9L422.3 113.9L422.4 113.9L422.6 113.9L422.8 113.9L422.9 113.9L423.1 113.9L423.3 113.9L423.4 113.9L423.6 113.9L423.8 113.9L423.9 113.9L424.1 113.9L424.3 113.9L424.4 113.9L424.6 113.9L424.8 113.9L424.9 113.9L425.1 113.9L425.3 113.9L425.4 113.9L425.6 113.9L425.8 113.9L425.9 113.9L426.1 113.9L426.3 113.9L426.4 113.9L426.6 113.9L426.8 113.9L426.9 113.9L427.1 113.9L427.3 113.9L427.4 113.9L427.6 113.9L427.8 113.9L427.9 113.9L428.1 113.9L428.3 113.9L428.5 113.9L428.6 113.9L428.8 114.0L429.0 114.0L429.1 114.0L429.3 114.0L429.5 114.0L429.6 114.0L429.8 114.0L430.0 114.0L430.1 114.0L430.3 114.0L430.5 114.0L430.6 114.0L430.8 114.0L431.0 114.0L431.1 114.0L431.3 114.0L431.5 114.1L431.6 114.1L431.8 114.1L432.0 114.1L432.1 114.1L432.3 114.1L432.5 114.1L432.6 114.0L432.8 114.0L433.0 114.0L433.1 114.0L433.3 114.0L433.5 114.0L433.6 114.0L433.8 113.9L434.0 113.9L434.1 113.9L434.3 113.9L434.5 113.9L434.6 113.9L434.8 113.9L435.0 113.9L435.1 113.9L435.3 113.9L435.5 113.9L435.6 113.9L435.8 113.9L436.0 113.9L436.1 113.9L436.3 113.9L436.5 113.9L436.7 113.9L436.8 113.9L437.0 113.9L437.2 113.9L437.3 113.9L437.5 113.9L437.7 113.9L437.8 113.9L438.0 113.9L438.2 113.9L438.3 113.9L438.5 113.9L438.7 113.9L438.8 113.9L439.0 113.9L439.2 113.9L439.3 113.9L439.5 113.9L439.7 113.9L439.8 113.9L440.0 113.9L440.2 113.9L440.3 113.9L440.5 113.9L440.7 113.9L440.8 113.9L441.0 113.9L441.2 113.9L441.3 114.0L441.5 114.0L441.7 114.0L441.8 114.0L442.0 114.0L442.2 114.0L442.3 114.0L442.5 114.0L442.7 114.0L442.8 114.0L443.0 114.0L443.2 114.0L443.3 114.0L443.5 114.0L443.7 114.0L443.8 114.0L444.0 114.1L444.2 114.1L444.3 114.1L444.5 114.1L444.7 114.1L444.9 114.1L445.0 114.1L445.2 114.0L445.4 114.0L445.5 114.0L445.7 114.0L445.9 114.0L446.0 114.0L446.2 114.0L446.4 113.9L446.5 113.9L446.7 113.9L446.9 113.9L447.0 113.9L447.2 113.9L447.4 113.9L447.5 113.9L447.7 113.9L447.9 113.9L448.0 113.9L448.2 113.9L448.4 113.9L448.5 113.9L448.7 113.9L448.9 113.9L449.0 113.9L449.2 113.9L449.4 113.9L449.5 113.9L449.7 113.9L449.9 113.9L450.0 113.9L450.2 113.9L450.4 113.9L450.5 113.9L450.7 113.9L450.9 113.9L451.0 113.9L451.2 113.9L451.4 113.9L451.5 113.9L451.7 113.9L451.9 113.9L452.0 113.9L452.2 113.9L452.4 113.9L452.5 113.9L452.7 113.9L452.9 113.9L453.0 113.9L453.2 113.9L453.4 113.9L453.6 113.9L453.7 113.9L453.9 114.0L454.1 114.0L454.2 114.0L454.4 114.0L454.6 114.0L454.7 114.0L454.9 114.0L455.1 114.0L455.2 114.0L455.4 114.0L455.6 114.0L455.7 114.0L455.9 114.0L456.1 114.0L456.2 114.0L456.4 114.0L456.6 114.1L456.7 114.1L456.9 114.1L457.1 114.1L457.2 114.1L457.4 114.1L457.6 114.1L457.7 114.0L457.9 114.0L458.1 114.0L458.2 114.0L458.4 114.0L458.6 114.0L458.7 114.0L458.9 113.9L459.1 113.9L459.2 113.9L459.4 113.9L459.6 113.9L459.7 113.9L459.9 113.9L460.1 113.9L460.2 113.9L460.4 113.9L460.6 113.9L460.7 113.9L460.9 113.9L461.1 113.9L461.2 113.9L461.4 113.9L461.6 113.9L461.8 113.9L461.9 113.9L462.1 113.9L462.3 113.9L462.4 113.9L462.6 113.9L462.8 113.9L462.9 113.9L463.1 113.9L463.3 113.9L463.4 113.9L463.6 113.9L463.8 113.9L463.9 113.9L464.1 113.9L464.3 113.9L464.4 113.9L464.6 113.9L464.8 113.9L464.9 113.9L465.1 113.9L465.3 113.9L465.4 113.9L465.6 113.9L465.8 113.9L465.9 113.9L466.1 113.9L466.3 113.9L466.4 114.0L466.6 114.0L466.8 114.0L466.9 114.0L467.1 114.0L467.3 114.0L467.4 114.0L467.6 114.0L467.8 114.0L467.9 114.0L468.1 114.0L468.3 114.0L468.4 114.0L468.6 114.0L468.8 114.0L468.9 114.0L469.1 114.1L469.3 114.1L469.4 114.1L469.6 114.1L469.8 114.1L470.0 114.1L470.1 114.1L470.3 114.0L470.5 114.0L470.6 114.0L470.8 114.0L471.0 114.0L471.1 114.0L471.3 114.0L471.5 113.9L471.6 113.9L471.8 113.9L472.0 113.9L472.1 113.9L472.3 113.9L472.5 113.9L472.6 113.9L472.8 113.9L473.0 113.9L473.1 113.9L473.3 113.9L473.5 113.9L473.6 113.9L473.8 113.9L474.0 113.9L474.1 113.9L474.3 113.9L474.5 113.9L474.6 113.9L474.8 113.9L475.0 113.9L475.1 113.9L475.3 113.9L475.5 113.9L475.6 113.9L475.8 113.9L476.0 113.9L476.1 113.9L476.3 113.9L476.5 113.9L476.6 113.9L476.8 113.9L477.0 113.9L477.1 113.9L477.3 113.9L477.5 113.9L477.6 113.9L477.8 113.9L478.0 113.9L478.1 113.9L478.3 113.9L478.5 113.9L478.7 113.9L478.8 113.9L479.0 114.0L479.2 114.0L479.3 114.0L479.5 114.0L479.7 114.0L479.8 114.0L480.0 114.0L480.2 114.0L480.3 114.0L480.5 114.0L480.7 114.0L480.8 114.0L481.0 114.0L481.2 114.0L481.3 114.0L481.5 114.0L481.7 114.1L481.8 114.1L482.0 114.1L482.2 114.1L482.3 114.1L482.5 114.1L482.7 114.1L482.8 114.0L483.0 114.0L483.2 114.0L483.3 114.0L483.5 114.0L483.7 114.0L483.8 114.0L484.0 113.9L484.2 113.9L484.3 113.9L484.5 113.9L484.7 113.9L484.8 113.9L485.0 113.9L485.2 113.9L485.3 113.9L485.5 113.9L485.7 113.9L485.8 113.9L486.0 113.9L486.2 113.9L486.3 113.9L486.5 113.9L486.7 113.9L486.9 113.9L487.0 113.9L487.2 113.9L487.4 113.9L487.5 113.9L487.7 113.9L487.9 113.9L488.0 113.9L488.2 113.9L488.4 113.9L488.5 113.9L488.7 113.9L488.9 113.9L489.0 113.9L489.2 113.9L489.4 113.9L489.5 113.9L489.7 113.9L489.9 113.9L490.0 113.9L490.2 113.9L490.4 113.9L490.5 113.9L490.7 113.9L490.9 113.9L491.0 113.9L491.2 113.9L491.4 113.9L491.5 114.0L491.7 114.0L491.9 114.0L492.0 114.0L492.2 114.0L492.4 114.0L492.5 114.0L492.7 114.0L492.9 114.0L493.0 114.0L493.2 114.0L493.4 114.0L493.5 114.0L493.7 114.0L493.9 114.0L494.0 114.0L494.2 114.1L494.4 114.1L494.5 114.1L494.7 114.1L494.9 114.1L495.1 114.1L495.2 114.1L495.4 114.0L495.6 114.0L495.7 114.0L495.9 114.0L496.1 114.0L496.2 114.0L496.4 114.0L496.6 113.9L496.7 113.9L496.9 113.9L497.1 113.9L497.2 113.9L497.4 113.9L497.6 113.9L497.7 113.9L497.9 113.9L498.1 113.9L498.2 113.9L498.4 113.9L498.6 113.9L498.7 113.9L498.9 113.9L499.1 113.9L499.2 113.9L499.4 113.9L499.6 113.9L499.7 113.9L499.9 113.9L500.1 113.9L500.2 113.9L500.4 113.9L500.6 113.9L500.7 113.9L500.9 113.9L501.1 113.9L501.2 113.9L501.4 113.9L501.6 113.9L501.7 113.9L501.9 113.9L502.1 113.9L502.2 113.9L502.4 113.9L502.6 113.9L502.7 113.9L502.9 113.9L503.1 113.9L503.2 113.9L503.4 113.9L503.6 113.9L503.8 113.9L503.9 113.9L504.1 114.0L504.3 114.0L504.4 114.0L504.6 114.0L504.8 114.0L504.9 114.0L505.1 114.0L505.3 114.0L505.4 114.0L505.6 114.0L505.8 114.0L505.9 114.0L506.1 114.0L506.3 114.0L506.4 114.0L506.6 114.0L506.8 114.1L506.9 114.1L507.1 114.1L507.3 114.1L507.4 114.1L507.6 114.1L507.8 114.1L507.9 114.0L508.1 114.0L508.3 114.0L508.4 114.0L508.6 114.0L508.8 114.0L508.9 114.0L509.1 113.9L509.3 113.9L509.4 113.9L509.6 113.9L509.8 113.9L509.9 113.9L510.1 113.9L510.3 113.9L510.4 113.9L510.6 113.9L510.8 113.9L510.9 113.9L511.1 113.9L511.3 113.9L511.4 113.9L511.6 113.9L511.8 113.9L512.0 113.9L512.1 113.9L512.3 113.9L512.5 113.9L512.6 113.9L512.8 113.9L513.0 113.9L513.1 113.9L513.3 113.9L513.5 113.9L513.6 113.9L513.8 113.9L514.0 113.9L514.1 113.9L514.3 113.9L514.5 113.9L514.6 113.9L514.8 113.9L515.0 113.9L515.1 113.9L515.3 113.9L515.5 113.9L515.6 113.9L515.8 113.9L516.0 113.9L516.1 113.9L516.3 113.9L516.5 113.9L516.6 114.0L516.8 114.0L517.0 114.0L517.1 114.0L517.3 114.0L517.5 114.0L517.6 114.0L517.8 114.0L518.0 114.0L518.1 114.0L518.3 114.0L518.5 114.0L518.6 114.0L518.8 114.0L519.0 114.0L519.1 114.0L519.3 114.1L519.5 114.1L519.6 114.1L519.8 114.1L520.0 114.1L520.2 114.1L520.3 114.1L520.5 114.0L520.7 114.0L520.8 114.0L521.0 114.0L521.2 114.0L521.3 114.0L521.5 114.0L521.7 113.9L521.8 113.9L522.0 113.9L522.2 113.9L522.3 113.9L522.5 113.9L522.7 113.9L522.8 113.9L523.0 113.9L523.2 113.9L523.3 113.9L523.5 113.9L523.7 113.9L523.8 113.9L524.0 113.9L524.2 113.9L524.3 113.9L524.5 113.9L524.7 113.9L524.8 113.9L525.0 113.9L525.2 113.9L525.3 113.9L525.5 113.9L525.7 113.9L525.8 113.9L526.0 113.9L526.2 113.9L526.3 113.9L526.5 113.9L526.7 113.9L526.8 113.9L527.0 113.9L527.2 113.9L527.3 113.9L527.5 113.9L527.7 113.9L527.8 113.9L528.0 113.9L528.2 113.9L528.3 113.9L528.5 113.9L528.7 113.9L528.9 113.9L529.0 113.9L529.2 114.0L529.4 114.0L529.5 114.0L529.7 114.0L529.9 114.0L530.0 114.0L530.2 114.0L530.4 114.0L530.5 114.0L530.7 114.0L530.9 114.0L531.0 114.0L531.2 114.0L531.4 114.0L531.5 114.0L531.7 114.0L531.9 114.1L532.0 114.1L532.2 114.1L532.4 114.1L532.5 114.1L532.7 114.1L532.9 114.1L533.0 114.0L533.2 114.0L533.4 114.0L533.5 114.0L533.7 114.0L533.9 114.0L534.0 114.0L534.2 113.9L534.4 113.9L534.5 113.9L534.7 113.9L534.9 113.9L535.0 113.9L535.2 113.9L535.4 113.9L535.5 113.9L535.7 113.9L535.9 113.9L536.0 113.9L536.2 113.9L536.4 113.9L536.5 113.9L536.7 113.9L536.9 113.9L537.1 113.9L537.2 113.9L537.4 113.9L537.6 113.9L537.7 113.9L537.9 113.9L538.1 113.9L538.2 113.9L538.4 113.9L538.6 113.9L538.7 113.9L538.9 113.9L539.1 113.9L539.2 113.9L539.4 113.9L539.6 113.9L539.7 113.9L539.9 113.9L540.1 113.9L540.2 113.9L540.4 113.9L540.6 113.9L540.7 113.9L540.9 113.9L541.1 113.9L541.2 113.9L541.4 113.9L541.6 113.9L541.7 114.0L541.9 114.0L542.1 114.0L542.2 114.0L542.4 114.0L542.6 114.0L542.7 114.0L542.9 114.0L543.1 114.0L543.2 114.0L543.4 114.0L543.6 114.0L543.7 114.0L543.9 114.0L544.1 114.0L544.2 114.0L544.4 114.1L544.6 114.1L544.7 114.1L544.9 114.1L545.1 114.1L545.3 114.1L545.4 114.1L545.6 114.0L545.8 114.0L545.9 114.0L546.1 114.0L546.3 114.0L546.4 114.0L546.6 114.0L546.8 113.9L546.9 113.9L547.1 113.9L547.3 113.9L547.4 113.9L547.6 113.9L547.8 113.9L547.9 113.9L548.1 113.9L548.3 113.9L548.4 113.9L548.6 113.9L548.8 113.9L548.9 113.9L549.1 113.9L549.3 113.9L549.4 113.9L549.6 113.9L549.8 113.9L549.9 113.9L550.1 113.9L550.3 113.9L550.4 113.9L550.6 113.9L550.8 113.9L550.9 113.9L551.1 113.9L551.3 113.9L551.4 113.9L551.6 113.9L551.8 113.9L551.9 113.9L552.1 113.9L552.3 113.9L552.4 113.9L552.6 113.9L552.8 113.9L552.9 113.9L553.1 113.9L553.3 113.9L553.4 113.9L553.6 113.9L553.8 113.9L554.0 113.9L554.1 113.9L554.3 114.0L554.5 114.0L554.6 114.0L554.8 114.0L555.0 114.0L555.1 114.0L555.3 114.0L555.5 114.0L555.6 114.0L555.8 114.0L556.0 114.0L556.1 114.0L556.3 114.0L556.5 114.0L556.6 114.0L556.8 114.0L557.0 114.1L557.1 114.1L557.3 114.1L557.5 114.1L557.6 114.1L557.8 114.1L558.0 114.1L558.1 114.0L558.3 114.0L558.5 114.0L558.6 114.0L558.8 114.0L559.0 114.0L559.1 114.0L559.3 113.9L559.5 113.9L559.6 113.9L559.8 113.9L560.0 113.9L560.1 113.9L560.3 113.9L560.5 113.9L560.6 113.9L560.8 113.9L561.0 113.9L561.1 113.9L561.3 113.9L561.5 113.9L561.6 113.9L561.8 113.9L562.0 113.9L562.2 113.9L562.3 113.9L562.5 113.9L562.7 113.9L562.8 113.9L563.0 113.9L563.2 113.9L563.3 113.9L563.5 113.9L563.7 113.9L563.8 113.9L564.0 113.9L564.2 113.9L564.3 113.9L564.5 113.9L564.7 113.9L564.8 113.9L565.0 113.9L565.2 113.9L565.3 113.9L565.5 113.9L565.7 113.9L565.8 113.9L566.0 113.9" fill="none" stroke="#39c5e0" stroke-width="2"/><text x="562" y="107.42857142857142" fill="#ffb454" font-size="10" text-anchor="end">target ± 2% (settling band)</text><text x="72" y="50" fill="#3fe0a0" font-size="11">settling 0.48 s   ripple 0.1 mm   final err 1.3 mm</text>
</g>
<line x1="16" y1="384" x2="584" y2="384" stroke="#2c3a47" stroke-width="1"/>
<text x="16" y="400" fill="#8a97a3" font-size="10">cyan = response · green band = target ± 2% · PWM tunes to fast settle with tight ripple</text><text x="584" y="400" fill="#3a4753" font-size="9" text-anchor="end">B10 · SOURCE Family 3 · Tuning · baseline_control · 2026-06-23 · USED IN 3.6</text>
</svg>
