<svg viewBox="0 0 600 410" xmlns="http://www.w3.org/2000/svg" font-family="ui-monospace, Menlo, Consolas, monospace">
<metadata>source=Family 4; view=Overlay; params=baseline_twin_good; exported=2026-06-23; key=good twin, matched</metadata>
<rect width="600" height="410" fill="#0e1217"/>
<text x="16" y="22" fill="#39c5e0" font-size="13">TWIN-vs-RIG OVERLAY</text><text x="584" y="22" fill="#5b6975" font-size="10" text-anchor="end">baseline_twin_good</text>
<g transform="translate(0,30)">
<line x1="64" y1="300" x2="566" y2="300" stroke="#2c3a47" stroke-width="1"/><line x1="64" y1="40" x2="64" y2="300" stroke="#2c3a47" stroke-width="1"/><text x="566" y="318" fill="#5b6975" font-size="11" text-anchor="end">time (s)</text><text x="64" y="32" fill="#5b6975" font-size="11">position (m)</text><path d="M64.0 300.0L65.3 296.3L66.5 292.7L67.8 289.2L69.0 285.7L70.3 282.3L71.5 279.0L72.8 275.7L74.1 272.5L75.3 269.4L76.6 266.3L77.8 263.3L79.1 260.4L80.4 257.5L81.6 254.6L82.9 251.9L84.1 249.1L85.4 246.5L86.6 243.9L87.9 241.3L89.2 238.8L90.4 236.3L91.7 233.9L92.9 231.5L94.2 229.2L95.5 226.9L96.7 224.7L98.0 222.5L99.2 220.4L100.5 218.3L101.7 216.2L103.0 214.2L104.3 212.2L105.5 210.3L106.8 208.4L108.0 206.5L109.3 204.7L110.6 202.9L111.8 201.1L113.1 199.4L114.3 197.7L115.6 196.1L116.8 194.5L118.1 192.9L119.4 191.3L120.6 189.8L121.9 188.3L123.1 186.8L124.4 185.4L125.6 184.0L126.9 182.6L128.2 181.3L129.4 179.9L130.7 178.6L131.9 177.4L133.2 176.1L134.5 174.9L135.7 173.7L137.0 172.5L138.2 171.4L139.5 170.2L140.7 169.1L142.0 168.0L143.3 167.0L144.5 165.9L145.8 164.9L147.0 163.9L148.3 162.9L149.6 162.0L150.8 161.0L152.1 160.1L153.3 159.2L154.6 158.3L155.8 157.4L157.1 156.6L158.4 155.7L159.6 154.9L160.9 154.1L162.1 153.3L163.4 152.5L164.7 151.8L165.9 151.0L167.2 150.3L168.4 149.6L169.7 148.9L170.9 148.2L172.2 147.5L173.5 146.9L174.7 146.2L176.0 145.6L177.2 145.0L178.5 144.4L179.7 143.8L181.0 143.2L182.3 142.6L183.5 142.1L184.8 141.5L186.0 141.0L187.3 140.4L188.6 139.9L189.8 139.4L191.1 138.9L192.3 138.4L193.6 138.0L194.8 137.5L196.1 137.0L197.4 136.6L198.6 136.1L199.9 135.7L201.1 135.3L202.4 134.9L203.7 134.5L204.9 134.1L206.2 133.7L207.4 133.3L208.7 132.9L209.9 132.5L211.2 132.2L212.5 131.8L213.7 131.5L215.0 131.1L216.2 130.8L217.5 130.5L218.8 130.2L220.0 129.8L221.3 129.5L222.5 129.2L223.8 128.9L225.0 128.6L226.3 128.4L227.6 128.1L228.8 127.8L230.1 127.5L231.3 127.3L232.6 127.0L233.8 126.8L235.1 126.5L236.4 126.3L237.6 126.0L238.9 125.8L240.1 125.6L241.4 125.4L242.7 125.1L243.9 124.9L245.2 124.7L246.4 124.5L247.7 124.3L248.9 124.1L250.2 123.9L251.5 123.7L252.7 123.5L254.0 123.3L255.2 123.2L256.5 123.0L257.8 122.8L259.0 122.7L260.3 122.5L261.5 122.3L262.8 122.2L264.0 122.0L265.3 121.9L266.6 121.7L267.8 121.6L269.1 121.4L270.3 121.3L271.6 121.1L272.9 121.0L274.1 120.9L275.4 120.7L276.6 120.6L277.9 120.5L279.1 120.4L280.4 120.2L281.7 120.1L282.9 120.0L284.2 119.9L285.4 119.8L286.7 119.7L287.9 119.6L289.2 119.5L290.5 119.4L291.7 119.3L293.0 119.2L294.2 119.1L295.5 119.0L296.8 118.9L298.0 118.8L299.3 118.7L300.5 118.6L301.8 118.5L303.0 118.4L304.3 118.4L305.6 118.3L306.8 118.2L308.1 118.1L309.3 118.0L310.6 118.0L311.9 117.9L313.1 117.8L314.4 117.8L315.6 117.7L316.9 117.6L318.1 117.6L319.4 117.5L320.7 117.4L321.9 117.4L323.2 117.3L324.4 117.2L325.7 117.2L327.0 117.1L328.2 117.1L329.5 117.0L330.7 117.0L332.0 116.9L333.2 116.9L334.5 116.8L335.8 116.8L337.0 116.7L338.3 116.7L339.5 116.6L340.8 116.6L342.1 116.5L343.3 116.5L344.6 116.4L345.8 116.4L347.1 116.3L348.3 116.3L349.6 116.3L350.9 116.2L352.1 116.2L353.4 116.2L354.6 116.1L355.9 116.1L357.1 116.0L358.4 116.0L359.7 116.0L360.9 115.9L362.2 115.9L363.4 115.9L364.7 115.8L366.0 115.8L367.2 115.8L368.5 115.8L369.7 115.7L371.0 115.7L372.2 115.7L373.5 115.6L374.8 115.6L376.0 115.6L377.3 115.6L378.5 115.5L379.8 115.5L381.1 115.5L382.3 115.5L383.6 115.4L384.8 115.4L386.1 115.4L387.3 115.4L388.6 115.4L389.9 115.3L391.1 115.3L392.4 115.3L393.6 115.3L394.9 115.3L396.2 115.2L397.4 115.2L398.7 115.2L399.9 115.2L401.2 115.2L402.4 115.1L403.7 115.1L405.0 115.1L406.2 115.1L407.5 115.1L408.7 115.1L410.0 115.0L411.2 115.0L412.5 115.0L413.8 115.0L415.0 115.0L416.3 115.0L417.5 115.0L418.8 114.9L420.1 114.9L421.3 114.9L422.6 114.9L423.8 114.9L425.1 114.9L426.3 114.9L427.6 114.9L428.9 114.8L430.1 114.8L431.4 114.8L432.6 114.8L433.9 114.8L435.2 114.8L436.4 114.8L437.7 114.8L438.9 114.8L440.2 114.8L441.4 114.7L442.7 114.7L444.0 114.7L445.2 114.7L446.5 114.7L447.7 114.7L449.0 114.7L450.3 114.7L451.5 114.7L452.8 114.7L454.0 114.7L455.3 114.7L456.5 114.6L457.8 114.6L459.1 114.6L460.3 114.6L461.6 114.6L462.8 114.6L464.1 114.6L465.3 114.6L466.6 114.6L467.9 114.6L469.1 114.6L470.4 114.6L471.6 114.6L472.9 114.6L474.2 114.6L475.4 114.6L476.7 114.5L477.9 114.5L479.2 114.5L480.4 114.5L481.7 114.5L483.0 114.5L484.2 114.5L485.5 114.5L486.7 114.5L488.0 114.5L489.3 114.5L490.5 114.5L491.8 114.5L493.0 114.5L494.3 114.5L495.5 114.5L496.8 114.5L498.1 114.5L499.3 114.5L500.6 114.5L501.8 114.5L503.1 114.5L504.4 114.5L505.6 114.5L506.9 114.4L508.1 114.4L509.4 114.4L510.6 114.4L511.9 114.4L513.2 114.4L514.4 114.4L515.7 114.4L516.9 114.4L518.2 114.4L519.4 114.4L520.7 114.4L522.0 114.4L523.2 114.4L524.5 114.4L525.7 114.4L527.0 114.4L528.3 114.4L529.5 114.4L530.8 114.4L532.0 114.4L533.3 114.4L534.5 114.4L535.8 114.4L537.1 114.4L538.3 114.4L539.6 114.4L540.8 114.4L542.1 114.4L543.4 114.4L544.6 114.4L545.9 114.4L547.1 114.4L548.4 114.4L549.6 114.4L550.9 114.4L552.2 114.4L553.4 114.4L554.7 114.4L555.9 114.4L557.2 114.4L558.5 114.4L559.7 114.4L561.0 114.4L562.2 114.4L563.5 114.4L564.7 114.4L566.0 114.3" fill="none" stroke="#39c5e0" stroke-width="2"/><path d="M64.0 300.0L65.3 296.3L66.5 292.7L67.8 289.2L69.0 285.7L70.3 282.3L71.5 279.0L72.8 275.7L74.1 272.5L75.3 269.4L76.6 266.3L77.8 263.3L79.1 260.4L80.4 257.5L81.6 254.6L82.9 251.9L84.1 249.1L85.4 246.5L86.6 243.9L87.9 241.3L89.2 238.8L90.4 236.3L91.7 233.9L92.9 231.5L94.2 229.2L95.5 226.9L96.7 224.7L98.0 222.5L99.2 220.4L100.5 218.3L101.7 216.2L103.0 214.2L104.3 212.2L105.5 210.3L106.8 208.4L108.0 206.5L109.3 204.7L110.6 202.9L111.8 201.1L113.1 199.4L114.3 197.7L115.6 196.1L116.8 194.5L118.1 192.9L119.4 191.3L120.6 189.8L121.9 188.3L123.1 186.8L124.4 185.4L125.6 184.0L126.9 182.6L128.2 181.3L129.4 179.9L130.7 178.6L131.9 177.4L133.2 176.1L134.5 174.9L135.7 173.7L137.0 172.5L138.2 171.4L139.5 170.2L140.7 169.1L142.0 168.0L143.3 167.0L144.5 165.9L145.8 164.9L147.0 163.9L148.3 162.9L149.6 162.0L150.8 161.0L152.1 160.1L153.3 159.2L154.6 158.3L155.8 157.4L157.1 156.6L158.4 155.7L159.6 154.9L160.9 154.1L162.1 153.3L163.4 152.5L164.7 151.8L165.9 151.0L167.2 150.3L168.4 149.6L169.7 148.9L170.9 148.2L172.2 147.5L173.5 146.9L174.7 146.2L176.0 145.6L177.2 145.0L178.5 144.4L179.7 143.8L181.0 143.2L182.3 142.6L183.5 142.1L184.8 141.5L186.0 141.0L187.3 140.4L188.6 139.9L189.8 139.4L191.1 138.9L192.3 138.4L193.6 138.0L194.8 137.5L196.1 137.0L197.4 136.6L198.6 136.1L199.9 135.7L201.1 135.3L202.4 134.9L203.7 134.5L204.9 134.1L206.2 133.7L207.4 133.3L208.7 132.9L209.9 132.5L211.2 132.2L212.5 131.8L213.7 131.5L215.0 131.1L216.2 130.8L217.5 130.5L218.8 130.2L220.0 129.8L221.3 129.5L222.5 129.2L223.8 128.9L225.0 128.6L226.3 128.4L227.6 128.1L228.8 127.8L230.1 127.5L231.3 127.3L232.6 127.0L233.8 126.8L235.1 126.5L236.4 126.3L237.6 126.0L238.9 125.8L240.1 125.6L241.4 125.4L242.7 125.1L243.9 124.9L245.2 124.7L246.4 124.5L247.7 124.3L248.9 124.1L250.2 123.9L251.5 123.7L252.7 123.5L254.0 123.3L255.2 123.2L256.5 123.0L257.8 122.8L259.0 122.7L260.3 122.5L261.5 122.3L262.8 122.2L264.0 122.0L265.3 121.9L266.6 121.7L267.8 121.6L269.1 121.4L270.3 121.3L271.6 121.1L272.9 121.0L274.1 120.9L275.4 120.7L276.6 120.6L277.9 120.5L279.1 120.4L280.4 120.2L281.7 120.1L282.9 120.0L284.2 119.9L285.4 119.8L286.7 119.7L287.9 119.6L289.2 119.5L290.5 119.4L291.7 119.3L293.0 119.2L294.2 119.1L295.5 119.0L296.8 118.9L298.0 118.8L299.3 118.7L300.5 118.6L301.8 118.5L303.0 118.4L304.3 118.4L305.6 118.3L306.8 118.2L308.1 118.1L309.3 118.0L310.6 118.0L311.9 117.9L313.1 117.8L314.4 117.8L315.6 117.7L316.9 117.6L318.1 117.6L319.4 117.5L320.7 117.4L321.9 117.4L323.2 117.3L324.4 117.2L325.7 117.2L327.0 117.1L328.2 117.1L329.5 117.0L330.7 117.0L332.0 116.9L333.2 116.9L334.5 116.8L335.8 116.8L337.0 116.7L338.3 116.7L339.5 116.6L340.8 116.6L342.1 116.5L343.3 116.5L344.6 116.4L345.8 116.4L347.1 116.3L348.3 116.3L349.6 116.3L350.9 116.2L352.1 116.2L353.4 116.2L354.6 116.1L355.9 116.1L357.1 116.0L358.4 116.0L359.7 116.0L360.9 115.9L362.2 115.9L363.4 115.9L364.7 115.8L366.0 115.8L367.2 115.8L368.5 115.8L369.7 115.7L371.0 115.7L372.2 115.7L373.5 115.6L374.8 115.6L376.0 115.6L377.3 115.6L378.5 115.5L379.8 115.5L381.1 115.5L382.3 115.5L383.6 115.4L384.8 115.4L386.1 115.4L387.3 115.4L388.6 115.4L389.9 115.3L391.1 115.3L392.4 115.3L393.6 115.3L394.9 115.3L396.2 115.2L397.4 115.2L398.7 115.2L399.9 115.2L401.2 115.2L402.4 115.1L403.7 115.1L405.0 115.1L406.2 115.1L407.5 115.1L408.7 115.1L410.0 115.0L411.2 115.0L412.5 115.0L413.8 115.0L415.0 115.0L416.3 115.0L417.5 115.0L418.8 114.9L420.1 114.9L421.3 114.9L422.6 114.9L423.8 114.9L425.1 114.9L426.3 114.9L427.6 114.9L428.9 114.8L430.1 114.8L431.4 114.8L432.6 114.8L433.9 114.8L435.2 114.8L436.4 114.8L437.7 114.8L438.9 114.8L440.2 114.8L441.4 114.7L442.7 114.7L444.0 114.7L445.2 114.7L446.5 114.7L447.7 114.7L449.0 114.7L450.3 114.7L451.5 114.7L452.8 114.7L454.0 114.7L455.3 114.7L456.5 114.6L457.8 114.6L459.1 114.6L460.3 114.6L461.6 114.6L462.8 114.6L464.1 114.6L465.3 114.6L466.6 114.6L467.9 114.6L469.1 114.6L470.4 114.6L471.6 114.6L472.9 114.6L474.2 114.6L475.4 114.6L476.7 114.5L477.9 114.5L479.2 114.5L480.4 114.5L481.7 114.5L483.0 114.5L484.2 114.5L485.5 114.5L486.7 114.5L488.0 114.5L489.3 114.5L490.5 114.5L491.8 114.5L493.0 114.5L494.3 114.5L495.5 114.5L496.8 114.5L498.1 114.5L499.3 114.5L500.6 114.5L501.8 114.5L503.1 114.5L504.4 114.5L505.6 114.5L506.9 114.4L508.1 114.4L509.4 114.4L510.6 114.4L511.9 114.4L513.2 114.4L514.4 114.4L515.7 114.4L516.9 114.4L518.2 114.4L519.4 114.4L520.7 114.4L522.0 114.4L523.2 114.4L524.5 114.4L525.7 114.4L527.0 114.4L528.3 114.4L529.5 114.4L530.8 114.4L532.0 114.4L533.3 114.4L534.5 114.4L535.8 114.4L537.1 114.4L538.3 114.4L539.6 114.4L540.8 114.4L542.1 114.4L543.4 114.4L544.6 114.4L545.9 114.4L547.1 114.4L548.4 114.4L549.6 114.4L550.9 114.4L552.2 114.4L553.4 114.4L554.7 114.4L555.9 114.4L557.2 114.4L558.5 114.4L559.7 114.4L561.0 114.4L562.2 114.4L563.5 114.4L564.7 114.4L566.0 114.3" fill="none" stroke="#ffb454" stroke-width="1.6"/><text x="72" y="54" fill="#39c5e0" font-size="10">twin</text><text x="124" y="54" fill="#ffb454" font-size="10">rig</text><text x="72" y="70" fill="#3fe0a0" font-size="11">pos RMSE 0.0 mm   pressure err 0.0 %</text>
</g>
<line x1="16" y1="384" x2="584" y2="384" stroke="#2c3a47" stroke-width="1"/>
<text x="16" y="400" fill="#8a97a3" font-size="10">cyan = twin · amber = rig · a well-matched twin overlays the rig</text><text x="584" y="400" fill="#3a4753" font-size="9" text-anchor="end">B11 · SOURCE Family 4 · Overlay · baseline_twin_good · 2026-06-23 · USED IN 2.8, 4.2</text>
</svg>
