<svg viewBox="0 0 600 410" xmlns="http://www.w3.org/2000/svg" font-family="ui-monospace, Menlo, Consolas, monospace">
<metadata>source=Family 4; view=Sync; params=baseline_twin_faults (timing); exported=2026-06-23; key=time-align collapses a timing offset</metadata>
<rect width="600" height="410" fill="#0e1217"/>
<text x="16" y="22" fill="#39c5e0" font-size="13">SYNCHRONIZATION / REPLAY</text><text x="584" y="22" fill="#5b6975" font-size="10" text-anchor="end">baseline_twin_faults (timing)</text>
<g transform="translate(0,30)">
<line x1="64" y1="300" x2="566" y2="300" stroke="#2c3a47" stroke-width="1"/><line x1="64" y1="40" x2="64" y2="300" stroke="#2c3a47" stroke-width="1"/><text x="566" y="318" fill="#5b6975" font-size="11" text-anchor="end">time (s)</text><text x="64" y="32" fill="#5b6975" font-size="11">position (m)</text><path d="M64.0 300.0L65.3 296.3L66.5 292.7L67.8 289.2L69.0 285.7L70.3 282.3L71.5 279.0L72.8 275.7L74.1 272.5L75.3 269.4L76.6 266.3L77.8 263.3L79.1 260.4L80.4 257.5L81.6 254.6L82.9 251.9L84.1 249.1L85.4 246.5L86.6 243.9L87.9 241.3L89.2 238.8L90.4 236.3L91.7 233.9L92.9 231.5L94.2 229.2L95.5 226.9L96.7 224.7L98.0 222.5L99.2 220.4L100.5 218.3L101.7 216.2L103.0 214.2L104.3 212.2L105.5 210.3L106.8 208.4L108.0 206.5L109.3 204.7L110.6 202.9L111.8 201.1L113.1 199.4L114.3 197.7L115.6 196.1L116.8 194.5L118.1 192.9L119.4 191.3L120.6 189.8L121.9 188.3L123.1 186.8L124.4 185.4L125.6 184.0L126.9 182.6L128.2 181.3L129.4 179.9L130.7 178.6L131.9 177.4L133.2 176.1L134.5 174.9L135.7 173.7L137.0 172.5L138.2 171.4L139.5 170.2L140.7 169.1L142.0 168.0L143.3 167.0L144.5 165.9L145.8 164.9L147.0 163.9L148.3 162.9L149.6 162.0L150.8 161.0L152.1 160.1L153.3 159.2L154.6 158.3L155.8 157.4L157.1 156.6L158.4 155.7L159.6 154.9L160.9 154.1L162.1 153.3L163.4 152.5L164.7 151.8L165.9 151.0L167.2 150.3L168.4 149.6L169.7 148.9L170.9 148.2L172.2 147.5L173.5 146.9L174.7 146.2L176.0 145.6L177.2 145.0L178.5 144.4L179.7 143.8L181.0 143.2L182.3 142.6L183.5 142.1L184.8 141.5L186.0 141.0L187.3 140.4L188.6 139.9L189.8 139.4L191.1 138.9L192.3 138.4L193.6 138.0L194.8 137.5L196.1 137.0L197.4 136.6L198.6 136.1L199.9 135.7L201.1 135.3L202.4 134.9L203.7 134.5L204.9 134.1L206.2 133.7L207.4 133.3L208.7 132.9L209.9 132.5L211.2 132.2L212.5 131.8L213.7 131.5L215.0 131.1L216.2 130.8L217.5 130.5L218.8 130.2L220.0 129.8L221.3 129.5L222.5 129.2L223.8 128.9L225.0 128.6L226.3 128.4L227.6 128.1L228.8 127.8L230.1 127.5L231.3 127.3L232.6 127.0L233.8 126.8L235.1 126.5L236.4 126.3L237.6 126.0L238.9 125.8L240.1 125.6L241.4 125.4L242.7 125.1L243.9 124.9L245.2 124.7L246.4 124.5L247.7 124.3L248.9 124.1L250.2 123.9L251.5 123.7L252.7 123.5L254.0 123.3L255.2 123.2L256.5 123.0L257.8 122.8L259.0 122.7L260.3 122.5L261.5 122.3L262.8 122.2L264.0 122.0L265.3 121.9L266.6 121.7L267.8 121.6L269.1 121.4L270.3 121.3L271.6 121.1L272.9 121.0L274.1 120.9L275.4 120.7L276.6 120.6L277.9 120.5L279.1 120.4L280.4 120.2L281.7 120.1L282.9 120.0L284.2 119.9L285.4 119.8L286.7 119.7L287.9 119.6L289.2 119.5L290.5 119.4L291.7 119.3L293.0 119.2L294.2 119.1L295.5 119.0L296.8 118.9L298.0 118.8L299.3 118.7L300.5 118.6L301.8 118.5L303.0 118.4L304.3 118.4L305.6 118.3L306.8 118.2L308.1 118.1L309.3 118.0L310.6 118.0L311.9 117.9L313.1 117.8L314.4 117.8L315.6 117.7L316.9 117.6L318.1 117.6L319.4 117.5L320.7 117.4L321.9 117.4L323.2 117.3L324.4 117.2L325.7 117.2L327.0 117.1L328.2 117.1L329.5 117.0L330.7 117.0L332.0 116.9L333.2 116.9L334.5 116.8L335.8 116.8L337.0 116.7L338.3 116.7L339.5 116.6L340.8 116.6L342.1 116.5L343.3 116.5L344.6 116.4L345.8 116.4L347.1 116.3L348.3 116.3L349.6 116.3L350.9 116.2L352.1 116.2L353.4 116.2L354.6 116.1L355.9 116.1L357.1 116.0L358.4 116.0L359.7 116.0L360.9 115.9L362.2 115.9L363.4 115.9L364.7 115.8L366.0 115.8L367.2 115.8L368.5 115.8L369.7 115.7L371.0 115.7L372.2 115.7L373.5 115.6L374.8 115.6L376.0 115.6L377.3 115.6L378.5 115.5L379.8 115.5L381.1 115.5L382.3 115.5L383.6 115.4L384.8 115.4L386.1 115.4L387.3 115.4L388.6 115.4L389.9 115.3L391.1 115.3L392.4 115.3L393.6 115.3L394.9 115.3L396.2 115.2L397.4 115.2L398.7 115.2L399.9 115.2L401.2 115.2L402.4 115.1L403.7 115.1L405.0 115.1L406.2 115.1L407.5 115.1L408.7 115.1L410.0 115.0L411.2 115.0L412.5 115.0L413.8 115.0L415.0 115.0L416.3 115.0L417.5 115.0L418.8 114.9L420.1 114.9L421.3 114.9L422.6 114.9L423.8 114.9L425.1 114.9L426.3 114.9L427.6 114.9L428.9 114.8L430.1 114.8L431.4 114.8L432.6 114.8L433.9 114.8L435.2 114.8L436.4 114.8L437.7 114.8L438.9 114.8L440.2 114.8L441.4 114.7L442.7 114.7L444.0 114.7L445.2 114.7L446.5 114.7L447.7 114.7L449.0 114.7L450.3 114.7L451.5 114.7L452.8 114.7L454.0 114.7L455.3 114.7L456.5 114.6L457.8 114.6L459.1 114.6L460.3 114.6L461.6 114.6L462.8 114.6L464.1 114.6L465.3 114.6L466.6 114.6L467.9 114.6L469.1 114.6L470.4 114.6L471.6 114.6L472.9 114.6L474.2 114.6L475.4 114.6L476.7 114.5L477.9 114.5L479.2 114.5L480.4 114.5L481.7 114.5L483.0 114.5L484.2 114.5L485.5 114.5L486.7 114.5L488.0 114.5L489.3 114.5L490.5 114.5L491.8 114.5L493.0 114.5L494.3 114.5L495.5 114.5L496.8 114.5L498.1 114.5L499.3 114.5L500.6 114.5L501.8 114.5L503.1 114.5L504.4 114.5L505.6 114.5L506.9 114.4L508.1 114.4L509.4 114.4L510.6 114.4L511.9 114.4L513.2 114.4L514.4 114.4L515.7 114.4L516.9 114.4L518.2 114.4L519.4 114.4L520.7 114.4L522.0 114.4L523.2 114.4L524.5 114.4L525.7 114.4L527.0 114.4L528.3 114.4L529.5 114.4L530.8 114.4L532.0 114.4L533.3 114.4L534.5 114.4L535.8 114.4L537.1 114.4L538.3 114.4L539.6 114.4L540.8 114.4L542.1 114.4L543.4 114.4L544.6 114.4L545.9 114.4L547.1 114.4L548.4 114.4L549.6 114.4L550.9 114.4L552.2 114.4L553.4 114.4L554.7 114.4L555.9 114.4L557.2 114.4L558.5 114.4L559.7 114.4L561.0 114.4L562.2 114.4L563.5 114.4L564.7 114.4L566.0 114.3" fill="none" stroke="#39c5e0" stroke-width="2"/><path d="M64.0 300.0L65.3 300.0L66.5 300.0L67.8 300.0L69.0 300.0L70.3 300.0L71.5 300.0L72.8 300.0L74.1 300.0L75.3 300.0L76.6 300.0L77.8 300.0L79.1 300.0L80.4 300.0L81.6 300.0L82.9 300.0L84.1 300.0L85.4 300.0L86.6 300.0L87.9 300.0L89.2 300.0L90.4 300.0L91.7 300.0L92.9 300.0L94.2 300.0L95.5 300.0L96.7 300.0L98.0 300.0L99.2 300.0L100.5 300.0L101.7 300.0L103.0 296.3L104.3 292.7L105.5 289.2L106.8 285.7L108.0 282.3L109.3 279.0L110.6 275.7L111.8 272.5L113.1 269.4L114.3 266.3L115.6 263.3L116.8 260.4L118.1 257.5L119.4 254.6L120.6 251.9L121.9 249.1L123.1 246.5L124.4 243.9L125.6 241.3L126.9 238.8L128.2 236.3L129.4 233.9L130.7 231.5L131.9 229.2L133.2 226.9L134.5 224.7L135.7 222.5L137.0 220.4L138.2 218.3L139.5 216.2L140.7 214.2L142.0 212.2L143.3 210.3L144.5 208.4L145.8 206.5L147.0 204.7L148.3 202.9L149.6 201.1L150.8 199.4L152.1 197.7L153.3 196.1L154.6 194.5L155.8 192.9L157.1 191.3L158.4 189.8L159.6 188.3L160.9 186.8L162.1 185.4L163.4 184.0L164.7 182.6L165.9 181.3L167.2 179.9L168.4 178.6L169.7 177.4L170.9 176.1L172.2 174.9L173.5 173.7L174.7 172.5L176.0 171.4L177.2 170.2L178.5 169.1L179.7 168.0L181.0 167.0L182.3 165.9L183.5 164.9L184.8 163.9L186.0 162.9L187.3 162.0L188.6 161.0L189.8 160.1L191.1 159.2L192.3 158.3L193.6 157.4L194.8 156.6L196.1 155.7L197.4 154.9L198.6 154.1L199.9 153.3L201.1 152.5L202.4 151.8L203.7 151.0L204.9 150.3L206.2 149.6L207.4 148.9L208.7 148.2L209.9 147.5L211.2 146.9L212.5 146.2L213.7 145.6L215.0 145.0L216.2 144.4L217.5 143.8L218.8 143.2L220.0 142.6L221.3 142.1L222.5 141.5L223.8 141.0L225.0 140.4L226.3 139.9L227.6 139.4L228.8 138.9L230.1 138.4L231.3 138.0L232.6 137.5L233.8 137.0L235.1 136.6L236.4 136.1L237.6 135.7L238.9 135.3L240.1 134.9L241.4 134.5L242.7 134.1L243.9 133.7L245.2 133.3L246.4 132.9L247.7 132.5L248.9 132.2L250.2 131.8L251.5 131.5L252.7 131.1L254.0 130.8L255.2 130.5L256.5 130.2L257.8 129.8L259.0 129.5L260.3 129.2L261.5 128.9L262.8 128.6L264.0 128.4L265.3 128.1L266.6 127.8L267.8 127.5L269.1 127.3L270.3 127.0L271.6 126.8L272.9 126.5L274.1 126.3L275.4 126.0L276.6 125.8L277.9 125.6L279.1 125.4L280.4 125.1L281.7 124.9L282.9 124.7L284.2 124.5L285.4 124.3L286.7 124.1L287.9 123.9L289.2 123.7L290.5 123.5L291.7 123.3L293.0 123.2L294.2 123.0L295.5 122.8L296.8 122.7L298.0 122.5L299.3 122.3L300.5 122.2L301.8 122.0L303.0 121.9L304.3 121.7L305.6 121.6L306.8 121.4L308.1 121.3L309.3 121.1L310.6 121.0L311.9 120.9L313.1 120.7L314.4 120.6L315.6 120.5L316.9 120.4L318.1 120.2L319.4 120.1L320.7 120.0L321.9 119.9L323.2 119.8L324.4 119.7L325.7 119.6L327.0 119.5L328.2 119.4L329.5 119.3L330.7 119.2L332.0 119.1L333.2 119.0L334.5 118.9L335.8 118.8L337.0 118.7L338.3 118.6L339.5 118.5L340.8 118.4L342.1 118.4L343.3 118.3L344.6 118.2L345.8 118.1L347.1 118.0L348.3 118.0L349.6 117.9L350.9 117.8L352.1 117.8L353.4 117.7L354.6 117.6L355.9 117.6L357.1 117.5L358.4 117.4L359.7 117.4L360.9 117.3L362.2 117.2L363.4 117.2L364.7 117.1L366.0 117.1L367.2 117.0L368.5 117.0L369.7 116.9L371.0 116.9L372.2 116.8L373.5 116.8L374.8 116.7L376.0 116.7L377.3 116.6L378.5 116.6L379.8 116.5L381.1 116.5L382.3 116.4L383.6 116.4L384.8 116.3L386.1 116.3L387.3 116.3L388.6 116.2L389.9 116.2L391.1 116.2L392.4 116.1L393.6 116.1L394.9 116.0L396.2 116.0L397.4 116.0L398.7 115.9L399.9 115.9L401.2 115.9L402.4 115.8L403.7 115.8L405.0 115.8L406.2 115.8L407.5 115.7L408.7 115.7L410.0 115.7L411.2 115.6L412.5 115.6L413.8 115.6L415.0 115.6L416.3 115.5L417.5 115.5L418.8 115.5L420.1 115.5L421.3 115.4L422.6 115.4L423.8 115.4L425.1 115.4L426.3 115.4L427.6 115.3L428.9 115.3L430.1 115.3L431.4 115.3L432.6 115.3L433.9 115.2L435.2 115.2L436.4 115.2L437.7 115.2L438.9 115.2L440.2 115.1L441.4 115.1L442.7 115.1L444.0 115.1L445.2 115.1L446.5 115.1L447.7 115.0L449.0 115.0L450.3 115.0L451.5 115.0L452.8 115.0L454.0 115.0L455.3 115.0L456.5 114.9L457.8 114.9L459.1 114.9L460.3 114.9L461.6 114.9L462.8 114.9L464.1 114.9L465.3 114.9L466.6 114.8L467.9 114.8L469.1 114.8L470.4 114.8L471.6 114.8L472.9 114.8L474.2 114.8L475.4 114.8L476.7 114.8L477.9 114.8L479.2 114.7L480.4 114.7L481.7 114.7L483.0 114.7L484.2 114.7L485.5 114.7L486.7 114.7L488.0 114.7L489.3 114.7L490.5 114.7L491.8 114.7L493.0 114.7L494.3 114.6L495.5 114.6L496.8 114.6L498.1 114.6L499.3 114.6L500.6 114.6L501.8 114.6L503.1 114.6L504.4 114.6L505.6 114.6L506.9 114.6L508.1 114.6L509.4 114.6L510.6 114.6L511.9 114.6L513.2 114.6L514.4 114.5L515.7 114.5L516.9 114.5L518.2 114.5L519.4 114.5L520.7 114.5L522.0 114.5L523.2 114.5L524.5 114.5L525.7 114.5L527.0 114.5L528.3 114.5L529.5 114.5L530.8 114.5L532.0 114.5L533.3 114.5L534.5 114.5L535.8 114.5L537.1 114.5L538.3 114.5L539.6 114.5L540.8 114.5L542.1 114.5L543.4 114.5L544.6 114.4L545.9 114.4L547.1 114.4L548.4 114.4L549.6 114.4L550.9 114.4L552.2 114.4L553.4 114.4L554.7 114.4L555.9 114.4L557.2 114.4L558.5 114.4L559.7 114.4L561.0 114.4L562.2 114.4L563.5 114.4L564.7 114.4L566.0 114.4" fill="none" stroke="#ffb454" stroke-width="1.5"/><path d="M101.7 300.0L103.0 300.0L104.3 300.0L105.5 300.0L106.8 300.0L108.0 300.0L109.3 300.0L110.6 300.0L111.8 300.0L113.1 300.0L114.3 300.0L115.6 300.0L116.8 300.0L118.1 300.0L119.4 300.0L120.6 300.0L121.9 300.0L123.1 300.0L124.4 300.0L125.6 300.0L126.9 300.0L128.2 300.0L129.4 300.0L130.7 300.0L131.9 300.0L133.2 300.0L134.5 300.0L135.7 300.0L137.0 300.0L138.2 300.0L139.5 300.0L140.7 296.3L142.0 292.7L143.3 289.2L144.5 285.7L145.8 282.3L147.0 279.0L148.3 275.7L149.6 272.5L150.8 269.4L152.1 266.3L153.3 263.3L154.6 260.4L155.8 257.5L157.1 254.6L158.4 251.9L159.6 249.1L160.9 246.5L162.1 243.9L163.4 241.3L164.7 238.8L165.9 236.3L167.2 233.9L168.4 231.5L169.7 229.2L170.9 226.9L172.2 224.7L173.5 222.5L174.7 220.4L176.0 218.3L177.2 216.2L178.5 214.2L179.7 212.2L181.0 210.3L182.3 208.4L183.5 206.5L184.8 204.7L186.0 202.9L187.3 201.1L188.6 199.4L189.8 197.7L191.1 196.1L192.3 194.5L193.6 192.9L194.8 191.3L196.1 189.8L197.4 188.3L198.6 186.8L199.9 185.4L201.1 184.0L202.4 182.6L203.7 181.3L204.9 179.9L206.2 178.6L207.4 177.4L208.7 176.1L209.9 174.9L211.2 173.7L212.5 172.5L213.7 171.4L215.0 170.2L216.2 169.1L217.5 168.0L218.8 167.0L220.0 165.9L221.3 164.9L222.5 163.9L223.8 162.9L225.0 162.0L226.3 161.0L227.6 160.1L228.8 159.2L230.1 158.3L231.3 157.4L232.6 156.6L233.8 155.7L235.1 154.9L236.4 154.1L237.6 153.3L238.9 152.5L240.1 151.8L241.4 151.0L242.7 150.3L243.9 149.6L245.2 148.9L246.4 148.2L247.7 147.5L248.9 146.9L250.2 146.2L251.5 145.6L252.7 145.0L254.0 144.4L255.2 143.8L256.5 143.2L257.8 142.6L259.0 142.1L260.3 141.5L261.5 141.0L262.8 140.4L264.0 139.9L265.3 139.4L266.6 138.9L267.8 138.4L269.1 138.0L270.3 137.5L271.6 137.0L272.9 136.6L274.1 136.1L275.4 135.7L276.6 135.3L277.9 134.9L279.1 134.5L280.4 134.1L281.7 133.7L282.9 133.3L284.2 132.9L285.4 132.5L286.7 132.2L287.9 131.8L289.2 131.5L290.5 131.1L291.7 130.8L293.0 130.5L294.2 130.2L295.5 129.8L296.8 129.5L298.0 129.2L299.3 128.9L300.5 128.6L301.8 128.4L303.0 128.1L304.3 127.8L305.6 127.5L306.8 127.3L308.1 127.0L309.3 126.8L310.6 126.5L311.9 126.3L313.1 126.0L314.4 125.8L315.6 125.6L316.9 125.4L318.1 125.1L319.4 124.9L320.7 124.7L321.9 124.5L323.2 124.3L324.4 124.1L325.7 123.9L327.0 123.7L328.2 123.5L329.5 123.3L330.7 123.2L332.0 123.0L333.2 122.8L334.5 122.7L335.8 122.5L337.0 122.3L338.3 122.2L339.5 122.0L340.8 121.9L342.1 121.7L343.3 121.6L344.6 121.4L345.8 121.3L347.1 121.1L348.3 121.0L349.6 120.9L350.9 120.7L352.1 120.6L353.4 120.5L354.6 120.4L355.9 120.2L357.1 120.1L358.4 120.0L359.7 119.9L360.9 119.8L362.2 119.7L363.4 119.6L364.7 119.5L366.0 119.4L367.2 119.3L368.5 119.2L369.7 119.1L371.0 119.0L372.2 118.9L373.5 118.8L374.8 118.7L376.0 118.6L377.3 118.5L378.5 118.4L379.8 118.4L381.1 118.3L382.3 118.2L383.6 118.1L384.8 118.0L386.1 118.0L387.3 117.9L388.6 117.8L389.9 117.8L391.1 117.7L392.4 117.6L393.6 117.6L394.9 117.5L396.2 117.4L397.4 117.4L398.7 117.3L399.9 117.2L401.2 117.2L402.4 117.1L403.7 117.1L405.0 117.0L406.2 117.0L407.5 116.9L408.7 116.9L410.0 116.8L411.2 116.8L412.5 116.7L413.8 116.7L415.0 116.6L416.3 116.6L417.5 116.5L418.8 116.5L420.1 116.4L421.3 116.4L422.6 116.3L423.8 116.3L425.1 116.3L426.3 116.2L427.6 116.2L428.9 116.2L430.1 116.1L431.4 116.1L432.6 116.0L433.9 116.0L435.2 116.0L436.4 115.9L437.7 115.9L438.9 115.9L440.2 115.8L441.4 115.8L442.7 115.8L444.0 115.8L445.2 115.7L446.5 115.7L447.7 115.7L449.0 115.6L450.3 115.6L451.5 115.6L452.8 115.6L454.0 115.5L455.3 115.5L456.5 115.5L457.8 115.5L459.1 115.4L460.3 115.4L461.6 115.4L462.8 115.4L464.1 115.4L465.3 115.3L466.6 115.3L467.9 115.3L469.1 115.3L470.4 115.3L471.6 115.2L472.9 115.2L474.2 115.2L475.4 115.2L476.7 115.2L477.9 115.1L479.2 115.1L480.4 115.1L481.7 115.1L483.0 115.1L484.2 115.1L485.5 115.0L486.7 115.0L488.0 115.0L489.3 115.0L490.5 115.0L491.8 115.0L493.0 115.0L494.3 114.9L495.5 114.9L496.8 114.9L498.1 114.9L499.3 114.9L500.6 114.9L501.8 114.9L503.1 114.9L504.4 114.8L505.6 114.8L506.9 114.8L508.1 114.8L509.4 114.8L510.6 114.8L511.9 114.8L513.2 114.8L514.4 114.8L515.7 114.8L516.9 114.7L518.2 114.7L519.4 114.7L520.7 114.7L522.0 114.7L523.2 114.7L524.5 114.7L525.7 114.7L527.0 114.7L528.3 114.7L529.5 114.7L530.8 114.7L532.0 114.6L533.3 114.6L534.5 114.6L535.8 114.6L537.1 114.6L538.3 114.6L539.6 114.6L540.8 114.6L542.1 114.6L543.4 114.6L544.6 114.6L545.9 114.6L547.1 114.6L548.4 114.6L549.6 114.6L550.9 114.6L552.2 114.5L553.4 114.5L554.7 114.5L555.9 114.5L557.2 114.5L558.5 114.5L559.7 114.5L561.0 114.5L562.2 114.5L563.5 114.5L564.7 114.5L566.0 114.5" fill="none" stroke="#3fe0a0" stroke-width="1.8"/><text x="72" y="54" fill="#39c5e0" font-size="10">twin</text><text x="124" y="54" fill="#ffb454" font-size="10">rig (raw)</text><text x="214" y="54" fill="#3fe0a0" font-size="10">rig (aligned)</text><text x="72" y="70" fill="#3fe0a0" font-size="11">raw RMSE 13.6 mm   best shift 150 ms   aligned RMSE 0.0 mm</text>
</g>
<line x1="16" y1="384" x2="584" y2="384" stroke="#2c3a47" stroke-width="1"/>
<text x="16" y="400" fill="#8a97a3" font-size="10">a timing offset is the fault that aligns away: aligning collapses RMSE (others do not)</text><text x="584" y="400" fill="#3a4753" font-size="9" text-anchor="end">B12 · SOURCE Family 4 · Sync · baseline_twin_faults (timing) · 2026-06-23 · USED IN 4.1, 4.2</text>
</svg>
