<svg viewBox="0 0 600 410" xmlns="http://www.w3.org/2000/svg" font-family="ui-monospace, Menlo, Consolas, monospace">
<metadata>source=Family 4; view=Diagnose; params=baseline_twin_faults; exported=2026-06-23; key=5 fault fingerprints</metadata>
<rect width="600" height="410" fill="#0e1217"/>
<text x="16" y="22" fill="#39c5e0" font-size="13">DISCREPANCY SIGNATURES — TWIN DISCREPANCY ANALYSIS</text><text x="584" y="22" fill="#5b6975" font-size="10" text-anchor="end">baseline_twin_faults</text>
<g transform="translate(0,30)">
<rect x="16" y="44" width="104" height="150" fill="#11171d" stroke="#2c3a47"/><path d="M22.0 188.0L22.5 184.4L22.9 180.9L23.4 177.6L23.8 174.4L24.3 171.3L24.8 168.4L25.2 165.5L25.7 162.8L26.2 160.2L26.6 157.7L27.1 155.3L27.5 152.9L28.0 150.7L28.5 148.6L28.9 146.5L29.4 144.5L29.8 142.6L30.3 140.8L30.8 139.0L31.2 137.3L31.7 135.7L32.1 134.2L32.6 132.7L33.1 131.2L33.5 129.8L34.0 128.5L34.5 127.2L34.9 126.0L35.4 124.8L35.8 123.7L36.3 122.6L36.8 121.6L37.2 120.6L37.7 119.6L38.1 118.7L38.6 117.8L39.1 116.9L39.5 116.1L40.0 115.3L40.4 114.6L40.9 113.8L41.4 113.1L41.8 112.5L42.3 111.8L42.8 111.2L43.2 110.6L43.7 110.0L44.1 109.5L44.6 109.0L45.1 108.5L45.5 108.0L46.0 107.5L46.4 107.0L46.9 106.6L47.4 106.2L47.8 105.8L48.3 105.4L48.7 105.0L49.2 104.7L49.7 104.3L50.1 104.0L50.6 103.7L51.1 103.4L51.5 103.1L52.0 102.8L52.4 102.6L52.9 102.3L53.4 102.1L53.8 101.8L54.3 101.6L54.7 101.4L55.2 101.2L55.7 101.0L56.1 100.8L56.6 100.6L57.0 100.4L57.5 100.2L58.0 100.1L58.4 99.9L58.9 99.8L59.4 99.6L59.8 99.5L60.3 99.3L60.7 99.2L61.2 99.1L61.7 98.9L62.1 98.8L62.6 98.7L63.0 98.6L63.5 98.5L64.0 98.4L64.4 98.3L64.9 98.2L65.3 98.1L65.8 98.1L66.3 98.0L66.7 97.9L67.2 97.8L67.7 97.8L68.1 97.7L68.6 97.6L69.0 97.6L69.5 97.5L70.0 97.4L70.4 97.4L70.9 97.3L71.3 97.3L71.8 97.2L72.3 97.2L72.7 97.1L73.2 97.1L73.6 97.0L74.1 97.0L74.6 97.0L75.0 96.9L75.5 96.9L76.0 96.9L76.4 96.8L76.9 96.8L77.3 96.8L77.8 96.7L78.3 96.7L78.7 96.7L79.2 96.6L79.6 96.6L80.1 96.6L80.6 96.6L81.0 96.5L81.5 96.5L81.9 96.5L82.4 96.5L82.9 96.5L83.3 96.5L83.8 96.4L84.3 96.4L84.7 96.4L85.2 96.4L85.6 96.4L86.1 96.4L86.6 96.3L87.0 96.3L87.5 96.3L87.9 96.3L88.4 96.3L88.9 96.3L89.3 96.3L89.8 96.3L90.3 96.2L90.7 96.2L91.2 96.2L91.6 96.2L92.1 96.2L92.6 96.2L93.0 96.2L93.5 96.2L93.9 96.2L94.4 96.2L94.9 96.2L95.3 96.2L95.8 96.2L96.2 96.1L96.7 96.1L97.2 96.1L97.6 96.1L98.1 96.1L98.6 96.1L99.0 96.1L99.5 96.1L99.9 96.1L100.4 96.1L100.9 96.1L101.3 96.1L101.8 96.1L102.2 96.1L102.7 96.1L103.2 96.1L103.6 96.1L104.1 96.1L104.5 96.1L105.0 96.1L105.5 96.1L105.9 96.1L106.4 96.1L106.9 96.1L107.3 96.1L107.8 96.1L108.2 96.1L108.7 96.0L109.2 96.0L109.6 96.0L110.1 96.0L110.5 96.0L111.0 96.0L111.5 96.0L111.9 96.0L112.4 96.0L112.8 96.0L113.3 96.0L113.8 96.0" fill="none" stroke="#39c5e0" stroke-width="1.3"/><path d="M22.0 180.6L22.5 177.0L22.9 173.6L23.4 170.2L23.8 167.0L24.3 164.0L24.8 161.0L25.2 158.2L25.7 155.4L26.2 152.8L26.6 150.3L27.1 147.9L27.5 145.6L28.0 143.3L28.5 141.2L28.9 139.1L29.4 137.2L29.8 135.2L30.3 133.4L30.8 131.7L31.2 130.0L31.7 128.4L32.1 126.8L32.6 125.3L33.1 123.9L33.5 122.5L34.0 121.2L34.5 119.9L34.9 118.7L35.4 117.5L35.8 116.3L36.3 115.3L36.8 114.2L37.2 113.2L37.7 112.3L38.1 111.3L38.6 110.4L39.1 109.6L39.5 108.8L40.0 108.0L40.4 107.2L40.9 106.5L41.4 105.8L41.8 105.1L42.3 104.5L42.8 103.8L43.2 103.3L43.7 102.7L44.1 102.1L44.6 101.6L45.1 101.1L45.5 100.6L46.0 100.1L46.4 99.7L46.9 99.2L47.4 98.8L47.8 98.4L48.3 98.1L48.7 97.7L49.2 97.3L49.7 97.0L50.1 96.7L50.6 96.3L51.1 96.0L51.5 95.8L52.0 95.5L52.4 95.2L52.9 94.9L53.4 94.7L53.8 94.5L54.3 94.2L54.7 94.0L55.2 93.8L55.7 93.6L56.1 93.4L56.6 93.2L57.0 93.0L57.5 92.9L58.0 92.7L58.4 92.5L58.9 92.4L59.4 92.2L59.8 92.1L60.3 92.0L60.7 91.8L61.2 91.7L61.7 91.6L62.1 91.5L62.6 91.4L63.0 91.3L63.5 91.2L64.0 91.1L64.4 91.0L64.9 90.9L65.3 90.8L65.8 90.7L66.3 90.6L66.7 90.5L67.2 90.5L67.7 90.4L68.1 90.3L68.6 90.3L69.0 90.2L69.5 90.1L70.0 90.1L70.4 90.0L70.9 90.0L71.3 89.9L71.8 89.9L72.3 89.8L72.7 89.8L73.2 89.7L73.6 89.7L74.1 89.6L74.6 89.6L75.0 89.6L75.5 89.5L76.0 89.5L76.4 89.5L76.9 89.4L77.3 89.4L77.8 89.4L78.3 89.3L78.7 89.3L79.2 89.3L79.6 89.3L80.1 89.2L80.6 89.2L81.0 89.2L81.5 89.2L81.9 89.1L82.4 89.1L82.9 89.1L83.3 89.1L83.8 89.1L84.3 89.1L84.7 89.0L85.2 89.0L85.6 89.0L86.1 89.0L86.6 89.0L87.0 89.0L87.5 89.0L87.9 88.9L88.4 88.9L88.9 88.9L89.3 88.9L89.8 88.9L90.3 88.9L90.7 88.9L91.2 88.9L91.6 88.9L92.1 88.9L92.6 88.8L93.0 88.8L93.5 88.8L93.9 88.8L94.4 88.8L94.9 88.8L95.3 88.8L95.8 88.8L96.2 88.8L96.7 88.8L97.2 88.8L97.6 88.8L98.1 88.8L98.6 88.8L99.0 88.8L99.5 88.8L99.9 88.7L100.4 88.7L100.9 88.7L101.3 88.7L101.8 88.7L102.2 88.7L102.7 88.7L103.2 88.7L103.6 88.7L104.1 88.7L104.5 88.7L105.0 88.7L105.5 88.7L105.9 88.7L106.4 88.7L106.9 88.7L107.3 88.7L107.8 88.7L108.2 88.7L108.7 88.7L109.2 88.7L109.6 88.7L110.1 88.7L110.5 88.7L111.0 88.7L111.5 88.7L111.9 88.7L112.4 88.7L112.8 88.7L113.3 88.7L113.8 88.7" fill="none" stroke="#ffb454" stroke-width="1.3"/><text x="68" y="212" fill="#cdd6df" font-size="11" text-anchor="middle">geometry</text><text x="68" y="226" fill="#3fe0a0" font-size="9" text-anchor="middle">constant offset</text><text x="68" y="242" fill="#8a97a3" font-size="9" text-anchor="middle">RMSE 8mm</text><text x="68" y="255" fill="#8a97a3" font-size="9" text-anchor="middle">pErr 0%</text><rect x="130" y="44" width="104" height="150" fill="#11171d" stroke="#2c3a47"/><path d="M136.0 188.0L136.5 184.4L136.9 180.9L137.4 177.6L137.8 174.4L138.3 171.3L138.8 168.4L139.2 165.5L139.7 162.8L140.2 160.2L140.6 157.7L141.1 155.3L141.5 152.9L142.0 150.7L142.5 148.6L142.9 146.5L143.4 144.5L143.8 142.6L144.3 140.8L144.8 139.0L145.2 137.3L145.7 135.7L146.1 134.2L146.6 132.7L147.1 131.2L147.5 129.8L148.0 128.5L148.5 127.2L148.9 126.0L149.4 124.8L149.8 123.7L150.3 122.6L150.8 121.6L151.2 120.6L151.7 119.6L152.1 118.7L152.6 117.8L153.1 116.9L153.5 116.1L154.0 115.3L154.4 114.6L154.9 113.8L155.4 113.1L155.8 112.5L156.3 111.8L156.8 111.2L157.2 110.6L157.7 110.0L158.1 109.5L158.6 109.0L159.1 108.5L159.5 108.0L160.0 107.5L160.4 107.0L160.9 106.6L161.4 106.2L161.8 105.8L162.3 105.4L162.7 105.0L163.2 104.7L163.7 104.3L164.1 104.0L164.6 103.7L165.1 103.4L165.5 103.1L166.0 102.8L166.4 102.6L166.9 102.3L167.4 102.1L167.8 101.8L168.3 101.6L168.7 101.4L169.2 101.2L169.7 101.0L170.1 100.8L170.6 100.6L171.0 100.4L171.5 100.2L172.0 100.1L172.4 99.9L172.9 99.8L173.4 99.6L173.8 99.5L174.3 99.3L174.7 99.2L175.2 99.1L175.7 98.9L176.1 98.8L176.6 98.7L177.0 98.6L177.5 98.5L178.0 98.4L178.4 98.3L178.9 98.2L179.3 98.1L179.8 98.1L180.3 98.0L180.7 97.9L181.2 97.8L181.7 97.8L182.1 97.7L182.6 97.6L183.0 97.6L183.5 97.5L184.0 97.4L184.4 97.4L184.9 97.3L185.3 97.3L185.8 97.2L186.3 97.2L186.7 97.1L187.2 97.1L187.6 97.0L188.1 97.0L188.6 97.0L189.0 96.9L189.5 96.9L190.0 96.9L190.4 96.8L190.9 96.8L191.3 96.8L191.8 96.7L192.3 96.7L192.7 96.7L193.2 96.6L193.6 96.6L194.1 96.6L194.6 96.6L195.0 96.5L195.5 96.5L195.9 96.5L196.4 96.5L196.9 96.5L197.3 96.5L197.8 96.4L198.3 96.4L198.7 96.4L199.2 96.4L199.6 96.4L200.1 96.4L200.6 96.3L201.0 96.3L201.5 96.3L201.9 96.3L202.4 96.3L202.9 96.3L203.3 96.3L203.8 96.3L204.3 96.2L204.7 96.2L205.2 96.2L205.6 96.2L206.1 96.2L206.6 96.2L207.0 96.2L207.5 96.2L207.9 96.2L208.4 96.2L208.9 96.2L209.3 96.2L209.8 96.2L210.2 96.1L210.7 96.1L211.2 96.1L211.6 96.1L212.1 96.1L212.6 96.1L213.0 96.1L213.5 96.1L213.9 96.1L214.4 96.1L214.9 96.1L215.3 96.1L215.8 96.1L216.2 96.1L216.7 96.1L217.2 96.1L217.6 96.1L218.1 96.1L218.5 96.1L219.0 96.1L219.5 96.1L219.9 96.1L220.4 96.1L220.9 96.1L221.3 96.1L221.8 96.1L222.2 96.1L222.7 96.0L223.2 96.0L223.6 96.0L224.1 96.0L224.5 96.0L225.0 96.0L225.5 96.0L225.9 96.0L226.4 96.0L226.8 96.0L227.3 96.0L227.8 96.0" fill="none" stroke="#39c5e0" stroke-width="1.3"/><path d="M136.0 188.0L136.5 184.2L136.9 180.5L137.4 177.0L137.8 173.6L138.3 170.3L138.8 167.2L139.2 164.2L139.7 161.3L140.2 158.5L140.6 155.8L141.1 153.3L141.5 150.8L142.0 148.5L142.5 146.2L142.9 144.0L143.4 141.9L143.8 139.9L144.3 137.9L144.8 136.1L145.2 134.3L145.7 132.6L146.1 130.9L146.6 129.3L147.1 127.8L147.5 126.4L148.0 124.9L148.5 123.6L148.9 122.3L149.4 121.1L149.8 119.9L150.3 118.7L150.8 117.6L151.2 116.5L151.7 115.5L152.1 114.5L152.6 113.6L153.1 112.7L153.5 111.8L154.0 111.0L154.4 110.2L154.9 109.4L155.4 108.7L155.8 107.9L156.3 107.3L156.8 106.6L157.2 106.0L157.7 105.4L158.1 104.8L158.6 104.2L159.1 103.7L159.5 103.2L160.0 102.7L160.4 102.2L160.9 101.7L161.4 101.3L161.8 100.9L162.3 100.5L162.7 100.1L163.2 99.7L163.7 99.3L164.1 99.0L164.6 98.6L165.1 98.3L165.5 98.0L166.0 97.7L166.4 97.4L166.9 97.2L167.4 96.9L167.8 96.7L168.3 96.4L168.7 96.2L169.2 96.0L169.7 95.7L170.1 95.5L170.6 95.3L171.0 95.1L171.5 95.0L172.0 94.8L172.4 94.6L172.9 94.5L173.4 94.3L173.8 94.1L174.3 94.0L174.7 93.9L175.2 93.7L175.7 93.6L176.1 93.5L176.6 93.4L177.0 93.3L177.5 93.1L178.0 93.0L178.4 92.9L178.9 92.8L179.3 92.8L179.8 92.7L180.3 92.6L180.7 92.5L181.2 92.4L181.7 92.3L182.1 92.3L182.6 92.2L183.0 92.1L183.5 92.1L184.0 92.0L184.4 91.9L184.9 91.9L185.3 91.8L185.8 91.8L186.3 91.7L186.7 91.7L187.2 91.6L187.6 91.6L188.1 91.5L188.6 91.5L189.0 91.5L189.5 91.4L190.0 91.4L190.4 91.3L190.9 91.3L191.3 91.3L191.8 91.3L192.3 91.2L192.7 91.2L193.2 91.2L193.6 91.1L194.1 91.1L194.6 91.1L195.0 91.1L195.5 91.0L195.9 91.0L196.4 91.0L196.9 91.0L197.3 91.0L197.8 90.9L198.3 90.9L198.7 90.9L199.2 90.9L199.6 90.9L200.1 90.9L200.6 90.8L201.0 90.8L201.5 90.8L201.9 90.8L202.4 90.8L202.9 90.8L203.3 90.8L203.8 90.8L204.3 90.7L204.7 90.7L205.2 90.7L205.6 90.7L206.1 90.7L206.6 90.7L207.0 90.7L207.5 90.7L207.9 90.7L208.4 90.7L208.9 90.7L209.3 90.6L209.8 90.6L210.2 90.6L210.7 90.6L211.2 90.6L211.6 90.6L212.1 90.6L212.6 90.6L213.0 90.6L213.5 90.6L213.9 90.6L214.4 90.6L214.9 90.6L215.3 90.6L215.8 90.6L216.2 90.6L216.7 90.6L217.2 90.6L217.6 90.6L218.1 90.6L218.5 90.6L219.0 90.6L219.5 90.5L219.9 90.5L220.4 90.5L220.9 90.5L221.3 90.5L221.8 90.5L222.2 90.5L222.7 90.5L223.2 90.5L223.6 90.5L224.1 90.5L224.5 90.5L225.0 90.5L225.5 90.5L225.9 90.5L226.4 90.5L226.8 90.5L227.3 90.5L227.8 90.5" fill="none" stroke="#ffb454" stroke-width="1.3"/><text x="182" y="212" fill="#cdd6df" font-size="11" text-anchor="middle">sensor</text><text x="182" y="226" fill="#3fe0a0" font-size="9" text-anchor="middle">grows w/ travel</text><text x="182" y="242" fill="#8a97a3" font-size="9" text-anchor="middle">RMSE 5mm</text><text x="182" y="255" fill="#8a97a3" font-size="9" text-anchor="middle">pErr 0%</text><rect x="244" y="44" width="104" height="150" fill="#11171d" stroke="#2c3a47"/><path d="M250.0 188.0L250.5 184.4L250.9 180.9L251.4 177.6L251.8 174.4L252.3 171.3L252.8 168.4L253.2 165.5L253.7 162.8L254.2 160.2L254.6 157.7L255.1 155.3L255.5 152.9L256.0 150.7L256.5 148.6L256.9 146.5L257.4 144.5L257.8 142.6L258.3 140.8L258.8 139.0L259.2 137.3L259.7 135.7L260.1 134.2L260.6 132.7L261.1 131.2L261.5 129.8L262.0 128.5L262.5 127.2L262.9 126.0L263.4 124.8L263.8 123.7L264.3 122.6L264.8 121.6L265.2 120.6L265.7 119.6L266.1 118.7L266.6 117.8L267.1 116.9L267.5 116.1L268.0 115.3L268.4 114.6L268.9 113.8L269.4 113.1L269.8 112.5L270.3 111.8L270.8 111.2L271.2 110.6L271.7 110.0L272.1 109.5L272.6 109.0L273.1 108.5L273.5 108.0L274.0 107.5L274.4 107.0L274.9 106.6L275.4 106.2L275.8 105.8L276.3 105.4L276.7 105.0L277.2 104.7L277.7 104.3L278.1 104.0L278.6 103.7L279.1 103.4L279.5 103.1L280.0 102.8L280.4 102.6L280.9 102.3L281.4 102.1L281.8 101.8L282.3 101.6L282.7 101.4L283.2 101.2L283.7 101.0L284.1 100.8L284.6 100.6L285.0 100.4L285.5 100.2L286.0 100.1L286.4 99.9L286.9 99.8L287.4 99.6L287.8 99.5L288.3 99.3L288.7 99.2L289.2 99.1L289.7 98.9L290.1 98.8L290.6 98.7L291.0 98.6L291.5 98.5L292.0 98.4L292.4 98.3L292.9 98.2L293.3 98.1L293.8 98.1L294.3 98.0L294.7 97.9L295.2 97.8L295.7 97.8L296.1 97.7L296.6 97.6L297.0 97.6L297.5 97.5L298.0 97.4L298.4 97.4L298.9 97.3L299.3 97.3L299.8 97.2L300.3 97.2L300.7 97.1L301.2 97.1L301.6 97.0L302.1 97.0L302.6 97.0L303.0 96.9L303.5 96.9L304.0 96.9L304.4 96.8L304.9 96.8L305.3 96.8L305.8 96.7L306.3 96.7L306.7 96.7L307.2 96.6L307.6 96.6L308.1 96.6L308.6 96.6L309.0 96.5L309.5 96.5L309.9 96.5L310.4 96.5L310.9 96.5L311.3 96.5L311.8 96.4L312.3 96.4L312.7 96.4L313.2 96.4L313.6 96.4L314.1 96.4L314.6 96.3L315.0 96.3L315.5 96.3L315.9 96.3L316.4 96.3L316.9 96.3L317.3 96.3L317.8 96.3L318.3 96.2L318.7 96.2L319.2 96.2L319.6 96.2L320.1 96.2L320.6 96.2L321.0 96.2L321.5 96.2L321.9 96.2L322.4 96.2L322.9 96.2L323.3 96.2L323.8 96.2L324.2 96.1L324.7 96.1L325.2 96.1L325.6 96.1L326.1 96.1L326.6 96.1L327.0 96.1L327.5 96.1L327.9 96.1L328.4 96.1L328.9 96.1L329.3 96.1L329.8 96.1L330.2 96.1L330.7 96.1L331.2 96.1L331.6 96.1L332.1 96.1L332.5 96.1L333.0 96.1L333.5 96.1L333.9 96.1L334.4 96.1L334.9 96.1L335.3 96.1L335.8 96.1L336.2 96.1L336.7 96.0L337.2 96.0L337.6 96.0L338.1 96.0L338.5 96.0L339.0 96.0L339.5 96.0L339.9 96.0L340.4 96.0L340.8 96.0L341.3 96.0L341.8 96.0" fill="none" stroke="#39c5e0" stroke-width="1.3"/><path d="M250.0 188.0L250.5 184.4L250.9 180.9L251.4 177.6L251.8 174.4L252.3 171.3L252.8 168.4L253.2 165.5L253.7 162.8L254.2 160.2L254.6 157.7L255.1 155.3L255.5 152.9L256.0 150.7L256.5 148.6L256.9 146.5L257.4 144.5L257.8 142.6L258.3 140.8L258.8 139.0L259.2 137.3L259.7 135.7L260.1 134.2L260.6 132.7L261.1 131.2L261.5 129.8L262.0 128.5L262.5 127.2L262.9 126.0L263.4 124.8L263.8 123.7L264.3 122.6L264.8 121.6L265.2 120.6L265.7 119.6L266.1 118.7L266.6 117.8L267.1 116.9L267.5 116.1L268.0 115.3L268.4 114.6L268.9 113.8L269.4 113.1L269.8 112.5L270.3 111.8L270.8 111.2L271.2 110.6L271.7 110.0L272.1 109.5L272.6 109.0L273.1 108.5L273.5 108.0L274.0 107.5L274.4 107.0L274.9 106.6L275.4 106.2L275.8 105.8L276.3 105.4L276.7 105.0L277.2 104.7L277.7 104.3L278.1 104.0L278.6 103.7L279.1 103.4L279.5 103.1L280.0 102.8L280.4 102.6L280.9 102.3L281.4 102.1L281.8 101.8L282.3 101.6L282.7 101.4L283.2 101.2L283.7 101.0L284.1 100.8L284.6 100.6L285.0 100.4L285.5 100.2L286.0 100.1L286.4 99.9L286.9 99.8L287.4 99.6L287.8 99.5L288.3 99.3L288.7 99.2L289.2 99.1L289.7 98.9L290.1 98.8L290.6 98.7L291.0 98.6L291.5 98.5L292.0 98.4L292.4 98.3L292.9 98.2L293.3 98.1L293.8 98.1L294.3 98.0L294.7 97.9L295.2 97.8L295.7 97.8L296.1 97.7L296.6 103.1L297.0 103.1L297.5 92.0L298.0 91.9L298.4 102.9L298.9 102.8L299.3 91.8L299.8 102.7L300.3 102.7L300.7 91.6L301.2 91.6L301.6 102.6L302.1 102.5L302.6 91.4L303.0 91.4L303.5 102.4L304.0 102.4L304.4 91.3L304.9 91.3L305.3 102.3L305.8 102.2L306.3 91.2L306.7 91.2L307.2 102.2L307.6 102.1L308.1 91.1L308.6 91.1L309.0 102.1L309.5 102.0L309.9 91.0L310.4 91.0L310.9 102.0L311.3 102.0L311.8 90.9L312.3 90.9L312.7 101.9L313.2 101.9L313.6 90.8L314.1 90.8L314.6 101.9L315.0 101.8L315.5 90.8L315.9 90.8L316.4 101.8L316.9 101.8L317.3 90.7L317.8 90.7L318.3 101.8L318.7 101.8L319.2 90.7L319.6 90.7L320.1 101.7L320.6 101.7L321.0 90.7L321.5 90.7L321.9 101.7L322.4 101.7L322.9 90.6L323.3 90.6L323.8 101.7L324.2 101.7L324.7 90.6L325.2 101.7L325.6 101.7L326.1 90.6L326.6 90.6L327.0 101.6L327.5 101.6L327.9 90.6L328.4 90.6L328.9 101.6L329.3 101.6L329.8 90.6L330.2 90.6L330.7 101.6L331.2 101.6L331.6 90.6L332.1 90.6L332.5 101.6L333.0 101.6L333.5 90.5L333.9 90.5L334.4 101.6L334.9 101.6L335.3 90.5L335.8 90.5L336.2 101.6L336.7 101.6L337.2 90.5L337.6 90.5L338.1 101.6L338.5 101.6L339.0 90.5L339.5 90.5L339.9 101.6L340.4 101.6L340.8 90.5L341.3 90.5L341.8 101.6" fill="none" stroke="#ffb454" stroke-width="1.3"/><text x="296" y="212" fill="#cdd6df" font-size="11" text-anchor="middle">deadband</text><text x="296" y="226" fill="#3fe0a0" font-size="9" text-anchor="middle">hold ripple</text><text x="296" y="242" fill="#8a97a3" font-size="9" text-anchor="middle">RMSE 4mm</text><text x="296" y="255" fill="#8a97a3" font-size="9" text-anchor="middle">pErr 0%</text><rect x="358" y="44" width="104" height="150" fill="#11171d" stroke="#2c3a47"/><path d="M364.0 188.0L364.5 184.4L364.9 180.9L365.4 177.6L365.8 174.4L366.3 171.3L366.8 168.4L367.2 165.5L367.7 162.8L368.2 160.2L368.6 157.7L369.1 155.3L369.5 152.9L370.0 150.7L370.5 148.6L370.9 146.5L371.4 144.5L371.8 142.6L372.3 140.8L372.8 139.0L373.2 137.3L373.7 135.7L374.1 134.2L374.6 132.7L375.1 131.2L375.5 129.8L376.0 128.5L376.5 127.2L376.9 126.0L377.4 124.8L377.8 123.7L378.3 122.6L378.8 121.6L379.2 120.6L379.7 119.6L380.1 118.7L380.6 117.8L381.1 116.9L381.5 116.1L382.0 115.3L382.4 114.6L382.9 113.8L383.4 113.1L383.8 112.5L384.3 111.8L384.8 111.2L385.2 110.6L385.7 110.0L386.1 109.5L386.6 109.0L387.1 108.5L387.5 108.0L388.0 107.5L388.4 107.0L388.9 106.6L389.4 106.2L389.8 105.8L390.3 105.4L390.7 105.0L391.2 104.7L391.7 104.3L392.1 104.0L392.6 103.7L393.1 103.4L393.5 103.1L394.0 102.8L394.4 102.6L394.9 102.3L395.4 102.1L395.8 101.8L396.3 101.6L396.7 101.4L397.2 101.2L397.7 101.0L398.1 100.8L398.6 100.6L399.0 100.4L399.5 100.2L400.0 100.1L400.4 99.9L400.9 99.8L401.4 99.6L401.8 99.5L402.3 99.3L402.7 99.2L403.2 99.1L403.7 98.9L404.1 98.8L404.6 98.7L405.0 98.6L405.5 98.5L406.0 98.4L406.4 98.3L406.9 98.2L407.3 98.1L407.8 98.1L408.3 98.0L408.7 97.9L409.2 97.8L409.7 97.8L410.1 97.7L410.6 97.6L411.0 97.6L411.5 97.5L412.0 97.4L412.4 97.4L412.9 97.3L413.3 97.3L413.8 97.2L414.3 97.2L414.7 97.1L415.2 97.1L415.6 97.0L416.1 97.0L416.6 97.0L417.0 96.9L417.5 96.9L418.0 96.9L418.4 96.8L418.9 96.8L419.3 96.8L419.8 96.7L420.3 96.7L420.7 96.7L421.2 96.6L421.6 96.6L422.1 96.6L422.6 96.6L423.0 96.5L423.5 96.5L423.9 96.5L424.4 96.5L424.9 96.5L425.3 96.5L425.8 96.4L426.3 96.4L426.7 96.4L427.2 96.4L427.6 96.4L428.1 96.4L428.6 96.3L429.0 96.3L429.5 96.3L429.9 96.3L430.4 96.3L430.9 96.3L431.3 96.3L431.8 96.3L432.3 96.2L432.7 96.2L433.2 96.2L433.6 96.2L434.1 96.2L434.6 96.2L435.0 96.2L435.5 96.2L435.9 96.2L436.4 96.2L436.9 96.2L437.3 96.2L437.8 96.2L438.2 96.1L438.7 96.1L439.2 96.1L439.6 96.1L440.1 96.1L440.6 96.1L441.0 96.1L441.5 96.1L441.9 96.1L442.4 96.1L442.9 96.1L443.3 96.1L443.8 96.1L444.2 96.1L444.7 96.1L445.2 96.1L445.6 96.1L446.1 96.1L446.5 96.1L447.0 96.1L447.5 96.1L447.9 96.1L448.4 96.1L448.9 96.1L449.3 96.1L449.8 96.1L450.2 96.1L450.7 96.0L451.2 96.0L451.6 96.0L452.1 96.0L452.5 96.0L453.0 96.0L453.5 96.0L453.9 96.0L454.4 96.0L454.8 96.0L455.3 96.0L455.8 96.0" fill="none" stroke="#39c5e0" stroke-width="1.3"/><path d="M364.0 188.0L364.5 184.4L364.9 180.9L365.4 177.6L365.8 174.4L366.3 171.3L366.8 168.4L367.2 165.5L367.7 162.8L368.2 160.2L368.6 157.7L369.1 155.3L369.5 152.9L370.0 150.7L370.5 148.6L370.9 146.5L371.4 144.5L371.8 142.6L372.3 140.8L372.8 139.0L373.2 137.3L373.7 135.7L374.1 134.2L374.6 132.7L375.1 131.2L375.5 129.8L376.0 128.5L376.5 127.2L376.9 126.0L377.4 124.8L377.8 123.7L378.3 122.6L378.8 121.6L379.2 120.6L379.7 119.6L380.1 118.7L380.6 117.8L381.1 116.9L381.5 116.1L382.0 115.3L382.4 114.6L382.9 113.8L383.4 113.1L383.8 112.5L384.3 111.8L384.8 111.2L385.2 110.6L385.7 110.0L386.1 109.5L386.6 109.0L387.1 108.5L387.5 108.0L388.0 107.5L388.4 107.0L388.9 106.6L389.4 106.2L389.8 105.8L390.3 105.4L390.7 105.0L391.2 104.7L391.7 104.3L392.1 104.0L392.6 103.7L393.1 103.4L393.5 103.1L394.0 102.8L394.4 102.6L394.9 102.3L395.4 102.1L395.8 101.8L396.3 101.6L396.7 101.4L397.2 101.2L397.7 101.0L398.1 100.8L398.6 100.6L399.0 100.4L399.5 100.2L400.0 100.1L400.4 99.9L400.9 99.8L401.4 99.6L401.8 99.5L402.3 99.3L402.7 99.2L403.2 99.1L403.7 98.9L404.1 98.8L404.6 98.7L405.0 98.6L405.5 98.5L406.0 98.4L406.4 98.3L406.9 98.2L407.3 98.1L407.8 98.1L408.3 98.0L408.7 97.9L409.2 97.8L409.7 97.8L410.1 97.7L410.6 97.6L411.0 97.6L411.5 97.5L412.0 97.4L412.4 97.4L412.9 97.3L413.3 97.3L413.8 97.2L414.3 97.2L414.7 97.1L415.2 97.1L415.6 97.0L416.1 97.0L416.6 97.0L417.0 96.9L417.5 96.9L418.0 96.9L418.4 96.8L418.9 96.8L419.3 96.8L419.8 96.7L420.3 96.7L420.7 96.7L421.2 96.6L421.6 96.6L422.1 96.6L422.6 96.6L423.0 96.5L423.5 96.5L423.9 96.5L424.4 96.5L424.9 96.5L425.3 96.5L425.8 96.4L426.3 96.4L426.7 96.4L427.2 96.4L427.6 96.4L428.1 96.4L428.6 96.3L429.0 96.3L429.5 96.3L429.9 96.3L430.4 96.3L430.9 96.3L431.3 96.3L431.8 96.3L432.3 96.2L432.7 96.2L433.2 96.2L433.6 96.2L434.1 96.2L434.6 96.2L435.0 96.2L435.5 96.2L435.9 96.2L436.4 96.2L436.9 96.2L437.3 96.2L437.8 96.2L438.2 96.1L438.7 96.1L439.2 96.1L439.6 96.1L440.1 96.1L440.6 96.1L441.0 96.1L441.5 96.1L441.9 96.1L442.4 96.1L442.9 96.1L443.3 96.1L443.8 96.1L444.2 96.1L444.7 96.1L445.2 96.1L445.6 96.1L446.1 96.1L446.5 96.1L447.0 96.1L447.5 96.1L447.9 96.1L448.4 96.1L448.9 96.1L449.3 96.1L449.8 96.1L450.2 96.1L450.7 96.0L451.2 96.0L451.6 96.0L452.1 96.0L452.5 96.0L453.0 96.0L453.5 96.0L453.9 96.0L454.4 96.0L454.8 96.0L455.3 96.0L455.8 96.0" fill="none" stroke="#ffb454" stroke-width="1.3"/><text x="410" y="212" fill="#cdd6df" font-size="11" text-anchor="middle">pressure</text><text x="410" y="226" fill="#3fe0a0" font-size="9" text-anchor="middle">pressure only</text><text x="410" y="242" fill="#8a97a3" font-size="9" text-anchor="middle">RMSE 0mm</text><text x="410" y="255" fill="#8a97a3" font-size="9" text-anchor="middle">pErr 18%</text><rect x="472" y="44" width="104" height="150" fill="#11171d" stroke="#2c3a47"/><path d="M478.0 188.0L478.5 184.4L478.9 180.9L479.4 177.6L479.8 174.4L480.3 171.3L480.8 168.4L481.2 165.5L481.7 162.8L482.2 160.2L482.6 157.7L483.1 155.3L483.5 152.9L484.0 150.7L484.5 148.6L484.9 146.5L485.4 144.5L485.8 142.6L486.3 140.8L486.8 139.0L487.2 137.3L487.7 135.7L488.1 134.2L488.6 132.7L489.1 131.2L489.5 129.8L490.0 128.5L490.5 127.2L490.9 126.0L491.4 124.8L491.8 123.7L492.3 122.6L492.8 121.6L493.2 120.6L493.7 119.6L494.1 118.7L494.6 117.8L495.1 116.9L495.5 116.1L496.0 115.3L496.4 114.6L496.9 113.8L497.4 113.1L497.8 112.5L498.3 111.8L498.8 111.2L499.2 110.6L499.7 110.0L500.1 109.5L500.6 109.0L501.1 108.5L501.5 108.0L502.0 107.5L502.4 107.0L502.9 106.6L503.4 106.2L503.8 105.8L504.3 105.4L504.7 105.0L505.2 104.7L505.7 104.3L506.1 104.0L506.6 103.7L507.1 103.4L507.5 103.1L508.0 102.8L508.4 102.6L508.9 102.3L509.4 102.1L509.8 101.8L510.3 101.6L510.7 101.4L511.2 101.2L511.7 101.0L512.1 100.8L512.6 100.6L513.0 100.4L513.5 100.2L514.0 100.1L514.4 99.9L514.9 99.8L515.4 99.6L515.8 99.5L516.3 99.3L516.7 99.2L517.2 99.1L517.7 98.9L518.1 98.8L518.6 98.7L519.0 98.6L519.5 98.5L520.0 98.4L520.4 98.3L520.9 98.2L521.3 98.1L521.8 98.1L522.3 98.0L522.7 97.9L523.2 97.8L523.7 97.8L524.1 97.7L524.6 97.6L525.0 97.6L525.5 97.5L526.0 97.4L526.4 97.4L526.9 97.3L527.3 97.3L527.8 97.2L528.3 97.2L528.7 97.1L529.2 97.1L529.6 97.0L530.1 97.0L530.6 97.0L531.0 96.9L531.5 96.9L532.0 96.9L532.4 96.8L532.9 96.8L533.3 96.8L533.8 96.7L534.3 96.7L534.7 96.7L535.2 96.6L535.6 96.6L536.1 96.6L536.6 96.6L537.0 96.5L537.5 96.5L537.9 96.5L538.4 96.5L538.9 96.5L539.3 96.5L539.8 96.4L540.3 96.4L540.7 96.4L541.2 96.4L541.6 96.4L542.1 96.4L542.6 96.3L543.0 96.3L543.5 96.3L543.9 96.3L544.4 96.3L544.9 96.3L545.3 96.3L545.8 96.3L546.3 96.2L546.7 96.2L547.2 96.2L547.6 96.2L548.1 96.2L548.6 96.2L549.0 96.2L549.5 96.2L549.9 96.2L550.4 96.2L550.9 96.2L551.3 96.2L551.8 96.2L552.2 96.1L552.7 96.1L553.2 96.1L553.6 96.1L554.1 96.1L554.6 96.1L555.0 96.1L555.5 96.1L555.9 96.1L556.4 96.1L556.9 96.1L557.3 96.1L557.8 96.1L558.2 96.1L558.7 96.1L559.2 96.1L559.6 96.1L560.1 96.1L560.5 96.1L561.0 96.1L561.5 96.1L561.9 96.1L562.4 96.1L562.9 96.1L563.3 96.1L563.8 96.1L564.2 96.1L564.7 96.0L565.2 96.0L565.6 96.0L566.1 96.0L566.5 96.0L567.0 96.0L567.5 96.0L567.9 96.0L568.4 96.0L568.8 96.0L569.3 96.0L569.8 96.0" fill="none" stroke="#39c5e0" stroke-width="1.3"/><path d="M478.0 188.0L478.5 188.0L478.9 188.0L479.4 188.0L479.8 188.0L480.3 188.0L480.8 188.0L481.2 188.0L481.7 188.0L482.2 188.0L482.6 188.0L483.1 188.0L483.5 188.0L484.0 188.0L484.5 188.0L484.9 188.0L485.4 184.4L485.8 180.9L486.3 177.6L486.8 174.4L487.2 171.3L487.7 168.4L488.1 165.5L488.6 162.8L489.1 160.2L489.5 157.7L490.0 155.3L490.5 152.9L490.9 150.7L491.4 148.6L491.8 146.5L492.3 144.5L492.8 142.6L493.2 140.8L493.7 139.0L494.1 137.3L494.6 135.7L495.1 134.2L495.5 132.7L496.0 131.2L496.4 129.8L496.9 128.5L497.4 127.2L497.8 126.0L498.3 124.8L498.8 123.7L499.2 122.6L499.7 121.6L500.1 120.6L500.6 119.6L501.1 118.7L501.5 117.8L502.0 116.9L502.4 116.1L502.9 115.3L503.4 114.6L503.8 113.8L504.3 113.1L504.7 112.5L505.2 111.8L505.7 111.2L506.1 110.6L506.6 110.0L507.1 109.5L507.5 109.0L508.0 108.5L508.4 108.0L508.9 107.5L509.4 107.0L509.8 106.6L510.3 106.2L510.7 105.8L511.2 105.4L511.7 105.0L512.1 104.7L512.6 104.3L513.0 104.0L513.5 103.7L514.0 103.4L514.4 103.1L514.9 102.8L515.4 102.6L515.8 102.3L516.3 102.1L516.7 101.8L517.2 101.6L517.7 101.4L518.1 101.2L518.6 101.0L519.0 100.8L519.5 100.6L520.0 100.4L520.4 100.2L520.9 100.1L521.3 99.9L521.8 99.8L522.3 99.6L522.7 99.5L523.2 99.3L523.7 99.2L524.1 99.1L524.6 98.9L525.0 98.8L525.5 98.7L526.0 98.6L526.4 98.5L526.9 98.4L527.3 98.3L527.8 98.2L528.3 98.1L528.7 98.1L529.2 98.0L529.6 97.9L530.1 97.8L530.6 97.8L531.0 97.7L531.5 97.6L532.0 97.6L532.4 97.5L532.9 97.4L533.3 97.4L533.8 97.3L534.3 97.3L534.7 97.2L535.2 97.2L535.6 97.1L536.1 97.1L536.6 97.0L537.0 97.0L537.5 97.0L537.9 96.9L538.4 96.9L538.9 96.9L539.3 96.8L539.8 96.8L540.3 96.8L540.7 96.7L541.2 96.7L541.6 96.7L542.1 96.6L542.6 96.6L543.0 96.6L543.5 96.6L543.9 96.5L544.4 96.5L544.9 96.5L545.3 96.5L545.8 96.5L546.3 96.5L546.7 96.4L547.2 96.4L547.6 96.4L548.1 96.4L548.6 96.4L549.0 96.4L549.5 96.3L549.9 96.3L550.4 96.3L550.9 96.3L551.3 96.3L551.8 96.3L552.2 96.3L552.7 96.3L553.2 96.2L553.6 96.2L554.1 96.2L554.6 96.2L555.0 96.2L555.5 96.2L555.9 96.2L556.4 96.2L556.9 96.2L557.3 96.2L557.8 96.2L558.2 96.2L558.7 96.2L559.2 96.1L559.6 96.1L560.1 96.1L560.5 96.1L561.0 96.1L561.5 96.1L561.9 96.1L562.4 96.1L562.9 96.1L563.3 96.1L563.8 96.1L564.2 96.1L564.7 96.1L565.2 96.1L565.6 96.1L566.1 96.1L566.5 96.1L567.0 96.1L567.5 96.1L567.9 96.1L568.4 96.1L568.8 96.1L569.3 96.1L569.8 96.1" fill="none" stroke="#ffb454" stroke-width="1.3"/><text x="524" y="212" fill="#cdd6df" font-size="11" text-anchor="middle">timing</text><text x="524" y="226" fill="#3fe0a0" font-size="9" text-anchor="middle">aligns away</text><text x="524" y="242" fill="#8a97a3" font-size="9" text-anchor="middle">RMSE 14mm</text><text x="524" y="255" fill="#8a97a3" font-size="9" text-anchor="middle">pErr 11%</text><text x="16" y="34" fill="#5b6975" font-size="10">twin (cyan) vs rig (amber) — each fault leaves a distinct fingerprint</text>
</g>
<line x1="16" y1="384" x2="584" y2="384" stroke="#2c3a47" stroke-width="1"/>
<text x="16" y="400" fill="#8a97a3" font-size="10">diagnose by signature: offset / scaling / ripple / pressure-only / aligns-away</text><text x="584" y="400" fill="#3a4753" font-size="9" text-anchor="end">B14 · SOURCE Family 4 · Diagnose · baseline_twin_faults · 2026-06-23 · USED IN 4.4</text>
</svg>
