<svg viewBox="0 0 600 526" xmlns="http://www.w3.org/2000/svg" font-family="ui-monospace, Menlo, Consolas, monospace">
<metadata>source=Family 1; view=Singularity; params=baseline_3dof; exported=2026-06-23; key=|det J| floor 0.02, 46x46 grid</metadata>
<rect width="600" height="526" fill="#0e1217"/>
<text x="16" y="22" fill="#39c5e0" font-size="13" letter-spacing="2">SAFE-REGION MAP — 3-RPR</text>
<text x="584" y="22" fill="#5b6975" font-size="10" text-anchor="end">baseline_3dof</text>
<g transform="translate(0,34)">
<line x1="27.3" y1="460.0" x2="27.3" y2="0.0" stroke="#22303c"/>
<line x1="163.6" y1="460.0" x2="163.6" y2="0.0" stroke="#22303c"/>
<line x1="300.0" y1="460.0" x2="300.0" y2="0.0" stroke="#22303c"/>
<line x1="436.4" y1="460.0" x2="436.4" y2="0.0" stroke="#22303c"/>
<line x1="572.7" y1="460.0" x2="572.7" y2="0.0" stroke="#22303c"/>
<line x1="0.0" y1="425.9" x2="600.0" y2="425.9" stroke="#22303c"/>
<line x1="0.0" y1="323.7" x2="600.0" y2="323.7" stroke="#22303c"/>
<line x1="0.0" y1="221.5" x2="600.0" y2="221.5" stroke="#22303c"/>
<line x1="0.0" y1="119.3" x2="600.0" y2="119.3" stroke="#22303c"/>
<line x1="0.0" y1="17.0" x2="600.0" y2="17.0" stroke="#22303c"/>
<rect x="208.20" y="439.50" width="14.04" height="11.00" fill="rgba(255,84,112,0.40)"/><rect x="208.20" y="429.50" width="14.04" height="11.00" fill="rgba(255,84,112,0.40)"/><rect x="208.20" y="419.50" width="14.04" height="11.00" fill="rgba(255,84,112,0.40)"/><rect x="208.20" y="409.50" width="14.04" height="11.00" fill="rgba(255,84,112,0.40)"/><rect x="208.20" y="399.50" width="14.04" height="11.00" fill="rgba(255,84,112,0.40)"/><rect x="208.20" y="389.50" width="14.04" height="11.00" fill="rgba(255,84,112,0.40)"/><rect x="208.20" y="379.50" width="14.04" height="11.00" fill="rgba(255,84,112,0.40)"/><rect x="208.20" y="369.50" width="14.04" height="11.00" fill="rgba(255,84,112,0.40)"/><rect x="208.20" y="359.50" width="14.04" height="11.00" fill="rgba(255,84,112,0.40)"/><rect x="221.24" y="449.50" width="14.04" height="11.00" fill="rgba(255,84,112,0.40)"/><rect x="221.24" y="439.50" width="14.04" height="11.00" fill="rgba(255,84,112,0.40)"/><rect x="221.24" y="429.50" width="14.04" height="11.00" fill="rgba(255,84,112,0.40)"/><rect x="221.24" y="419.50" width="14.04" height="11.00" fill="rgba(255,84,112,0.40)"/><rect x="221.24" y="409.50" width="14.04" height="11.00" fill="rgba(255,84,112,0.40)"/><rect x="221.24" y="399.50" width="14.04" height="11.00" fill="rgba(255,84,112,0.40)"/><rect x="221.24" y="389.50" width="14.04" height="11.00" fill="rgba(255,84,112,0.40)"/><rect x="221.24" y="379.50" width="14.04" height="11.00" fill="rgba(255,84,112,0.40)"/><rect x="221.24" y="369.50" width="14.04" height="11.00" fill="rgba(255,84,112,0.40)"/><rect x="221.24" y="359.50" width="14.04" height="11.00" fill="rgba(255,84,112,0.40)"/><rect x="221.24" y="349.50" width="14.04" height="11.00" fill="rgba(255,84,112,0.40)"/><rect x="221.24" y="339.50" width="14.04" height="11.00" fill="rgba(255,84,112,0.40)"/><rect x="221.24" y="329.50" width="14.04" height="11.00" fill="rgba(255,84,112,0.40)"/><rect x="221.24" y="319.50" width="14.04" height="11.00" fill="rgba(255,84,112,0.40)"/><rect x="221.24" y="309.50" width="14.04" height="11.00" fill="rgba(255,180,84,0.30)"/><rect x="221.24" y="299.50" width="14.04" height="11.00" fill="rgba(255,180,84,0.30)"/><rect x="221.24" y="289.50" width="14.04" height="11.00" fill="rgba(255,180,84,0.30)"/><rect x="234.28" y="449.50" width="14.04" height="11.00" fill="rgba(255,84,112,0.40)"/><rect x="234.28" y="439.50" width="14.04" height="11.00" fill="rgba(255,84,112,0.40)"/><rect x="234.28" y="429.50" width="14.04" height="11.00" fill="rgba(255,84,112,0.40)"/><rect x="234.28" y="419.50" width="14.04" height="11.00" fill="rgba(255,84,112,0.40)"/><rect x="234.28" y="409.50" width="14.04" height="11.00" fill="rgba(255,84,112,0.40)"/><rect x="234.28" y="399.50" width="14.04" height="11.00" fill="rgba(255,84,112,0.40)"/><rect x="234.28" y="389.50" width="14.04" height="11.00" fill="rgba(255,84,112,0.40)"/><rect x="234.28" y="379.50" width="14.04" height="11.00" fill="rgba(255,84,112,0.40)"/><rect x="234.28" y="369.50" width="14.04" height="11.00" fill="rgba(255,84,112,0.40)"/><rect x="234.28" y="359.50" width="14.04" height="11.00" fill="rgba(255,84,112,0.40)"/><rect x="234.28" y="349.50" width="14.04" height="11.00" fill="rgba(255,84,112,0.40)"/><rect x="234.28" y="339.50" width="14.04" height="11.00" fill="rgba(255,84,112,0.40)"/><rect x="234.28" y="329.50" width="14.04" height="11.00" fill="rgba(255,84,112,0.40)"/><rect x="234.28" y="319.50" width="14.04" height="11.00" fill="rgba(255,84,112,0.40)"/><rect x="234.28" y="309.50" width="14.04" height="11.00" fill="rgba(255,84,112,0.40)"/><rect x="234.28" y="299.50" width="14.04" height="11.00" fill="rgba(255,180,84,0.30)"/><rect x="234.28" y="289.50" width="14.04" height="11.00" fill="rgba(255,180,84,0.30)"/><rect x="234.28" y="279.50" width="14.04" height="11.00" fill="rgba(255,180,84,0.30)"/><rect x="234.28" y="269.50" width="14.04" height="11.00" fill="rgba(255,180,84,0.30)"/><rect x="234.28" y="259.50" width="14.04" height="11.00" fill="rgba(255,180,84,0.30)"/><rect x="234.28" y="249.50" width="14.04" height="11.00" fill="rgba(255,180,84,0.30)"/><rect x="247.33" y="449.50" width="14.04" height="11.00" fill="rgba(255,84,112,0.40)"/><rect x="247.33" y="439.50" width="14.04" height="11.00" fill="rgba(255,84,112,0.40)"/><rect x="247.33" y="429.50" width="14.04" height="11.00" fill="rgba(255,84,112,0.40)"/><rect x="247.33" y="419.50" width="14.04" height="11.00" fill="rgba(255,84,112,0.40)"/><rect x="247.33" y="409.50" width="14.04" height="11.00" fill="rgba(255,84,112,0.40)"/><rect x="247.33" y="399.50" width="14.04" height="11.00" fill="rgba(255,84,112,0.40)"/><rect x="247.33" y="389.50" width="14.04" height="11.00" fill="rgba(255,84,112,0.40)"/><rect x="247.33" y="379.50" width="14.04" height="11.00" fill="rgba(255,84,112,0.40)"/><rect x="247.33" y="369.50" width="14.04" height="11.00" fill="rgba(255,84,112,0.40)"/><rect x="247.33" y="359.50" width="14.04" height="11.00" fill="rgba(255,84,112,0.40)"/><rect x="247.33" y="349.50" width="14.04" height="11.00" fill="rgba(255,84,112,0.40)"/><rect x="247.33" y="339.50" width="14.04" height="11.00" fill="rgba(255,84,112,0.40)"/><rect x="247.33" y="329.50" width="14.04" height="11.00" fill="rgba(255,84,112,0.40)"/><rect x="247.33" y="319.50" width="14.04" height="11.00" fill="rgba(255,84,112,0.40)"/><rect x="247.33" y="309.50" width="14.04" height="11.00" fill="rgba(255,84,112,0.40)"/><rect x="247.33" y="299.50" width="14.04" height="11.00" fill="rgba(255,84,112,0.40)"/><rect x="247.33" y="289.50" width="14.04" height="11.00" fill="rgba(255,84,112,0.40)"/><rect x="247.33" y="279.50" width="14.04" height="11.00" fill="rgba(255,180,84,0.30)"/><rect x="247.33" y="269.50" width="14.04" height="11.00" fill="rgba(255,180,84,0.30)"/><rect x="247.33" y="259.50" width="14.04" height="11.00" fill="rgba(255,180,84,0.30)"/><rect x="247.33" y="249.50" width="14.04" height="11.00" fill="rgba(255,180,84,0.30)"/><rect x="247.33" y="239.50" width="14.04" height="11.00" fill="rgba(255,180,84,0.30)"/><rect x="247.33" y="229.50" width="14.04" height="11.00" fill="rgba(255,180,84,0.30)"/><rect x="247.33" y="219.50" width="14.04" height="11.00" fill="rgba(255,180,84,0.30)"/><rect x="260.37" y="449.50" width="14.04" height="11.00" fill="rgba(255,84,112,0.40)"/><rect x="260.37" y="439.50" width="14.04" height="11.00" fill="rgba(255,84,112,0.40)"/><rect x="260.37" y="429.50" width="14.04" height="11.00" fill="rgba(255,84,112,0.40)"/><rect x="260.37" y="419.50" width="14.04" height="11.00" fill="rgba(255,84,112,0.40)"/><rect x="260.37" y="409.50" width="14.04" height="11.00" fill="rgba(255,84,112,0.40)"/><rect x="260.37" y="399.50" width="14.04" height="11.00" fill="rgba(255,84,112,0.40)"/><rect x="260.37" y="389.50" width="14.04" height="11.00" fill="rgba(255,84,112,0.40)"/><rect x="260.37" y="379.50" width="14.04" height="11.00" fill="rgba(255,84,112,0.40)"/><rect x="260.37" y="369.50" width="14.04" height="11.00" fill="rgba(255,84,112,0.40)"/><rect x="260.37" y="359.50" width="14.04" height="11.00" fill="rgba(255,84,112,0.40)"/><rect x="260.37" y="349.50" width="14.04" height="11.00" fill="rgba(255,84,112,0.40)"/><rect x="260.37" y="339.50" width="14.04" height="11.00" fill="rgba(255,84,112,0.40)"/><rect x="260.37" y="329.50" width="14.04" height="11.00" fill="rgba(255,84,112,0.40)"/><rect x="260.37" y="319.50" width="14.04" height="11.00" fill="rgba(255,84,112,0.40)"/><rect x="260.37" y="309.50" width="14.04" height="11.00" fill="rgba(255,84,112,0.40)"/><rect x="260.37" y="299.50" width="14.04" height="11.00" fill="rgba(255,84,112,0.40)"/><rect x="260.37" y="289.50" width="14.04" height="11.00" fill="rgba(255,84,112,0.40)"/><rect x="260.37" y="279.50" width="14.04" height="11.00" fill="rgba(255,84,112,0.40)"/><rect x="260.37" y="269.50" width="14.04" height="11.00" fill="rgba(255,84,112,0.40)"/><rect x="260.37" y="259.50" width="14.04" height="11.00" fill="rgba(255,84,112,0.40)"/><rect x="260.37" y="249.50" width="14.04" height="11.00" fill="rgba(255,180,84,0.30)"/><rect x="260.37" y="239.50" width="14.04" height="11.00" fill="rgba(255,180,84,0.30)"/><rect x="260.37" y="229.50" width="14.04" height="11.00" fill="rgba(255,180,84,0.30)"/><rect x="273.41" y="449.50" width="14.04" height="11.00" fill="rgba(255,84,112,0.40)"/><rect x="273.41" y="439.50" width="14.04" height="11.00" fill="rgba(255,84,112,0.40)"/><rect x="273.41" y="429.50" width="14.04" height="11.00" fill="rgba(255,84,112,0.40)"/><rect x="273.41" y="419.50" width="14.04" height="11.00" fill="rgba(255,84,112,0.40)"/><rect x="273.41" y="409.50" width="14.04" height="11.00" fill="rgba(255,84,112,0.40)"/><rect x="273.41" y="399.50" width="14.04" height="11.00" fill="rgba(255,84,112,0.40)"/><rect x="273.41" y="389.50" width="14.04" height="11.00" fill="rgba(255,84,112,0.40)"/><rect x="273.41" y="379.50" width="14.04" height="11.00" fill="rgba(255,84,112,0.40)"/><rect x="273.41" y="369.50" width="14.04" height="11.00" fill="rgba(255,84,112,0.40)"/><rect x="273.41" y="359.50" width="14.04" height="11.00" fill="rgba(255,84,112,0.40)"/><rect x="273.41" y="349.50" width="14.04" height="11.00" fill="rgba(255,84,112,0.40)"/><rect x="273.41" y="339.50" width="14.04" height="11.00" fill="rgba(255,84,112,0.40)"/><rect x="273.41" y="329.50" width="14.04" height="11.00" fill="rgba(255,84,112,0.40)"/><rect x="273.41" y="319.50" width="14.04" height="11.00" fill="rgba(255,84,112,0.40)"/><rect x="273.41" y="309.50" width="14.04" height="11.00" fill="rgba(255,84,112,0.40)"/><rect x="273.41" y="299.50" width="14.04" height="11.00" fill="rgba(255,84,112,0.40)"/><rect x="273.41" y="289.50" width="14.04" height="11.00" fill="rgba(255,84,112,0.40)"/><rect x="273.41" y="279.50" width="14.04" height="11.00" fill="rgba(255,84,112,0.40)"/><rect x="273.41" y="269.50" width="14.04" height="11.00" fill="rgba(255,84,112,0.40)"/><rect x="273.41" y="259.50" width="14.04" height="11.00" fill="rgba(255,84,112,0.40)"/><rect x="273.41" y="249.50" width="14.04" height="11.00" fill="rgba(255,84,112,0.40)"/><rect x="273.41" y="239.50" width="14.04" height="11.00" fill="rgba(255,84,112,0.40)"/><rect x="273.41" y="229.50" width="14.04" height="11.00" fill="rgba(255,84,112,0.40)"/><rect x="286.46" y="449.50" width="14.04" height="11.00" fill="rgba(255,84,112,0.40)"/><rect x="286.46" y="439.50" width="14.04" height="11.00" fill="rgba(255,84,112,0.40)"/><rect x="286.46" y="429.50" width="14.04" height="11.00" fill="rgba(255,84,112,0.40)"/><rect x="286.46" y="419.50" width="14.04" height="11.00" fill="rgba(255,84,112,0.40)"/><rect x="286.46" y="409.50" width="14.04" height="11.00" fill="rgba(255,84,112,0.40)"/><rect x="286.46" y="399.50" width="14.04" height="11.00" fill="rgba(255,84,112,0.40)"/><rect x="286.46" y="389.50" width="14.04" height="11.00" fill="rgba(255,84,112,0.40)"/><rect x="286.46" y="379.50" width="14.04" height="11.00" fill="rgba(255,84,112,0.40)"/><rect x="286.46" y="369.50" width="14.04" height="11.00" fill="rgba(255,84,112,0.40)"/><rect x="286.46" y="359.50" width="14.04" height="11.00" fill="rgba(255,84,112,0.40)"/><rect x="286.46" y="349.50" width="14.04" height="11.00" fill="rgba(255,84,112,0.40)"/><rect x="286.46" y="339.50" width="14.04" height="11.00" fill="rgba(255,84,112,0.40)"/><rect x="286.46" y="329.50" width="14.04" height="11.00" fill="rgba(255,84,112,0.40)"/><rect x="286.46" y="319.50" width="14.04" height="11.00" fill="rgba(255,84,112,0.40)"/><rect x="286.46" y="309.50" width="14.04" height="11.00" fill="rgba(255,84,112,0.40)"/><rect x="286.46" y="299.50" width="14.04" height="11.00" fill="rgba(255,84,112,0.40)"/><rect x="286.46" y="289.50" width="14.04" height="11.00" fill="rgba(255,84,112,0.40)"/><rect x="286.46" y="279.50" width="14.04" height="11.00" fill="rgba(255,84,112,0.40)"/><rect x="286.46" y="269.50" width="14.04" height="11.00" fill="rgba(255,84,112,0.40)"/><rect x="286.46" y="259.50" width="14.04" height="11.00" fill="rgba(255,84,112,0.40)"/><rect x="286.46" y="249.50" width="14.04" height="11.00" fill="rgba(255,84,112,0.40)"/><rect x="286.46" y="239.50" width="14.04" height="11.00" fill="rgba(255,84,112,0.40)"/><rect x="286.46" y="229.50" width="14.04" height="11.00" fill="rgba(255,84,112,0.40)"/><rect x="299.50" y="449.50" width="14.04" height="11.00" fill="rgba(255,84,112,0.40)"/><rect x="299.50" y="439.50" width="14.04" height="11.00" fill="rgba(255,84,112,0.40)"/><rect x="299.50" y="429.50" width="14.04" height="11.00" fill="rgba(255,84,112,0.40)"/><rect x="299.50" y="419.50" width="14.04" height="11.00" fill="rgba(255,84,112,0.40)"/><rect x="299.50" y="409.50" width="14.04" height="11.00" fill="rgba(255,84,112,0.40)"/><rect x="299.50" y="399.50" width="14.04" height="11.00" fill="rgba(255,84,112,0.40)"/><rect x="299.50" y="389.50" width="14.04" height="11.00" fill="rgba(255,84,112,0.40)"/><rect x="299.50" y="379.50" width="14.04" height="11.00" fill="rgba(255,84,112,0.40)"/><rect x="299.50" y="369.50" width="14.04" height="11.00" fill="rgba(255,84,112,0.40)"/><rect x="299.50" y="359.50" width="14.04" height="11.00" fill="rgba(255,84,112,0.40)"/><rect x="299.50" y="349.50" width="14.04" height="11.00" fill="rgba(255,84,112,0.40)"/><rect x="299.50" y="339.50" width="14.04" height="11.00" fill="rgba(255,84,112,0.40)"/><rect x="299.50" y="329.50" width="14.04" height="11.00" fill="rgba(255,84,112,0.40)"/><rect x="299.50" y="319.50" width="14.04" height="11.00" fill="rgba(255,84,112,0.40)"/><rect x="299.50" y="309.50" width="14.04" height="11.00" fill="rgba(255,84,112,0.40)"/><rect x="299.50" y="299.50" width="14.04" height="11.00" fill="rgba(255,84,112,0.40)"/><rect x="299.50" y="289.50" width="14.04" height="11.00" fill="rgba(255,84,112,0.40)"/><rect x="299.50" y="279.50" width="14.04" height="11.00" fill="rgba(255,84,112,0.40)"/><rect x="299.50" y="269.50" width="14.04" height="11.00" fill="rgba(255,84,112,0.40)"/><rect x="299.50" y="259.50" width="14.04" height="11.00" fill="rgba(255,84,112,0.40)"/><rect x="299.50" y="249.50" width="14.04" height="11.00" fill="rgba(255,84,112,0.40)"/><rect x="299.50" y="239.50" width="14.04" height="11.00" fill="rgba(255,84,112,0.40)"/><rect x="299.50" y="229.50" width="14.04" height="11.00" fill="rgba(255,84,112,0.40)"/><rect x="312.54" y="449.50" width="14.04" height="11.00" fill="rgba(255,84,112,0.40)"/><rect x="312.54" y="439.50" width="14.04" height="11.00" fill="rgba(255,84,112,0.40)"/><rect x="312.54" y="429.50" width="14.04" height="11.00" fill="rgba(255,84,112,0.40)"/><rect x="312.54" y="419.50" width="14.04" height="11.00" fill="rgba(255,84,112,0.40)"/><rect x="312.54" y="409.50" width="14.04" height="11.00" fill="rgba(255,84,112,0.40)"/><rect x="312.54" y="399.50" width="14.04" height="11.00" fill="rgba(255,84,112,0.40)"/><rect x="312.54" y="389.50" width="14.04" height="11.00" fill="rgba(255,84,112,0.40)"/><rect x="312.54" y="379.50" width="14.04" height="11.00" fill="rgba(255,84,112,0.40)"/><rect x="312.54" y="369.50" width="14.04" height="11.00" fill="rgba(255,84,112,0.40)"/><rect x="312.54" y="359.50" width="14.04" height="11.00" fill="rgba(255,84,112,0.40)"/><rect x="312.54" y="349.50" width="14.04" height="11.00" fill="rgba(255,84,112,0.40)"/><rect x="312.54" y="339.50" width="14.04" height="11.00" fill="rgba(255,84,112,0.40)"/><rect x="312.54" y="329.50" width="14.04" height="11.00" fill="rgba(255,84,112,0.40)"/><rect x="312.54" y="319.50" width="14.04" height="11.00" fill="rgba(255,84,112,0.40)"/><rect x="312.54" y="309.50" width="14.04" height="11.00" fill="rgba(255,84,112,0.40)"/><rect x="312.54" y="299.50" width="14.04" height="11.00" fill="rgba(255,84,112,0.40)"/><rect x="312.54" y="289.50" width="14.04" height="11.00" fill="rgba(255,84,112,0.40)"/><rect x="312.54" y="279.50" width="14.04" height="11.00" fill="rgba(255,84,112,0.40)"/><rect x="312.54" y="269.50" width="14.04" height="11.00" fill="rgba(255,84,112,0.40)"/><rect x="312.54" y="259.50" width="14.04" height="11.00" fill="rgba(255,84,112,0.40)"/><rect x="312.54" y="249.50" width="14.04" height="11.00" fill="rgba(255,84,112,0.40)"/><rect x="312.54" y="239.50" width="14.04" height="11.00" fill="rgba(255,84,112,0.40)"/><rect x="312.54" y="229.50" width="14.04" height="11.00" fill="rgba(255,84,112,0.40)"/><rect x="325.59" y="449.50" width="14.04" height="11.00" fill="rgba(255,84,112,0.40)"/><rect x="325.59" y="439.50" width="14.04" height="11.00" fill="rgba(255,84,112,0.40)"/><rect x="325.59" y="429.50" width="14.04" height="11.00" fill="rgba(255,84,112,0.40)"/><rect x="325.59" y="419.50" width="14.04" height="11.00" fill="rgba(255,84,112,0.40)"/><rect x="325.59" y="409.50" width="14.04" height="11.00" fill="rgba(255,84,112,0.40)"/><rect x="325.59" y="399.50" width="14.04" height="11.00" fill="rgba(255,84,112,0.40)"/><rect x="325.59" y="389.50" width="14.04" height="11.00" fill="rgba(255,84,112,0.40)"/><rect x="325.59" y="379.50" width="14.04" height="11.00" fill="rgba(255,84,112,0.40)"/><rect x="325.59" y="369.50" width="14.04" height="11.00" fill="rgba(255,84,112,0.40)"/><rect x="325.59" y="359.50" width="14.04" height="11.00" fill="rgba(255,84,112,0.40)"/><rect x="325.59" y="349.50" width="14.04" height="11.00" fill="rgba(255,84,112,0.40)"/><rect x="325.59" y="339.50" width="14.04" height="11.00" fill="rgba(255,84,112,0.40)"/><rect x="325.59" y="329.50" width="14.04" height="11.00" fill="rgba(255,84,112,0.40)"/><rect x="325.59" y="319.50" width="14.04" height="11.00" fill="rgba(255,84,112,0.40)"/><rect x="325.59" y="309.50" width="14.04" height="11.00" fill="rgba(255,84,112,0.40)"/><rect x="325.59" y="299.50" width="14.04" height="11.00" fill="rgba(255,84,112,0.40)"/><rect x="325.59" y="289.50" width="14.04" height="11.00" fill="rgba(255,84,112,0.40)"/><rect x="325.59" y="279.50" width="14.04" height="11.00" fill="rgba(255,84,112,0.40)"/><rect x="325.59" y="269.50" width="14.04" height="11.00" fill="rgba(255,84,112,0.40)"/><rect x="325.59" y="259.50" width="14.04" height="11.00" fill="rgba(255,84,112,0.40)"/><rect x="325.59" y="249.50" width="14.04" height="11.00" fill="rgba(255,180,84,0.30)"/><rect x="325.59" y="239.50" width="14.04" height="11.00" fill="rgba(255,180,84,0.30)"/><rect x="325.59" y="229.50" width="14.04" height="11.00" fill="rgba(255,180,84,0.30)"/><rect x="338.63" y="449.50" width="14.04" height="11.00" fill="rgba(255,84,112,0.40)"/><rect x="338.63" y="439.50" width="14.04" height="11.00" fill="rgba(255,84,112,0.40)"/><rect x="338.63" y="429.50" width="14.04" height="11.00" fill="rgba(255,84,112,0.40)"/><rect x="338.63" y="419.50" width="14.04" height="11.00" fill="rgba(255,84,112,0.40)"/><rect x="338.63" y="409.50" width="14.04" height="11.00" fill="rgba(255,84,112,0.40)"/><rect x="338.63" y="399.50" width="14.04" height="11.00" fill="rgba(255,84,112,0.40)"/><rect x="338.63" y="389.50" width="14.04" height="11.00" fill="rgba(255,84,112,0.40)"/><rect x="338.63" y="379.50" width="14.04" height="11.00" fill="rgba(255,84,112,0.40)"/><rect x="338.63" y="369.50" width="14.04" height="11.00" fill="rgba(255,84,112,0.40)"/><rect x="338.63" y="359.50" width="14.04" height="11.00" fill="rgba(255,84,112,0.40)"/><rect x="338.63" y="349.50" width="14.04" height="11.00" fill="rgba(255,84,112,0.40)"/><rect x="338.63" y="339.50" width="14.04" height="11.00" fill="rgba(255,84,112,0.40)"/><rect x="338.63" y="329.50" width="14.04" height="11.00" fill="rgba(255,84,112,0.40)"/><rect x="338.63" y="319.50" width="14.04" height="11.00" fill="rgba(255,84,112,0.40)"/><rect x="338.63" y="309.50" width="14.04" height="11.00" fill="rgba(255,84,112,0.40)"/><rect x="338.63" y="299.50" width="14.04" height="11.00" fill="rgba(255,84,112,0.40)"/><rect x="338.63" y="289.50" width="14.04" height="11.00" fill="rgba(255,84,112,0.40)"/><rect x="338.63" y="279.50" width="14.04" height="11.00" fill="rgba(255,180,84,0.30)"/><rect x="338.63" y="269.50" width="14.04" height="11.00" fill="rgba(255,180,84,0.30)"/><rect x="338.63" y="259.50" width="14.04" height="11.00" fill="rgba(255,180,84,0.30)"/><rect x="338.63" y="249.50" width="14.04" height="11.00" fill="rgba(255,180,84,0.30)"/><rect x="338.63" y="239.50" width="14.04" height="11.00" fill="rgba(255,180,84,0.30)"/><rect x="338.63" y="229.50" width="14.04" height="11.00" fill="rgba(255,180,84,0.30)"/><rect x="338.63" y="219.50" width="14.04" height="11.00" fill="rgba(255,180,84,0.30)"/><rect x="351.67" y="449.50" width="14.04" height="11.00" fill="rgba(255,84,112,0.40)"/><rect x="351.67" y="439.50" width="14.04" height="11.00" fill="rgba(255,84,112,0.40)"/><rect x="351.67" y="429.50" width="14.04" height="11.00" fill="rgba(255,84,112,0.40)"/><rect x="351.67" y="419.50" width="14.04" height="11.00" fill="rgba(255,84,112,0.40)"/><rect x="351.67" y="409.50" width="14.04" height="11.00" fill="rgba(255,84,112,0.40)"/><rect x="351.67" y="399.50" width="14.04" height="11.00" fill="rgba(255,84,112,0.40)"/><rect x="351.67" y="389.50" width="14.04" height="11.00" fill="rgba(255,84,112,0.40)"/><rect x="351.67" y="379.50" width="14.04" height="11.00" fill="rgba(255,84,112,0.40)"/><rect x="351.67" y="369.50" width="14.04" height="11.00" fill="rgba(255,84,112,0.40)"/><rect x="351.67" y="359.50" width="14.04" height="11.00" fill="rgba(255,84,112,0.40)"/><rect x="351.67" y="349.50" width="14.04" height="11.00" fill="rgba(255,84,112,0.40)"/><rect x="351.67" y="339.50" width="14.04" height="11.00" fill="rgba(255,84,112,0.40)"/><rect x="351.67" y="329.50" width="14.04" height="11.00" fill="rgba(255,84,112,0.40)"/><rect x="351.67" y="319.50" width="14.04" height="11.00" fill="rgba(255,84,112,0.40)"/><rect x="351.67" y="309.50" width="14.04" height="11.00" fill="rgba(255,84,112,0.40)"/><rect x="351.67" y="299.50" width="14.04" height="11.00" fill="rgba(255,180,84,0.30)"/><rect x="351.67" y="289.50" width="14.04" height="11.00" fill="rgba(255,180,84,0.30)"/><rect x="351.67" y="279.50" width="14.04" height="11.00" fill="rgba(255,180,84,0.30)"/><rect x="351.67" y="269.50" width="14.04" height="11.00" fill="rgba(255,180,84,0.30)"/><rect x="351.67" y="259.50" width="14.04" height="11.00" fill="rgba(255,180,84,0.30)"/><rect x="351.67" y="249.50" width="14.04" height="11.00" fill="rgba(255,180,84,0.30)"/><rect x="364.72" y="449.50" width="14.04" height="11.00" fill="rgba(255,84,112,0.40)"/><rect x="364.72" y="439.50" width="14.04" height="11.00" fill="rgba(255,84,112,0.40)"/><rect x="364.72" y="429.50" width="14.04" height="11.00" fill="rgba(255,84,112,0.40)"/><rect x="364.72" y="419.50" width="14.04" height="11.00" fill="rgba(255,84,112,0.40)"/><rect x="364.72" y="409.50" width="14.04" height="11.00" fill="rgba(255,84,112,0.40)"/><rect x="364.72" y="399.50" width="14.04" height="11.00" fill="rgba(255,84,112,0.40)"/><rect x="364.72" y="389.50" width="14.04" height="11.00" fill="rgba(255,84,112,0.40)"/><rect x="364.72" y="379.50" width="14.04" height="11.00" fill="rgba(255,84,112,0.40)"/><rect x="364.72" y="369.50" width="14.04" height="11.00" fill="rgba(255,84,112,0.40)"/><rect x="364.72" y="359.50" width="14.04" height="11.00" fill="rgba(255,84,112,0.40)"/><rect x="364.72" y="349.50" width="14.04" height="11.00" fill="rgba(255,84,112,0.40)"/><rect x="364.72" y="339.50" width="14.04" height="11.00" fill="rgba(255,84,112,0.40)"/><rect x="364.72" y="329.50" width="14.04" height="11.00" fill="rgba(255,84,112,0.40)"/><rect x="364.72" y="319.50" width="14.04" height="11.00" fill="rgba(255,84,112,0.40)"/><rect x="364.72" y="309.50" width="14.04" height="11.00" fill="rgba(255,180,84,0.30)"/><rect x="364.72" y="299.50" width="14.04" height="11.00" fill="rgba(255,180,84,0.30)"/><rect x="364.72" y="289.50" width="14.04" height="11.00" fill="rgba(255,180,84,0.30)"/><rect x="377.76" y="439.50" width="14.04" height="11.00" fill="rgba(255,84,112,0.40)"/><rect x="377.76" y="429.50" width="14.04" height="11.00" fill="rgba(255,84,112,0.40)"/><rect x="377.76" y="419.50" width="14.04" height="11.00" fill="rgba(255,84,112,0.40)"/><rect x="377.76" y="409.50" width="14.04" height="11.00" fill="rgba(255,84,112,0.40)"/><rect x="377.76" y="399.50" width="14.04" height="11.00" fill="rgba(255,84,112,0.40)"/><rect x="377.76" y="389.50" width="14.04" height="11.00" fill="rgba(255,84,112,0.40)"/><rect x="377.76" y="379.50" width="14.04" height="11.00" fill="rgba(255,84,112,0.40)"/><rect x="377.76" y="369.50" width="14.04" height="11.00" fill="rgba(255,84,112,0.40)"/><rect x="377.76" y="359.50" width="14.04" height="11.00" fill="rgba(255,84,112,0.40)"/>
<line x1="81.8" y1="425.9" x2="280.9" y2="262.4" stroke="#39c5e0" stroke-width="2"/>
<circle cx="81.8" cy="425.9" r="4" fill="#8a97a3"/>
<line x1="518.2" y1="425.9" x2="346.4" y2="262.4" stroke="#39c5e0" stroke-width="2"/>
<circle cx="518.2" cy="425.9" r="4" fill="#8a97a3"/>
<line x1="300.0" y1="85.2" x2="313.6" y2="190.8" stroke="#39c5e0" stroke-width="2"/>
<circle cx="300.0" cy="85.2" r="4" fill="#8a97a3"/>
<polygon points="280.9,262.4 346.4,262.4 313.6,190.8" fill="rgba(63,224,160,0.18)" stroke="#3fe0a0" stroke-width="1.5"/>
<circle cx="313.6" cy="238.5" r="7" fill="#3fe0a0" stroke="#06222b" stroke-width="2"/>
<text x="300" y="460" fill="#5b6975" font-size="10" text-anchor="middle">x (m)</text>
<text x="6" y="221" fill="#5b6975" font-size="10">y (m)</text>
</g>
<line x1="16" y1="500" x2="584" y2="500" stroke="#2c3a47"/>
<text x="16" y="516" fill="#8a97a3" font-size="10">red &lt; 0.02 = singular · amber &lt; 0.08 = near · green = safe</text>
<text x="584" y="516" fill="#3a4753" font-size="9" text-anchor="end">B3 · SOURCE Family 1 · Singularity · baseline_3dof · 2026-06-23 · USED IN 3.4</text>
</svg>
