<svg viewBox="0 0 600 410" xmlns="http://www.w3.org/2000/svg" font-family="ui-monospace, Menlo, Consolas, monospace">
<metadata>source=Family 2; view=Cylinder; params=baseline_hydraulic; exported=2026-06-23; key=bore 40mm rod 22mm; areas+forces</metadata>
<rect x="0" y="0" width="600" height="410" fill="#0e1217"/>
<text x="16" y="22" fill="#39c5e0" font-size="13">FORCE / AREA — CYLINDER</text><text x="584" y="22" fill="#5b6975" font-size="10" text-anchor="end">baseline_hydraulic</text>
<g transform="translate(0,30)">
<rect x="70" y="120" width="200" height="82" fill="none" stroke="#cdd6df" stroke-width="2"/><rect x="134" y="120" width="9" height="82" fill="#cdd6df"/><rect x="143" y="155" width="191" height="12" fill="#8a97a3" stroke="#cdd6df" stroke-width="0.6"/><line x1="100" y1="202" x2="100" y2="230" stroke="#39c5e0" stroke-width="2"/><line x1="220" y1="202" x2="220" y2="230" stroke="#39c5e0" stroke-width="2"/><text x="95" y="244" fill="#39c5e0" font-size="11">A</text><text x="86" y="258" fill="#5b6975" font-size="9">cap</text><text x="215" y="244" fill="#39c5e0" font-size="11">B</text><text x="208" y="258" fill="#5b6975" font-size="9">rod</text><text x="70" y="108" fill="#5b6975" font-size="10">ISO 1219 double-acting single-rod cylinder</text><text x="427" y="110" fill="#5b6975" font-size="10" text-anchor="middle">areas to scale — A_rod is the ring (bore − rod)</text><circle cx="372" cy="150" r="26" fill="rgba(57,197,224,0.20)" stroke="#39c5e0" stroke-width="1.5"/><text x="372" y="194" fill="#39c5e0" font-size="10" text-anchor="middle">A_cap</text><text x="372" y="209" fill="#cdd6df" font-size="10" text-anchor="middle">1257 mm²</text><circle cx="482" cy="150" r="26" fill="rgba(57,197,224,0.20)" stroke="#39c5e0" stroke-width="1.5"/><circle cx="482" cy="150" r="14.299999999999999" fill="#0e1217" stroke="#8a97a3" stroke-width="1.2"/><text x="482" y="153" fill="#5b6975" font-size="9" text-anchor="middle">rod</text><text x="482" y="194" fill="#3fe0a0" font-size="10" text-anchor="middle">A_rod</text><text x="482" y="209" fill="#cdd6df" font-size="10" text-anchor="middle">877 mm²</text><text x="70" y="294" fill="#3fe0a0" font-size="13">φ = A_cap / A_rod = 1.43</text><text x="70" y="316" fill="#cdd6df" font-size="12">F_extend = 20.1 kN     F_retract = 14.0 kN</text><text x="70" y="334" fill="#5b6975" font-size="11">load = 15.0 kN</text>
</g>
<line x1="16" y1="384" x2="584" y2="384" stroke="#2c3a47" stroke-width="1"/>
<text x="16" y="400" fill="#8a97a3" font-size="10">cyan disk = A_cap · ring = A_rod (bore − rod) · green = phi/forces</text><text x="584" y="400" fill="#3a4753" font-size="9" text-anchor="end">B4 · SOURCE Family 2 · Cylinder · baseline_hydraulic · 2026-06-23 · USED IN 2.1</text>
</svg>
