<svg viewBox="0 0 600 410" xmlns="http://www.w3.org/2000/svg" font-family="ui-monospace, Menlo, Consolas, monospace">
<metadata>source=Family 2; view=Valve; params=baseline_hydraulic; exported=2026-06-23; key=orifice law Q vs dP at u=0.7</metadata>
<rect x="0" y="0" width="600" height="410" fill="#0e1217"/>
<text x="16" y="22" fill="#39c5e0" font-size="13">FLOW CURVE — VALVE</text><text x="584" y="22" fill="#5b6975" font-size="10" text-anchor="end">baseline_hydraulic</text>
<g transform="translate(0,30)">
<line x1="70" y1="300" x2="560" y2="300" stroke="#2c3a47" stroke-width="1"/><line x1="70" y1="40" x2="70" y2="300" stroke="#2c3a47" stroke-width="1"/><path d="M70.0 300.0L86.3 254.8L102.7 236.1L119.0 221.7L135.3 209.6L151.7 198.9L168.0 189.3L184.3 180.4L200.7 172.1L217.0 164.4L233.3 157.0L249.7 150.1L266.0 143.4L282.3 137.0L298.7 130.8L315.0 124.9L331.3 119.2L347.7 113.6L364.0 108.2L380.3 102.9L396.7 97.8L413.0 92.8L429.3 88.0L445.7 83.2L462.0 78.5L478.3 74.0L494.7 69.5L511.0 65.1L527.3 60.8L543.7 56.5L560.0 52.4" fill="none" stroke="#39c5e0" stroke-width="2"/><circle cx="233.3" cy="157.0" r="5" fill="#3fe0a0"/><text x="560" y="318" fill="#5b6975" font-size="11" text-anchor="end">dP / rated</text><text x="70" y="32" fill="#5b6975" font-size="11">Q (L/min)</text><rect x="110" y="92" width="30" height="30" fill="none" stroke="#cdd6df" stroke-width="1.3"/><rect x="140" y="92" width="30" height="30" fill="none" stroke="#cdd6df" stroke-width="1.3"/><rect x="170" y="92" width="30" height="30" fill="none" stroke="#cdd6df" stroke-width="1.3"/><line x1="119.6" y1="117" x2="119.6" y2="97" stroke="#39c5e0" stroke-width="1.6"/><path d="M119.6 97L121.8 100.9L117.4 100.9Z" fill="#39c5e0"/><line x1="130.4" y1="97" x2="130.4" y2="117" stroke="#39c5e0" stroke-width="1.6"/><path d="M130.4 117L128.2 113.1L132.6 113.1Z" fill="#39c5e0"/><line x1="149" y1="92" x2="149" y2="99" stroke="#cdd6df" stroke-width="1.2"/><line x1="146" y1="99" x2="152" y2="99" stroke="#cdd6df" stroke-width="1.2"/><line x1="161" y1="92" x2="161" y2="99" stroke="#cdd6df" stroke-width="1.2"/><line x1="158" y1="99" x2="164" y2="99" stroke="#cdd6df" stroke-width="1.2"/><line x1="149" y1="122" x2="149" y2="115" stroke="#cdd6df" stroke-width="1.2"/><line x1="146" y1="115" x2="152" y2="115" stroke="#cdd6df" stroke-width="1.2"/><line x1="161" y1="122" x2="161" y2="115" stroke="#cdd6df" stroke-width="1.2"/><line x1="158" y1="115" x2="164" y2="115" stroke="#cdd6df" stroke-width="1.2"/><line x1="178.4" y1="117" x2="191.6" y2="97" stroke="#39c5e0" stroke-width="1.6"/><path d="M191.6 97L191.2 101.5L187.6 99.1Z" fill="#39c5e0"/><line x1="191.6" y1="117" x2="178.4" y2="97" stroke="#39c5e0" stroke-width="1.6"/><path d="M178.4 97L182.4 99.1L178.8 101.5Z" fill="#39c5e0"/><line x1="149" y1="92" x2="149" y2="81" stroke="#cdd6df" stroke-width="1"/><line x1="161" y1="92" x2="161" y2="81" stroke="#cdd6df" stroke-width="1"/><line x1="149" y1="122" x2="149" y2="133" stroke="#cdd6df" stroke-width="1"/><line x1="161" y1="122" x2="161" y2="133" stroke="#cdd6df" stroke-width="1"/><text x="146" y="78" fill="#8a97a3" font-size="9">A</text><text x="158" y="78" fill="#8a97a3" font-size="9">B</text><text x="146" y="143" fill="#8a97a3" font-size="9">P</text><text x="158" y="143" fill="#8a97a3" font-size="9">T</text><rect x="97" y="100" width="12" height="14" fill="none" stroke="#3fe0a0" stroke-width="1"/><line x1="97" y1="114" x2="109" y2="100" stroke="#3fe0a0" stroke-width="1"/><rect x="201" y="100" width="12" height="14" fill="none" stroke="#ffb454" stroke-width="1"/><line x1="201" y1="114" x2="213" y2="100" stroke="#ffb454" stroke-width="1"/><text x="128" y="64" fill="#5b6975" font-size="9">ISO 1219 4/3 DCV</text><text x="70" y="330" fill="#cdd6df" font-size="12">Q = u · Q_rated · √(dP/dP_rated)   |   u=0.70  →  Q=7.4 L/min</text>
</g>
<line x1="16" y1="384" x2="584" y2="384" stroke="#2c3a47" stroke-width="1"/>
<text x="16" y="400" fill="#8a97a3" font-size="10">cyan = orifice √-law · green dot = operating point (u=0.7, dP=½ rated)</text><text x="584" y="400" fill="#3a4753" font-size="9" text-anchor="end">B5 · SOURCE Family 2 · Valve · baseline_hydraulic · 2026-06-23 · USED IN 2.2</text>
</svg>
