<svg viewBox="0 0 600 410" xmlns="http://www.w3.org/2000/svg" font-family="ui-monospace, Menlo, Consolas, monospace">
<metadata>source=Family 2; view=Pump; params=baseline_hydraulic; exported=2026-06-23; key=flow sizing + power; ISO pump+relief</metadata>
<rect x="0" y="0" width="600" height="410" fill="#0e1217"/>
<text x="16" y="22" fill="#39c5e0" font-size="13">PUMP / POWER</text><text x="584" y="22" fill="#5b6975" font-size="10" text-anchor="end">baseline_hydraulic</text>
<g transform="translate(0,30)">
<rect x="120" y="64" width="360" height="20" fill="#1b232c" stroke="#2c3a47" stroke-width="1"/><rect x="120" y="64" width="150.79644737231007" height="20" fill="#39c5e0"/><text x="120" y="58" fill="#8a97a3" font-size="11">required flow 15.1 L/min</text><rect x="120" y="114" width="360" height="20" fill="#1b232c" stroke="#2c3a47" stroke-width="1"/><rect x="120" y="114" width="360" height="20" fill="rgba(63,224,160,0.5)"/><text x="120" y="108" fill="#8a97a3" font-size="11">pump max 36.0 L/min</text><text x="120" y="170" fill="#cdd6df" font-size="12">power at required flow = supply × flow = 4.0 kW</text><text x="120" y="190" fill="#5b6975" font-size="11">installed max = supply × pump max = 9.6 kW</text><text x="120" y="210" fill="#5b6975" font-size="11">pressure to hold load = 11.9 MPa   (relief 21 MPa)</text><circle cx="150" cy="272" r="13" fill="none" stroke="#39c5e0" stroke-width="1.5"/><path d="M150 263L157 276L143 276Z" fill="#39c5e0"/><text x="136" y="302" fill="#39c5e0" font-size="9">pump</text><line x1="163" y1="272" x2="208" y2="272" stroke="#39c5e0" stroke-width="1.6"/><rect x="208" y="259" width="26" height="26" fill="none" stroke="#ff5470" stroke-width="1.5"/><line x1="221" y1="281" x2="225" y2="263" stroke="#ff5470" stroke-width="1.6"/><path d="M225 263L226.2 267.3L222.0 266.4Z" fill="#ff5470"/><path d="M234 267l5 -3 l0 8 l5 -8 l0 8 l4 -3" fill="none" stroke="#8a97a3" stroke-width="1"/><line x1="180" y1="272" x2="180" y2="284" stroke="#8a97a3" stroke-width="1" stroke-dasharray="3 2"/><line x1="180" y1="284" x2="221" y2="284" stroke="#8a97a3" stroke-width="1" stroke-dasharray="3 2"/><line x1="221" y1="284" x2="221" y2="285" stroke="#8a97a3" stroke-width="1" stroke-dasharray="3 2"/><text x="204" y="253" fill="#ff5470" font-size="9">relief</text>
</g>
<line x1="16" y1="384" x2="584" y2="384" stroke="#2c3a47" stroke-width="1"/>
<text x="16" y="400" fill="#8a97a3" font-size="10">bars = required flow vs pump max · ISO pump + relief symbols</text><text x="584" y="400" fill="#3a4753" font-size="9" text-anchor="end">B6 · SOURCE Family 2 · Pump · baseline_hydraulic · 2026-06-23 · USED IN 2.3</text>
</svg>
