<svg viewBox="0 0 600 410" xmlns="http://www.w3.org/2000/svg" font-family="ui-monospace, Menlo, Consolas, monospace">
<metadata>source=Family 3; view=Coordinated; params=baseline_control; exported=2026-06-23; key=circle track, Kp=40, RMSE 8.3mm</metadata>
<rect width="600" height="410" fill="#0e1217"/>
<text x="16" y="22" fill="#39c5e0" font-size="13">COORDINATED PATH TRACKING</text><text x="584" y="22" fill="#5b6975" font-size="10" text-anchor="end">baseline_control</text>
<g transform="translate(0,30)">
<line x1="64" y1="300" x2="566" y2="300" stroke="#2c3a47" stroke-width="1"/><line x1="64" y1="36" x2="64" y2="300" stroke="#2c3a47" stroke-width="1"/><text x="566" y="318" fill="#5b6975" font-size="11" text-anchor="end">x (m)</text><text x="64" y="28" fill="#5b6975" font-size="11">y (m)</text><path d="M440.5 168.0L440.5 167.9L440.5 167.7L440.5 167.6L440.5 167.4L440.5 167.3L440.5 167.2L440.5 167.0L440.5 166.9L440.5 166.8L440.5 166.6L440.5 166.5L440.5 166.3L440.5 166.2L440.4 166.1L440.4 165.9L440.4 165.8L440.4 165.7L440.4 165.5L440.4 165.4L440.4 165.2L440.4 165.1L440.4 165.0L440.4 164.8L440.3 164.7L440.3 164.5L440.3 164.4L440.3 164.3L440.3 164.1L440.3 164.0L440.3 163.9L440.2 163.7L440.2 163.6L440.2 163.4L440.2 163.3L440.2 163.2L440.1 163.0L440.1 162.9L440.1 162.8L440.1 162.6L440.1 162.5L440.0 162.3L440.0 162.2L440.0 162.1L440.0 161.9L439.9 161.8L439.9 161.7L439.9 161.5L439.9 161.4L439.8 161.2L439.8 161.1L439.8 161.0L439.8 160.8L439.7 160.7L439.7 160.6L439.7 160.4L439.6 160.3L439.6 160.1L439.6 160.0L439.5 159.9L439.5 159.7L439.5 159.6L439.4 159.5L439.4 159.3L439.4 159.2L439.3 159.0L439.3 158.9L439.3 158.8L439.2 158.6L439.2 158.5L439.2 158.4L439.1 158.2L439.1 158.1L439.0 157.9L439.0 157.8L439.0 157.7L438.9 157.5L438.9 157.4L438.8 157.3L438.8 157.1L438.7 157.0L438.7 156.9L438.7 156.7L438.6 156.6L438.6 156.4L438.5 156.3L438.5 156.2L438.4 156.0L438.4 155.9L438.3 155.8L438.3 155.6L438.2 155.5L438.2 155.4L438.1 155.2L438.1 155.1L438.0 155.0L438.0 154.8L437.9 154.7L437.9 154.5L437.8 154.4L437.8 154.3L437.7 154.1L437.6 154.0L437.6 153.9L437.5 153.7L437.5 153.6L437.4 153.5L437.4 153.3L437.3 153.2L437.2 153.1L437.2 152.9L437.1 152.8L437.1 152.7L437.0 152.5L436.9 152.4L436.9 152.3L436.8 152.1L436.8 152.0L436.7 151.9L436.6 151.7L436.6 151.6L436.5 151.5L436.4 151.3L436.4 151.2L436.3 151.1L436.2 150.9L436.2 150.8L436.1 150.7L436.0 150.5L435.9 150.4L435.9 150.3L435.8 150.1L435.7 150.0L435.7 149.9L435.6 149.7L435.5 149.6L435.4 149.5L435.4 149.3L435.3 149.2L435.2 149.1L435.1 148.9L435.1 148.8L435.0 148.7L434.9 148.5L434.8 148.4L434.8 148.3L434.7 148.1L434.6 148.0L434.5 147.9L434.4 147.7L434.4 147.6L434.3 147.5L434.2 147.3L434.1 147.2L434.0 147.1L433.9 146.9L433.9 146.8L433.8 146.7L433.7 146.6L433.6 146.4L433.5 146.3L433.4 146.2L433.3 146.0L433.3 145.9L433.2 145.8L433.1 145.6L433.0 145.5L432.9 145.4L432.8 145.3L432.7 145.1L432.6 145.0L432.5 144.9L432.4 144.7L432.4 144.6L432.3 144.5L432.2 144.3L432.1 144.2L432.0 144.1L431.9 144.0L431.8 143.8L431.7 143.7L431.6 143.6L431.5 143.4L431.4 143.3L431.3 143.2L431.2 143.1L431.1 142.9L431.0 142.8L430.9 142.7L430.8 142.6L430.7 142.4L430.6 142.3L430.5 142.2L430.4 142.0L430.3 141.9L430.2 141.8L430.1 141.7L430.0 141.5L429.9 141.4L429.8 141.3L429.6 141.2L429.5 141.0L429.4 140.9L429.3 140.8L429.2 140.7L429.1 140.5L429.0 140.4L428.9 140.3L428.8 140.1L428.7 140.0L428.6 139.9L428.4 139.8L428.3 139.6L428.2 139.5L428.1 139.4L428.0 139.3L427.9 139.2L427.8 139.0L427.6 138.9L427.5 138.8L427.4 138.7L427.3 138.5L427.2 138.4L427.1 138.3L426.9 138.2L426.8 138.0L426.7 137.9L426.6 137.8L426.5 137.7L426.3 137.5L426.2 137.4L426.1 137.3L426.0 137.2L425.9 137.1L425.7 136.9L425.6 136.8L425.5 136.7L425.4 136.6L425.2 136.4L425.1 136.3L425.0 136.2L424.8 136.1L424.7 136.0L424.6 135.8L424.5 135.7L424.3 135.6L424.2 135.5L424.1 135.4L423.9 135.2L423.8 135.1L423.7 135.0L423.6 134.9L423.4 134.8L423.3 134.6L423.2 134.5L423.0 134.4L422.9 134.3L422.8 134.2L422.6 134.0L422.5 133.9L422.3 133.8L422.2 133.7L422.1 133.6L421.9 133.5L421.8 133.3L421.7 133.2L421.5 133.1L421.4 133.0L421.2 132.9L421.1 132.8L421.0 132.6L420.8 132.5L420.7 132.4L420.5 132.3L420.4 132.2L420.3 132.1L420.1 131.9L420.0 131.8L419.8 131.7L419.7 131.6L419.5 131.5L419.4 131.4L419.2 131.2L419.1 131.1L418.9 131.0L418.8 130.9L418.7 130.8L418.5 130.7L418.4 130.6L418.2 130.4L418.1 130.3L417.9 130.2L417.8 130.1L417.6 130.0L417.5 129.9L417.3 129.8L417.1 129.7L417.0 129.5L416.8 129.4L416.7 129.3L416.5 129.2L416.4 129.1L416.2 129.0L416.1 128.9L415.9 128.8L415.8 128.6L415.6 128.5L415.4 128.4L415.3 128.3L415.1 128.2L415.0 128.1L414.8 128.0L414.6 127.9L414.5 127.8L414.3 127.7L414.2 127.5L414.0 127.4L413.8 127.3L413.7 127.2L413.5 127.1L413.4 127.0L413.2 126.9L413.0 126.8L412.9 126.7L412.7 126.6L412.5 126.5L412.4 126.4L412.2 126.3L412.0 126.1L411.9 126.0L411.7 125.9L411.5 125.8L411.4 125.7L411.2 125.6L411.0 125.5L410.9 125.4L410.7 125.3L410.5 125.2L410.3 125.1L410.2 125.0L410.0 124.9L409.8 124.8L409.7 124.7L409.5 124.6L409.3 124.5L409.1 124.4L409.0 124.2L408.8 124.1L408.6 124.0L408.4 123.9L408.3 123.8L408.1 123.7L407.9 123.6L407.7 123.5L407.6 123.4L407.4 123.3L407.2 123.2L407.0 123.1L406.8 123.0L406.7 122.9L406.5 122.8L406.3 122.7L406.1 122.6L405.9 122.5L405.8 122.4L405.6 122.3L405.4 122.2L405.2 122.1L405.0 122.0L404.9 121.9L404.7 121.8L404.5 121.7L404.3 121.6L404.1 121.5L403.9 121.4L403.7 121.3L403.6 121.2L403.4 121.1L403.2 121.0L403.0 120.9L402.8 120.8L402.6 120.7L402.4 120.7L402.2 120.6L402.1 120.5L401.9 120.4L401.7 120.3L401.5 120.2L401.3 120.1L401.1 120.0L400.9 119.9L400.7 119.8L400.5 119.7L400.3 119.6L400.1 119.5L399.9 119.4L399.8 119.3L399.6 119.2L399.4 119.1L399.2 119.0L399.0 119.0L398.8 118.9L398.6 118.8L398.4 118.7L398.2 118.6L398.0 118.5L397.8 118.4L397.6 118.3L397.4 118.2L397.2 118.1L397.0 118.0L396.8 117.9L396.6 117.9L396.4 117.8L396.2 117.7L396.0 117.6L395.8 117.5L395.6 117.4L395.4 117.3L395.2 117.2L395.0 117.1L394.8 117.1L394.6 117.0L394.4 116.9L394.2 116.8L394.0 116.7L393.8 116.6L393.6 116.5L393.4 116.4L393.2 116.4L393.0 116.3L392.7 116.2L392.5 116.1L392.3 116.0L392.1 115.9L391.9 115.8L391.7 115.8L391.5 115.7L391.3 115.6L391.1 115.5L390.9 115.4L390.7 115.3L390.5 115.3L390.2 115.2L390.0 115.1L389.8 115.0L389.6 114.9L389.4 114.8L389.2 114.8L389.0 114.7L388.8 114.6L388.6 114.5L388.3 114.4L388.1 114.4L387.9 114.3L387.7 114.2L387.5 114.1L387.3 114.0L387.1 114.0L386.8 113.9L386.6 113.8L386.4 113.7L386.2 113.6L386.0 113.6L385.8 113.5L385.5 113.4L385.3 113.3L385.1 113.3L384.9 113.2L384.7 113.1L384.5 113.0L384.2 113.0L384.0 112.9L383.8 112.8L383.6 112.7L383.4 112.6L383.1 112.6L382.9 112.5L382.7 112.4L382.5 112.3L382.2 112.3L382.0 112.2L381.8 112.1L381.6 112.1L381.4 112.0L381.1 111.9L380.9 111.8L380.7 111.8L380.5 111.7L380.2 111.6L380.0 111.5L379.8 111.5L379.6 111.4L379.3 111.3L379.1 111.3L378.9 111.2L378.7 111.1L378.4 111.1L378.2 111.0L378.0 110.9L377.8 110.8L377.5 110.8L377.3 110.7L377.1 110.6L376.8 110.6L376.6 110.5L376.4 110.4L376.1 110.4L375.9 110.3L375.7 110.2L375.5 110.2L375.2 110.1L375.0 110.0L374.8 110.0L374.5 109.9L374.3 109.8L374.1 109.8L373.8 109.7L373.6 109.6L373.4 109.6L373.1 109.5L372.9 109.4L372.7 109.4L372.4 109.3L372.2 109.3L372.0 109.2L371.7 109.1L371.5 109.1L371.3 109.0L371.0 108.9L370.8 108.9L370.6 108.8L370.3 108.8L370.1 108.7L369.9 108.6L369.6 108.6L369.4 108.5L369.1 108.5L368.9 108.4L368.7 108.3L368.4 108.3L368.2 108.2L368.0 108.2L367.7 108.1L367.5 108.0L367.2 108.0L367.0 107.9L366.8 107.9L366.5 107.8L366.3 107.8L366.0 107.7L365.8 107.6L365.6 107.6L365.3 107.5L365.1 107.5L364.8 107.4L364.6 107.4L364.4 107.3L364.1 107.3L363.9 107.2L363.6 107.2L363.4 107.1L363.1 107.1L362.9 107.0L362.7 106.9L362.4 106.9L362.2 106.8L361.9 106.8L361.7 106.7L361.4 106.7L361.2 106.6L361.0 106.6L360.7 106.5L360.5 106.5L360.2 106.4L360.0 106.4L359.7 106.3L359.5 106.3L359.2 106.2L359.0 106.2L358.7 106.1L358.5 106.1L358.3 106.0L358.0 106.0L357.8 105.9L357.5 105.9L357.3 105.9L357.0 105.8L356.8 105.8L356.5 105.7L356.3 105.7L356.0 105.6L355.8 105.6L355.5 105.5L355.3 105.5L355.0 105.4L354.8 105.4L354.5 105.4L354.3 105.3L354.0 105.3L353.8 105.2L353.5 105.2L353.3 105.1L353.0 105.1L352.8 105.1L352.5 105.0L352.3 105.0L352.0 104.9L351.8 104.9L351.5 104.9L351.3 104.8L351.0 104.8L350.8 104.7L350.5 104.7L350.3 104.7L350.0 104.6L349.8 104.6L349.5 104.5L349.3 104.5L349.0 104.5L348.7 104.4L348.5 104.4L348.2 104.4L348.0 104.3L347.7 104.3L347.5 104.2L347.2 104.2L347.0 104.2L346.7 104.1L346.5 104.1L346.2 104.1L346.0 104.0L345.7 104.0L345.4 104.0L345.2 103.9L344.9 103.9L344.7 103.9L344.4 103.8L344.2 103.8L343.9 103.8L343.7 103.7L343.4 103.7L343.1 103.7L342.9 103.7L342.6 103.6L342.4 103.6L342.1 103.6L341.9 103.5L341.6 103.5L341.3 103.5L341.1 103.4L340.8 103.4L340.6 103.4L340.3 103.4L340.1 103.3L339.8 103.3L339.5 103.3L339.3 103.2L339.0 103.2L338.8 103.2L338.5 103.2L338.3 103.1L338.0 103.1L337.7 103.1L337.5 103.1L337.2 103.0L337.0 103.0L336.7 103.0L336.4 103.0L336.2 102.9L335.9 102.9L335.7 102.9L335.4 102.9L335.2 102.9L334.9 102.8L334.6 102.8L334.4 102.8L334.1 102.8L333.9 102.7L333.6 102.7L333.3 102.7L333.1 102.7L332.8 102.7L332.6 102.6L332.3 102.6L332.0 102.6L331.8 102.6L331.5 102.6L331.3 102.6L331.0 102.5L330.7 102.5L330.5 102.5L330.2 102.5L329.9 102.5L329.7 102.5L329.4 102.4L329.2 102.4L328.9 102.4L328.6 102.4L328.4 102.4L328.1 102.4L327.9 102.3L327.6 102.3L327.3 102.3L327.1 102.3L326.8 102.3L326.5 102.3L326.3 102.3L326.0 102.3L325.8 102.2L325.5 102.2L325.2 102.2L325.0 102.2L324.7 102.2L324.5 102.2L324.2 102.2L323.9 102.2L323.7 102.2L323.4 102.1L323.1 102.1L322.9 102.1L322.6 102.1L322.4 102.1L322.1 102.1L321.8 102.1L321.6 102.1L321.3 102.1L321.0 102.1L320.8 102.1L320.5 102.1L320.3 102.1L320.0 102.1L319.7 102.0L319.5 102.0L319.2 102.0L318.9 102.0L318.7 102.0L318.4 102.0L318.2 102.0L317.9 102.0L317.6 102.0L317.4 102.0L317.1 102.0L316.8 102.0L316.6 102.0L316.3 102.0L316.1 102.0L315.8 102.0L315.5 102.0L315.3 102.0L315.0 102.0L314.7 102.0L314.5 102.0L314.2 102.0L313.9 102.0L313.7 102.0L313.4 102.0L313.2 102.0L312.9 102.0L312.6 102.0L312.4 102.0L312.1 102.0L311.8 102.0L311.6 102.0L311.3 102.0L311.1 102.0L310.8 102.0L310.5 102.0L310.3 102.0L310.0 102.1L309.7 102.1L309.5 102.1L309.2 102.1L309.0 102.1L308.7 102.1L308.4 102.1L308.2 102.1L307.9 102.1L307.6 102.1L307.4 102.1L307.1 102.1L306.9 102.1L306.6 102.1L306.3 102.2L306.1 102.2L305.8 102.2L305.5 102.2L305.3 102.2L305.0 102.2L304.8 102.2L304.5 102.2L304.2 102.2L304.0 102.3L303.7 102.3L303.5 102.3L303.2 102.3L302.9 102.3L302.7 102.3L302.4 102.3L302.1 102.3L301.9 102.4L301.6 102.4L301.4 102.4L301.1 102.4L300.8 102.4L300.6 102.4L300.3 102.5L300.1 102.5L299.8 102.5L299.5 102.5L299.3 102.5L299.0 102.5L298.7 102.6L298.5 102.6L298.2 102.6L298.0 102.6L297.7 102.6L297.4 102.6L297.2 102.7L296.9 102.7L296.7 102.7L296.4 102.7L296.1 102.7L295.9 102.8L295.6 102.8L295.4 102.8L295.1 102.8L294.8 102.9L294.6 102.9L294.3 102.9L294.1 102.9L293.8 102.9L293.6 103.0L293.3 103.0L293.0 103.0L292.8 103.0L292.5 103.1L292.3 103.1L292.0 103.1L291.7 103.1L291.5 103.2L291.2 103.2L291.0 103.2L290.7 103.2L290.5 103.3L290.2 103.3L289.9 103.3L289.7 103.4L289.4 103.4L289.2 103.4L288.9 103.4L288.7 103.5L288.4 103.5L288.1 103.5L287.9 103.6L287.6 103.6L287.4 103.6L287.1 103.7L286.9 103.7L286.6 103.7L286.3 103.7L286.1 103.8L285.8 103.8L285.6 103.8L285.3 103.9L285.1 103.9L284.8 103.9L284.6 104.0L284.3 104.0L284.0 104.0L283.8 104.1L283.5 104.1L283.3 104.1L283.0 104.2L282.8 104.2L282.5 104.2L282.3 104.3L282.0 104.3L281.8 104.4L281.5 104.4L281.3 104.4L281.0 104.5L280.7 104.5L280.5 104.5L280.2 104.6L280.0 104.6L279.7 104.7L279.5 104.7L279.2 104.7L279.0 104.8L278.7 104.8L278.5 104.9L278.2 104.9L278.0 104.9L277.7 105.0L277.5 105.0L277.2 105.1L277.0 105.1L276.7 105.1L276.5 105.2L276.2 105.2L276.0 105.3L275.7 105.3L275.5 105.4L275.2 105.4L275.0 105.4L274.7 105.5L274.5 105.5L274.2 105.6L274.0 105.6L273.7 105.7L273.5 105.7L273.2 105.8L273.0 105.8L272.7 105.9L272.5 105.9L272.2 105.9L272.0 106.0L271.7 106.0L271.5 106.1L271.3 106.1L271.0 106.2L270.8 106.2L270.5 106.3L270.3 106.3L270.0 106.4L269.8 106.4L269.5 106.5L269.3 106.5L269.0 106.6L268.8 106.6L268.6 106.7L268.3 106.7L268.1 106.8L267.8 106.8L267.6 106.9L267.3 106.9L267.1 107.0L266.9 107.1L266.6 107.1L266.4 107.2L266.1 107.2L265.9 107.3L265.6 107.3L265.4 107.4L265.2 107.4L264.9 107.5L264.7 107.5L264.4 107.6L264.2 107.6L264.0 107.7L263.7 107.8L263.5 107.8L263.2 107.9L263.0 107.9L262.8 108.0L262.5 108.0L262.3 108.1L262.0 108.2L261.8 108.2L261.6 108.3L261.3 108.3L261.1 108.4L260.9 108.5L260.6 108.5L260.4 108.6L260.1 108.6L259.9 108.7L259.7 108.8L259.4 108.8L259.2 108.9L259.0 108.9L258.7 109.0L258.5 109.1L258.3 109.1L258.0 109.2L257.8 109.3L257.6 109.3L257.3 109.4L257.1 109.4L256.9 109.5L256.6 109.6L256.4 109.6L256.2 109.7L255.9 109.8L255.7 109.8L255.5 109.9L255.2 110.0L255.0 110.0L254.8 110.1L254.5 110.2L254.3 110.2L254.1 110.3L253.9 110.4L253.6 110.4L253.4 110.5L253.2 110.6L252.9 110.6L252.7 110.7L252.5 110.8L252.3 110.8L252.0 110.9L251.8 111.0L251.6 111.1L251.3 111.1L251.1 111.2L250.9 111.3L250.7 111.3L250.4 111.4L250.2 111.5L250.0 111.5L249.8 111.6L249.5 111.7L249.3 111.8L249.1 111.8L248.9 111.9L248.6 112.0L248.4 112.1L248.2 112.1L248.0 112.2L247.8 112.3L247.5 112.3L247.3 112.4L247.1 112.5L246.9 112.6L246.6 112.6L246.4 112.7L246.2 112.8L246.0 112.9L245.8 113.0L245.5 113.0L245.3 113.1L245.1 113.2L244.9 113.3L244.7 113.3L244.5 113.4L244.2 113.5L244.0 113.6L243.8 113.6L243.6 113.7L243.4 113.8L243.2 113.9L242.9 114.0L242.7 114.0L242.5 114.1L242.3 114.2L242.1 114.3L241.9 114.4L241.7 114.4L241.4 114.5L241.2 114.6L241.0 114.7L240.8 114.8L240.6 114.8L240.4 114.9L240.2 115.0L240.0 115.1L239.8 115.2L239.5 115.3L239.3 115.3L239.1 115.4L238.9 115.5L238.7 115.6L238.5 115.7L238.3 115.8L238.1 115.8L237.9 115.9L237.7 116.0L237.5 116.1L237.3 116.2L237.0 116.3L236.8 116.4L236.6 116.4L236.4 116.5L236.2 116.6L236.0 116.7L235.8 116.8L235.6 116.9L235.4 117.0L235.2 117.1L235.0 117.1L234.8 117.2L234.6 117.3L234.4 117.4L234.2 117.5L234.0 117.6L233.8 117.7L233.6 117.8L233.4 117.9L233.2 117.9L233.0 118.0L232.8 118.1L232.6 118.2L232.4 118.3L232.2 118.4L232.0 118.5L231.8 118.6L231.6 118.7L231.4 118.8L231.2 118.9L231.0 119.0L230.8 119.0L230.6 119.1L230.4 119.2L230.2 119.3L230.1 119.4L229.9 119.5L229.7 119.6L229.5 119.7L229.3 119.8L229.1 119.9L228.9 120.0L228.7 120.1L228.5 120.2L228.3 120.3L228.1 120.4L227.9 120.5L227.8 120.6L227.6 120.7L227.4 120.7L227.2 120.8L227.0 120.9L226.8 121.0L226.6 121.1L226.4 121.2L226.3 121.3L226.1 121.4L225.9 121.5L225.7 121.6L225.5 121.7L225.3 121.8L225.1 121.9L225.0 122.0L224.8 122.1L224.6 122.2L224.4 122.3L224.2 122.4L224.1 122.5L223.9 122.6L223.7 122.7L223.5 122.8L223.3 122.9L223.2 123.0L223.0 123.1L222.8 123.2L222.6 123.3L222.4 123.4L222.3 123.5L222.1 123.6L221.9 123.7L221.7 123.8L221.6 123.9L221.4 124.0L221.2 124.1L221.0 124.2L220.9 124.4L220.7 124.5L220.5 124.6L220.3 124.7L220.2 124.8L220.0 124.9L219.8 125.0L219.7 125.1L219.5 125.2L219.3 125.3L219.1 125.4L219.0 125.5L218.8 125.6L218.6 125.7L218.5 125.8L218.3 125.9L218.1 126.0L218.0 126.1L217.8 126.3L217.6 126.4L217.5 126.5L217.3 126.6L217.1 126.7L217.0 126.8L216.8 126.9L216.6 127.0L216.5 127.1L216.3 127.2L216.2 127.3L216.0 127.4L215.8 127.5L215.7 127.7L215.5 127.8L215.4 127.9L215.2 128.0L215.0 128.1L214.9 128.2L214.7 128.3L214.6 128.4L214.4 128.5L214.2 128.6L214.1 128.8L213.9 128.9L213.8 129.0L213.6 129.1L213.5 129.2L213.3 129.3L213.2 129.4L213.0 129.5L212.9 129.7L212.7 129.8L212.5 129.9L212.4 130.0L212.2 130.1L212.1 130.2L211.9 130.3L211.8 130.4L211.6 130.6L211.5 130.7L211.3 130.8L211.2 130.9L211.1 131.0L210.9 131.1L210.8 131.2L210.6 131.4L210.5 131.5L210.3 131.6L210.2 131.7L210.0 131.8L209.9 131.9L209.7 132.1L209.6 132.2L209.5 132.3L209.3 132.4L209.2 132.5L209.0 132.6L208.9 132.8L208.8 132.9L208.6 133.0L208.5 133.1L208.3 133.2L208.2 133.3L208.1 133.5L207.9 133.6L207.8 133.7L207.7 133.8L207.5 133.9L207.4 134.0L207.2 134.2L207.1 134.3L207.0 134.4L206.8 134.5L206.7 134.6L206.6 134.8L206.4 134.9L206.3 135.0L206.2 135.1L206.1 135.2L205.9 135.4L205.8 135.5L205.7 135.6L205.5 135.7L205.4 135.8L205.3 136.0L205.2 136.1L205.0 136.2L204.9 136.3L204.8 136.4L204.6 136.6L204.5 136.7L204.4 136.8L204.3 136.9L204.1 137.1L204.0 137.2L203.9 137.3L203.8 137.4L203.7 137.5L203.5 137.7L203.4 137.8L203.3 137.9L203.2 138.0L203.1 138.2L202.9 138.3L202.8 138.4L202.7 138.5L202.6 138.7L202.5 138.8L202.4 138.9L202.2 139.0L202.1 139.2L202.0 139.3L201.9 139.4L201.8 139.5L201.7 139.6L201.6 139.8L201.4 139.9L201.3 140.0L201.2 140.1L201.1 140.3L201.0 140.4L200.9 140.5L200.8 140.7L200.7 140.8L200.6 140.9L200.5 141.0L200.4 141.2L200.2 141.3L200.1 141.4L200.0 141.5L199.9 141.7L199.8 141.8L199.7 141.9L199.6 142.0L199.5 142.2L199.4 142.3L199.3 142.4L199.2 142.6L199.1 142.7L199.0 142.8L198.9 142.9L198.8 143.1L198.7 143.2L198.6 143.3L198.5 143.4L198.4 143.6L198.3 143.7L198.2 143.8L198.1 144.0L198.0 144.1L197.9 144.2L197.8 144.3L197.7 144.5L197.6 144.6L197.6 144.7L197.5 144.9L197.4 145.0L197.3 145.1L197.2 145.3L197.1 145.4L197.0 145.5L196.9 145.6L196.8 145.8L196.7 145.9L196.7 146.0L196.6 146.2L196.5 146.3L196.4 146.4L196.3 146.6L196.2 146.7L196.1 146.8L196.1 146.9L196.0 147.1L195.9 147.2L195.8 147.3L195.7 147.5L195.6 147.6L195.6 147.7L195.5 147.9L195.4 148.0L195.3 148.1L195.2 148.3L195.2 148.4L195.1 148.5L195.0 148.7L194.9 148.8L194.9 148.9L194.8 149.1L194.7 149.2L194.6 149.3L194.6 149.5L194.5 149.6L194.4 149.7L194.3 149.9L194.3 150.0L194.2 150.1L194.1 150.3L194.1 150.4L194.0 150.5L193.9 150.7L193.8 150.8L193.8 150.9L193.7 151.1L193.6 151.2L193.6 151.3L193.5 151.5L193.4 151.6L193.4 151.7L193.3 151.9L193.2 152.0L193.2 152.1L193.1 152.3L193.1 152.4L193.0 152.5L192.9 152.7L192.9 152.8L192.8 152.9L192.8 153.1L192.7 153.2L192.6 153.3L192.6 153.5L192.5 153.6L192.5 153.7L192.4 153.9L192.4 154.0L192.3 154.1L192.2 154.3L192.2 154.4L192.1 154.5L192.1 154.7L192.0 154.8L192.0 155.0L191.9 155.1L191.9 155.2L191.8 155.4L191.8 155.5L191.7 155.6L191.7 155.8L191.6 155.9L191.6 156.0L191.5 156.2L191.5 156.3L191.4 156.4L191.4 156.6L191.3 156.7L191.3 156.9L191.3 157.0L191.2 157.1L191.2 157.3L191.1 157.4L191.1 157.5L191.0 157.7L191.0 157.8L191.0 157.9L190.9 158.1L190.9 158.2L190.8 158.4L190.8 158.5L190.8 158.6L190.7 158.8L190.7 158.9L190.7 159.0L190.6 159.2L190.6 159.3L190.6 159.5L190.5 159.6L190.5 159.7L190.5 159.9L190.4 160.0L190.4 160.1L190.4 160.3L190.3 160.4L190.3 160.6L190.3 160.7L190.2 160.8L190.2 161.0L190.2 161.1L190.2 161.2L190.1 161.4L190.1 161.5L190.1 161.7L190.1 161.8L190.0 161.9L190.0 162.1L190.0 162.2L190.0 162.3L189.9 162.5L189.9 162.6L189.9 162.8L189.9 162.9L189.9 163.0L189.8 163.2L189.8 163.3L189.8 163.4L189.8 163.6L189.8 163.7L189.7 163.9L189.7 164.0L189.7 164.1L189.7 164.3L189.7 164.4L189.7 164.5L189.7 164.7L189.6 164.8L189.6 165.0L189.6 165.1L189.6 165.2L189.6 165.4L189.6 165.5L189.6 165.7L189.6 165.8L189.6 165.9L189.6 166.1L189.5 166.2L189.5 166.3L189.5 166.5L189.5 166.6L189.5 166.8L189.5 166.9L189.5 167.0L189.5 167.2L189.5 167.3L189.5 167.4L189.5 167.6L189.5 167.7L189.5 167.9L189.5 168.0L189.5 168.1L189.5 168.3L189.5 168.4L189.5 168.6L189.5 168.7L189.5 168.8L189.5 169.0L189.5 169.1L189.5 169.2L189.5 169.4L189.5 169.5L189.5 169.7L189.5 169.8L189.6 169.9L189.6 170.1L189.6 170.2L189.6 170.3L189.6 170.5L189.6 170.6L189.6 170.8L189.6 170.9L189.6 171.0L189.6 171.2L189.7 171.3L189.7 171.5L189.7 171.6L189.7 171.7L189.7 171.9L189.7 172.0L189.7 172.1L189.8 172.3L189.8 172.4L189.8 172.6L189.8 172.7L189.8 172.8L189.9 173.0L189.9 173.1L189.9 173.2L189.9 173.4L189.9 173.5L190.0 173.7L190.0 173.8L190.0 173.9L190.0 174.1L190.1 174.2L190.1 174.3L190.1 174.5L190.1 174.6L190.2 174.8L190.2 174.9L190.2 175.0L190.2 175.2L190.3 175.3L190.3 175.4L190.3 175.6L190.4 175.7L190.4 175.9L190.4 176.0L190.5 176.1L190.5 176.3L190.5 176.4L190.6 176.5L190.6 176.7L190.6 176.8L190.7 177.0L190.7 177.1L190.7 177.2L190.8 177.4L190.8 177.5L190.8 177.6L190.9 177.8L190.9 177.9L191.0 178.1L191.0 178.2L191.0 178.3L191.1 178.5L191.1 178.6L191.2 178.7L191.2 178.9L191.3 179.0L191.3 179.1L191.3 179.3L191.4 179.4L191.4 179.6L191.5 179.7L191.5 179.8L191.6 180.0L191.6 180.1L191.7 180.2L191.7 180.4L191.8 180.5L191.8 180.6L191.9 180.8L191.9 180.9L192.0 181.0L192.0 181.2L192.1 181.3L192.1 181.5L192.2 181.6L192.2 181.7L192.3 181.9L192.4 182.0L192.4 182.1L192.5 182.3L192.5 182.4L192.6 182.5L192.6 182.7L192.7 182.8L192.8 182.9L192.8 183.1L192.9 183.2L192.9 183.3L193.0 183.5L193.1 183.6L193.1 183.7L193.2 183.9L193.2 184.0L193.3 184.1L193.4 184.3L193.4 184.4L193.5 184.5L193.6 184.7L193.6 184.8L193.7 184.9L193.8 185.1L193.8 185.2L193.9 185.3L194.0 185.5L194.1 185.6L194.1 185.7L194.2 185.9L194.3 186.0L194.3 186.1L194.4 186.3L194.5 186.4L194.6 186.5L194.6 186.7L194.7 186.8L194.8 186.9L194.9 187.1L194.9 187.2L195.0 187.3L195.1 187.5L195.2 187.6L195.2 187.7L195.3 187.9L195.4 188.0L195.5 188.1L195.6 188.3L195.6 188.4L195.7 188.5L195.8 188.7L195.9 188.8L196.0 188.9L196.1 189.1L196.1 189.2L196.2 189.3L196.3 189.4L196.4 189.6L196.5 189.7L196.6 189.8L196.7 190.0L196.7 190.1L196.8 190.2L196.9 190.4L197.0 190.5L197.1 190.6L197.2 190.7L197.3 190.9L197.4 191.0L197.5 191.1L197.6 191.3L197.6 191.4L197.7 191.5L197.8 191.7L197.9 191.8L198.0 191.9L198.1 192.0L198.2 192.2L198.3 192.3L198.4 192.4L198.5 192.6L198.6 192.7L198.7 192.8L198.8 192.9L198.9 193.1L199.0 193.2L199.1 193.3L199.2 193.4L199.3 193.6L199.4 193.7L199.5 193.8L199.6 194.0L199.7 194.1L199.8 194.2L199.9 194.3L200.0 194.5L200.1 194.6L200.2 194.7L200.4 194.8L200.5 195.0L200.6 195.1L200.7 195.2L200.8 195.3L200.9 195.5L201.0 195.6L201.1 195.7L201.2 195.9L201.3 196.0L201.4 196.1L201.6 196.2L201.7 196.4L201.8 196.5L201.9 196.6L202.0 196.7L202.1 196.8L202.2 197.0L202.4 197.1L202.5 197.2L202.6 197.3L202.7 197.5L202.8 197.6L202.9 197.7L203.1 197.8L203.2 198.0L203.3 198.1L203.4 198.2L203.5 198.3L203.7 198.5L203.8 198.6L203.9 198.7L204.0 198.8L204.1 198.9L204.3 199.1L204.4 199.2L204.5 199.3L204.6 199.4L204.8 199.6L204.9 199.7L205.0 199.8L205.2 199.9L205.3 200.0L205.4 200.2L205.5 200.3L205.7 200.4L205.8 200.5L205.9 200.6L206.1 200.8L206.2 200.9L206.3 201.0L206.4 201.1L206.6 201.2L206.7 201.4L206.8 201.5L207.0 201.6L207.1 201.7L207.2 201.8L207.4 202.0L207.5 202.1L207.7 202.2L207.8 202.3L207.9 202.4L208.1 202.5L208.2 202.7L208.3 202.8L208.5 202.9L208.6 203.0L208.8 203.1L208.9 203.2L209.0 203.4L209.2 203.5L209.3 203.6L209.5 203.7L209.6 203.8L209.7 203.9L209.9 204.1L210.0 204.2L210.2 204.3L210.3 204.4L210.5 204.5L210.6 204.6L210.8 204.8L210.9 204.9L211.1 205.0L211.2 205.1L211.3 205.2L211.5 205.3L211.6 205.4L211.8 205.6L211.9 205.7L212.1 205.8L212.2 205.9L212.4 206.0L212.5 206.1L212.7 206.2L212.9 206.3L213.0 206.5L213.2 206.6L213.3 206.7L213.5 206.8L213.6 206.9L213.8 207.0L213.9 207.1L214.1 207.2L214.2 207.4L214.4 207.5L214.6 207.6L214.7 207.7L214.9 207.8L215.0 207.9L215.2 208.0L215.4 208.1L215.5 208.2L215.7 208.3L215.8 208.5L216.0 208.6L216.2 208.7L216.3 208.8L216.5 208.9L216.6 209.0L216.8 209.1L217.0 209.2L217.1 209.3L217.3 209.4L217.5 209.5L217.6 209.6L217.8 209.7L218.0 209.9L218.1 210.0L218.3 210.1L218.5 210.2L218.6 210.3L218.8 210.4L219.0 210.5L219.1 210.6L219.3 210.7L219.5 210.8L219.7 210.9L219.8 211.0L220.0 211.1L220.2 211.2L220.3 211.3L220.5 211.4L220.7 211.5L220.9 211.6L221.0 211.8L221.2 211.9L221.4 212.0L221.6 212.1L221.7 212.2L221.9 212.3L222.1 212.4L222.3 212.5L222.4 212.6L222.6 212.7L222.8 212.8L223.0 212.9L223.2 213.0L223.3 213.1L223.5 213.2L223.7 213.3L223.9 213.4L224.1 213.5L224.2 213.6L224.4 213.7L224.6 213.8L224.8 213.9L225.0 214.0L225.1 214.1L225.3 214.2L225.5 214.3L225.7 214.4L225.9 214.5L226.1 214.6L226.3 214.7L226.4 214.8L226.6 214.9L226.8 215.0L227.0 215.1L227.2 215.2L227.4 215.3L227.6 215.3L227.8 215.4L227.9 215.5L228.1 215.6L228.3 215.7L228.5 215.8L228.7 215.9L228.9 216.0L229.1 216.1L229.3 216.2L229.5 216.3L229.7 216.4L229.9 216.5L230.1 216.6L230.2 216.7L230.4 216.8L230.6 216.9L230.8 217.0L231.0 217.0L231.2 217.1L231.4 217.2L231.6 217.3L231.8 217.4L232.0 217.5L232.2 217.6L232.4 217.7L232.6 217.8L232.8 217.9L233.0 218.0L233.2 218.1L233.4 218.1L233.6 218.2L233.8 218.3L234.0 218.4L234.2 218.5L234.4 218.6L234.6 218.7L234.8 218.8L235.0 218.9L235.2 218.9L235.4 219.0L235.6 219.1L235.8 219.2L236.0 219.3L236.2 219.4L236.4 219.5L236.6 219.6L236.8 219.6L237.0 219.7L237.3 219.8L237.5 219.9L237.7 220.0L237.9 220.1L238.1 220.2L238.3 220.2L238.5 220.3L238.7 220.4L238.9 220.5L239.1 220.6L239.3 220.7L239.5 220.7L239.8 220.8L240.0 220.9L240.2 221.0L240.4 221.1L240.6 221.2L240.8 221.2L241.0 221.3L241.2 221.4L241.4 221.5L241.7 221.6L241.9 221.6L242.1 221.7L242.3 221.8L242.5 221.9L242.7 222.0L242.9 222.0L243.2 222.1L243.4 222.2L243.6 222.3L243.8 222.4L244.0 222.4L244.2 222.5L244.5 222.6L244.7 222.7L244.9 222.7L245.1 222.8L245.3 222.9L245.5 223.0L245.8 223.0L246.0 223.1L246.2 223.2L246.4 223.3L246.6 223.4L246.9 223.4L247.1 223.5L247.3 223.6L247.5 223.7L247.8 223.7L248.0 223.8L248.2 223.9L248.4 223.9L248.6 224.0L248.9 224.1L249.1 224.2L249.3 224.2L249.5 224.3L249.8 224.4L250.0 224.5L250.2 224.5L250.4 224.6L250.7 224.7L250.9 224.7L251.1 224.8L251.3 224.9L251.6 224.9L251.8 225.0L252.0 225.1L252.2 225.2L252.5 225.2L252.7 225.3L252.9 225.4L253.2 225.4L253.4 225.5L253.6 225.6L253.9 225.6L254.1 225.7L254.3 225.8L254.5 225.8L254.8 225.9L255.0 226.0L255.2 226.0L255.5 226.1L255.7 226.2L255.9 226.2L256.2 226.3L256.4 226.4L256.6 226.4L256.9 226.5L257.1 226.6L257.3 226.6L257.6 226.7L257.8 226.7L258.0 226.8L258.3 226.9L258.5 226.9L258.7 227.0L259.0 227.1L259.2 227.1L259.4 227.2L259.7 227.2L259.9 227.3L260.1 227.4L260.4 227.4L260.6 227.5L260.9 227.5L261.1 227.6L261.3 227.7L261.6 227.7L261.8 227.8L262.0 227.8L262.3 227.9L262.5 228.0L262.8 228.0L263.0 228.1L263.2 228.1L263.5 228.2L263.7 228.2L264.0 228.3L264.2 228.4L264.4 228.4L264.7 228.5L264.9 228.5L265.2 228.6L265.4 228.6L265.6 228.7L265.9 228.7L266.1 228.8L266.4 228.8L266.6 228.9L266.9 228.9L267.1 229.0L267.3 229.1L267.6 229.1L267.8 229.2L268.1 229.2L268.3 229.3L268.6 229.3L268.8 229.4L269.0 229.4L269.3 229.5L269.5 229.5L269.8 229.6L270.0 229.6L270.3 229.7L270.5 229.7L270.8 229.8L271.0 229.8L271.3 229.9L271.5 229.9L271.7 230.0L272.0 230.0L272.2 230.1L272.5 230.1L272.7 230.1L273.0 230.2L273.2 230.2L273.5 230.3L273.7 230.3L274.0 230.4L274.2 230.4L274.5 230.5L274.7 230.5L275.0 230.6L275.2 230.6L275.5 230.6L275.7 230.7L276.0 230.7L276.2 230.8L276.5 230.8L276.7 230.9L277.0 230.9L277.2 230.9L277.5 231.0L277.7 231.0L278.0 231.1L278.2 231.1L278.5 231.1L278.7 231.2L279.0 231.2L279.2 231.3L279.5 231.3L279.7 231.3L280.0 231.4L280.2 231.4L280.5 231.5L280.7 231.5L281.0 231.5L281.3 231.6L281.5 231.6L281.8 231.6L282.0 231.7L282.3 231.7L282.5 231.8L282.8 231.8L283.0 231.8L283.3 231.9L283.5 231.9L283.8 231.9L284.0 232.0L284.3 232.0L284.6 232.0L284.8 232.1L285.1 232.1L285.3 232.1L285.6 232.2L285.8 232.2L286.1 232.2L286.3 232.3L286.6 232.3L286.9 232.3L287.1 232.3L287.4 232.4L287.6 232.4L287.9 232.4L288.1 232.5L288.4 232.5L288.7 232.5L288.9 232.6L289.2 232.6L289.4 232.6L289.7 232.6L289.9 232.7L290.2 232.7L290.5 232.7L290.7 232.8L291.0 232.8L291.2 232.8L291.5 232.8L291.7 232.9L292.0 232.9L292.3 232.9L292.5 232.9L292.8 233.0L293.0 233.0L293.3 233.0L293.6 233.0L293.8 233.1L294.1 233.1L294.3 233.1L294.6 233.1L294.8 233.1L295.1 233.2L295.4 233.2L295.6 233.2L295.9 233.2L296.1 233.3L296.4 233.3L296.7 233.3L296.9 233.3L297.2 233.3L297.4 233.4L297.7 233.4L298.0 233.4L298.2 233.4L298.5 233.4L298.7 233.4L299.0 233.5L299.3 233.5L299.5 233.5L299.8 233.5L300.1 233.5L300.3 233.5L300.6 233.6L300.8 233.6L301.1 233.6L301.4 233.6L301.6 233.6L301.9 233.6L302.1 233.7L302.4 233.7L302.7 233.7L302.9 233.7L303.2 233.7L303.5 233.7L303.7 233.7L304.0 233.7L304.2 233.8L304.5 233.8L304.8 233.8L305.0 233.8L305.3 233.8L305.5 233.8L305.8 233.8L306.1 233.8L306.3 233.8L306.6 233.9L306.9 233.9L307.1 233.9L307.4 233.9L307.6 233.9L307.9 233.9L308.2 233.9L308.4 233.9L308.7 233.9L309.0 233.9L309.2 233.9L309.5 233.9L309.7 233.9L310.0 233.9L310.3 234.0L310.5 234.0L310.8 234.0L311.1 234.0L311.3 234.0L311.6 234.0L311.8 234.0L312.1 234.0L312.4 234.0L312.6 234.0L312.9 234.0L313.2 234.0L313.4 234.0L313.7 234.0L313.9 234.0L314.2 234.0L314.5 234.0L314.7 234.0L315.0 234.0L315.3 234.0L315.5 234.0L315.8 234.0L316.1 234.0L316.3 234.0L316.6 234.0L316.8 234.0L317.1 234.0L317.4 234.0L317.6 234.0L317.9 234.0L318.2 234.0L318.4 234.0L318.7 234.0L318.9 234.0L319.2 234.0L319.5 234.0L319.7 234.0L320.0 233.9L320.3 233.9L320.5 233.9L320.8 233.9L321.0 233.9L321.3 233.9L321.6 233.9L321.8 233.9L322.1 233.9L322.4 233.9L322.6 233.9L322.9 233.9L323.1 233.9L323.4 233.9L323.7 233.8L323.9 233.8L324.2 233.8L324.5 233.8L324.7 233.8L325.0 233.8L325.2 233.8L325.5 233.8L325.8 233.8L326.0 233.7L326.3 233.7L326.5 233.7L326.8 233.7L327.1 233.7L327.3 233.7L327.6 233.7L327.9 233.7L328.1 233.6L328.4 233.6L328.6 233.6L328.9 233.6L329.2 233.6L329.4 233.6L329.7 233.5L329.9 233.5L330.2 233.5L330.5 233.5L330.7 233.5L331.0 233.5L331.3 233.4L331.5 233.4L331.8 233.4L332.0 233.4L332.3 233.4L332.6 233.4L332.8 233.3L333.1 233.3L333.3 233.3L333.6 233.3L333.9 233.3L334.1 233.2L334.4 233.2L334.6 233.2L334.9 233.2L335.2 233.1L335.4 233.1L335.7 233.1L335.9 233.1L336.2 233.1L336.4 233.0L336.7 233.0L337.0 233.0L337.2 233.0L337.5 232.9L337.7 232.9L338.0 232.9L338.3 232.9L338.5 232.8L338.8 232.8L339.0 232.8L339.3 232.8L339.5 232.7L339.8 232.7L340.1 232.7L340.3 232.6L340.6 232.6L340.8 232.6L341.1 232.6L341.3 232.5L341.6 232.5L341.9 232.5L342.1 232.4L342.4 232.4L342.6 232.4L342.9 232.3L343.1 232.3L343.4 232.3L343.7 232.3L343.9 232.2L344.2 232.2L344.4 232.2L344.7 232.1L344.9 232.1L345.2 232.1L345.4 232.0L345.7 232.0L346.0 232.0L346.2 231.9L346.5 231.9L346.7 231.9L347.0 231.8L347.2 231.8L347.5 231.8L347.7 231.7L348.0 231.7L348.2 231.6L348.5 231.6L348.7 231.6L349.0 231.5L349.3 231.5L349.5 231.5L349.8 231.4L350.0 231.4L350.3 231.3L350.5 231.3L350.8 231.3L351.0 231.2L351.3 231.2L351.5 231.1L351.8 231.1L352.0 231.1L352.3 231.0L352.5 231.0L352.8 230.9L353.0 230.9L353.3 230.9L353.5 230.8L353.8 230.8L354.0 230.7L354.3 230.7L354.5 230.6L354.8 230.6L355.0 230.6L355.3 230.5L355.5 230.5L355.8 230.4L356.0 230.4L356.3 230.3L356.5 230.3L356.8 230.2L357.0 230.2L357.3 230.1L357.5 230.1L357.8 230.1L358.0 230.0L358.3 230.0L358.5 229.9L358.7 229.9L359.0 229.8L359.2 229.8L359.5 229.7L359.7 229.7L360.0 229.6L360.2 229.6L360.5 229.5L360.7 229.5L361.0 229.4L361.2 229.4L361.4 229.3L361.7 229.3L361.9 229.2L362.2 229.2L362.4 229.1L362.7 229.1L362.9 229.0L363.1 228.9L363.4 228.9L363.6 228.8L363.9 228.8L364.1 228.7L364.4 228.7L364.6 228.6L364.8 228.6L365.1 228.5L365.3 228.5L365.6 228.4L365.8 228.4L366.0 228.3L366.3 228.2L366.5 228.2L366.8 228.1L367.0 228.1L367.2 228.0L367.5 228.0L367.7 227.9L368.0 227.8L368.2 227.8L368.4 227.7L368.7 227.7L368.9 227.6L369.1 227.5L369.4 227.5L369.6 227.4L369.9 227.4L370.1 227.3L370.3 227.2L370.6 227.2L370.8 227.1L371.0 227.1L371.3 227.0L371.5 226.9L371.7 226.9L372.0 226.8L372.2 226.7L372.4 226.7L372.7 226.6L372.9 226.6L373.1 226.5L373.4 226.4L373.6 226.4L373.8 226.3L374.1 226.2L374.3 226.2L374.5 226.1L374.8 226.0L375.0 226.0L375.2 225.9L375.5 225.8L375.7 225.8L375.9 225.7L376.1 225.6L376.4 225.6L376.6 225.5L376.8 225.4L377.1 225.4L377.3 225.3L377.5 225.2L377.8 225.2L378.0 225.1L378.2 225.0L378.4 224.9L378.7 224.9L378.9 224.8L379.1 224.7L379.3 224.7L379.6 224.6L379.8 224.5L380.0 224.5L380.2 224.4L380.5 224.3L380.7 224.2L380.9 224.2L381.1 224.1L381.4 224.0L381.6 223.9L381.8 223.9L382.0 223.8L382.2 223.7L382.5 223.7L382.7 223.6L382.9 223.5L383.1 223.4L383.4 223.4L383.6 223.3L383.8 223.2L384.0 223.1L384.2 223.0L384.5 223.0L384.7 222.9L384.9 222.8L385.1 222.7L385.3 222.7L385.5 222.6L385.8 222.5L386.0 222.4L386.2 222.4L386.4 222.3L386.6 222.2L386.8 222.1L387.1 222.0L387.3 222.0L387.5 221.9L387.7 221.8L387.9 221.7L388.1 221.6L388.3 221.6L388.6 221.5L388.8 221.4L389.0 221.3L389.2 221.2L389.4 221.2L389.6 221.1L389.8 221.0L390.0 220.9L390.2 220.8L390.5 220.7L390.7 220.7L390.9 220.6L391.1 220.5L391.3 220.4L391.5 220.3L391.7 220.2L391.9 220.2L392.1 220.1L392.3 220.0L392.5 219.9L392.7 219.8L393.0 219.7L393.2 219.6L393.4 219.6L393.6 219.5L393.8 219.4L394.0 219.3L394.2 219.2L394.4 219.1L394.6 219.0L394.8 218.9L395.0 218.9L395.2 218.8L395.4 218.7L395.6 218.6L395.8 218.5L396.0 218.4L396.2 218.3L396.4 218.2L396.6 218.1L396.8 218.1L397.0 218.0L397.2 217.9L397.4 217.8L397.6 217.7L397.8 217.6L398.0 217.5L398.2 217.4L398.4 217.3L398.6 217.2L398.8 217.1L399.0 217.0L399.2 217.0L399.4 216.9L399.6 216.8L399.8 216.7L399.9 216.6L400.1 216.5L400.3 216.4L400.5 216.3L400.7 216.2L400.9 216.1L401.1 216.0L401.3 215.9L401.5 215.8L401.7 215.7L401.9 215.6L402.1 215.5L402.2 215.4L402.4 215.3L402.6 215.3L402.8 215.2L403.0 215.1L403.2 215.0L403.4 214.9L403.6 214.8L403.7 214.7L403.9 214.6L404.1 214.5L404.3 214.4L404.5 214.3L404.7 214.2L404.9 214.1L405.0 214.0L405.2 213.9L405.4 213.8L405.6 213.7L405.8 213.6L405.9 213.5L406.1 213.4L406.3 213.3L406.5 213.2L406.7 213.1L406.8 213.0L407.0 212.9L407.2 212.8L407.4 212.7L407.6 212.6L407.7 212.5L407.9 212.4L408.1 212.3L408.3 212.2L408.4 212.1L408.6 212.0L408.8 211.9L409.0 211.8L409.1 211.6L409.3 211.5L409.5 211.4L409.7 211.3L409.8 211.2L410.0 211.1L410.2 211.0L410.3 210.9L410.5 210.8L410.7 210.7L410.9 210.6L411.0 210.5L411.2 210.4L411.4 210.3L411.5 210.2L411.7 210.1L411.9 210.0L412.0 209.9L412.2 209.7L412.4 209.6L412.5 209.5L412.7 209.4L412.9 209.3L413.0 209.2L413.2 209.1L413.4 209.0L413.5 208.9L413.7 208.8L413.8 208.7L414.0 208.6L414.2 208.5L414.3 208.3L414.5 208.2L414.6 208.1L414.8 208.0L415.0 207.9L415.1 207.8L415.3 207.7L415.4 207.6L415.6 207.5L415.8 207.4L415.9 207.2L416.1 207.1L416.2 207.0L416.4 206.9L416.5 206.8L416.7 206.7L416.8 206.6L417.0 206.5L417.1 206.3L417.3 206.2L417.5 206.1L417.6 206.0L417.8 205.9L417.9 205.8L418.1 205.7L418.2 205.6L418.4 205.4L418.5 205.3L418.7 205.2L418.8 205.1L418.9 205.0L419.1 204.9L419.2 204.8L419.4 204.6L419.5 204.5L419.7 204.4L419.8 204.3L420.0 204.2L420.1 204.1L420.3 203.9L420.4 203.8L420.5 203.7L420.7 203.6L420.8 203.5L421.0 203.4L421.1 203.2L421.2 203.1L421.4 203.0L421.5 202.9L421.7 202.8L421.8 202.7L421.9 202.5L422.1 202.4L422.2 202.3L422.3 202.2L422.5 202.1L422.6 202.0L422.8 201.8L422.9 201.7L423.0 201.6L423.2 201.5L423.3 201.4L423.4 201.2L423.6 201.1L423.7 201.0L423.8 200.9L423.9 200.8L424.1 200.6L424.2 200.5L424.3 200.4L424.5 200.3L424.6 200.2L424.7 200.0L424.8 199.9L425.0 199.8L425.1 199.7L425.2 199.6L425.4 199.4L425.5 199.3L425.6 199.2L425.7 199.1L425.9 198.9L426.0 198.8L426.1 198.7L426.2 198.6L426.3 198.5L426.5 198.3L426.6 198.2L426.7 198.1L426.8 198.0L426.9 197.8L427.1 197.7L427.2 197.6L427.3 197.5L427.4 197.3L427.5 197.2L427.6 197.1L427.8 197.0L427.9 196.8L428.0 196.7L428.1 196.6L428.2 196.5L428.3 196.4L428.4 196.2L428.6 196.1L428.7 196.0L428.8 195.9L428.9 195.7L429.0 195.6L429.1 195.5L429.2 195.3L429.3 195.2L429.4 195.1L429.5 195.0L429.6 194.8L429.8 194.7L429.9 194.6L430.0 194.5L430.1 194.3L430.2 194.2L430.3 194.1L430.4 194.0L430.5 193.8L430.6 193.7L430.7 193.6L430.8 193.4L430.9 193.3L431.0 193.2L431.1 193.1L431.2 192.9L431.3 192.8L431.4 192.7L431.5 192.6L431.6 192.4L431.7 192.3L431.8 192.2L431.9 192.0L432.0 191.9L432.1 191.8L432.2 191.7L432.3 191.5L432.4 191.4L432.4 191.3L432.5 191.1L432.6 191.0L432.7 190.9L432.8 190.7L432.9 190.6L433.0 190.5L433.1 190.4L433.2 190.2L433.3 190.1L433.3 190.0L433.4 189.8L433.5 189.7L433.6 189.6L433.7 189.4L433.8 189.3L433.9 189.2L433.9 189.1L434.0 188.9L434.1 188.8L434.2 188.7L434.3 188.5L434.4 188.4L434.4 188.3L434.5 188.1L434.6 188.0L434.7 187.9L434.8 187.7L434.8 187.6L434.9 187.5L435.0 187.3L435.1 187.2L435.1 187.1L435.2 186.9L435.3 186.8L435.4 186.7L435.4 186.5L435.5 186.4L435.6 186.3L435.7 186.1L435.7 186.0L435.8 185.9L435.9 185.7L435.9 185.6L436.0 185.5L436.1 185.3L436.2 185.2L436.2 185.1L436.3 184.9L436.4 184.8L436.4 184.7L436.5 184.5L436.6 184.4L436.6 184.3L436.7 184.1L436.8 184.0L436.8 183.9L436.9 183.7L436.9 183.6L437.0 183.5L437.1 183.3L437.1 183.2L437.2 183.1L437.2 182.9L437.3 182.8L437.4 182.7L437.4 182.5L437.5 182.4L437.5 182.3L437.6 182.1L437.6 182.0L437.7 181.9L437.8 181.7L437.8 181.6L437.9 181.5L437.9 181.3L438.0 181.2L438.0 181.0L438.1 180.9L438.1 180.8L438.2 180.6L438.2 180.5L438.3 180.4L438.3 180.2L438.4 180.1L438.4 180.0L438.5 179.8L438.5 179.7L438.6 179.6L438.6 179.4L438.7 179.3L438.7 179.1L438.7 179.0L438.8 178.9L438.8 178.7L438.9 178.6L438.9 178.5L439.0 178.3L439.0 178.2L439.0 178.1L439.1 177.9L439.1 177.8L439.2 177.6L439.2 177.5L439.2 177.4L439.3 177.2L439.3 177.1L439.3 177.0L439.4 176.8L439.4 176.7L439.4 176.5L439.5 176.4L439.5 176.3L439.5 176.1L439.6 176.0L439.6 175.9L439.6 175.7L439.7 175.6L439.7 175.4L439.7 175.3L439.8 175.2L439.8 175.0L439.8 174.9L439.8 174.8L439.9 174.6L439.9 174.5L439.9 174.3L439.9 174.2L440.0 174.1L440.0 173.9L440.0 173.8L440.0 173.7L440.1 173.5L440.1 173.4L440.1 173.2L440.1 173.1L440.1 173.0L440.2 172.8L440.2 172.7L440.2 172.6L440.2 172.4L440.2 172.3L440.3 172.1L440.3 172.0L440.3 171.9L440.3 171.7L440.3 171.6L440.3 171.5L440.3 171.3L440.4 171.2L440.4 171.0L440.4 170.9L440.4 170.8L440.4 170.6L440.4 170.5L440.4 170.3L440.4 170.2L440.4 170.1L440.4 169.9L440.5 169.8L440.5 169.7L440.5 169.5L440.5 169.4L440.5 169.2L440.5 169.1L440.5 169.0L440.5 168.8L440.5 168.7L440.5 168.6L440.5 168.4L440.5 168.3L440.5 168.1" fill="none" stroke="#ffb454" stroke-width="1.5"/><path d="M440.5 168.0L440.5 168.0L440.5 168.0L440.5 168.0L440.5 168.0L440.5 168.0L440.5 168.0L440.5 168.0L440.5 167.9L440.5 167.9L440.5 167.9L440.5 167.9L440.5 167.9L440.5 167.9L440.5 167.8L440.5 167.8L440.5 167.8L440.5 167.8L440.5 167.7L440.5 167.7L440.5 167.7L440.5 167.6L440.5 167.6L440.5 167.6L440.5 167.5L440.5 167.5L440.5 167.5L440.5 167.4L440.5 167.4L440.5 167.4L440.5 167.3L440.5 167.3L440.5 167.2L440.5 167.2L440.5 167.1L440.5 167.1L440.5 167.0L440.4 167.0L440.4 166.9L440.4 166.9L440.4 166.8L440.4 166.8L440.4 166.7L440.4 166.7L440.4 166.6L440.4 166.6L440.4 166.5L440.4 166.4L440.4 166.4L440.4 166.3L440.4 166.2L440.4 166.2L440.4 166.1L440.4 166.1L440.3 166.0L440.3 165.9L440.3 165.9L440.3 165.8L440.3 165.7L440.3 165.6L440.3 165.6L440.3 165.5L440.3 165.4L440.3 165.4L440.3 165.3L440.2 165.2L440.2 165.1L440.2 165.1L440.2 165.0L440.2 164.9L440.2 164.8L440.2 164.7L440.2 164.7L440.1 164.6L440.1 164.5L440.1 164.4L440.1 164.3L440.1 164.3L440.1 164.2L440.1 164.1L440.0 164.0L440.0 163.9L440.0 163.8L440.0 163.7L440.0 163.7L440.0 163.6L439.9 163.5L439.9 163.4L439.9 163.3L439.9 163.2L439.9 163.1L439.8 163.0L439.8 162.9L439.8 162.8L439.8 162.7L439.8 162.7L439.7 162.6L439.7 162.5L439.7 162.4L439.7 162.3L439.7 162.2L439.6 162.1L439.6 162.0L439.6 161.9L439.6 161.8L439.5 161.7L439.5 161.6L439.5 161.5L439.5 161.4L439.4 161.3L439.4 161.2L439.4 161.1L439.3 161.0L439.3 160.9L439.3 160.8L439.3 160.7L439.2 160.6L439.2 160.5L439.2 160.4L439.1 160.3L439.1 160.2L439.1 160.1L439.0 160.0L439.0 159.9L439.0 159.7L438.9 159.6L438.9 159.5L438.9 159.4L438.8 159.3L438.8 159.2L438.8 159.1L438.7 159.0L438.7 158.9L438.7 158.8L438.6 158.7L438.6 158.6L438.6 158.5L438.5 158.3L438.5 158.2L438.4 158.1L438.4 158.0L438.4 157.9L438.3 157.8L438.3 157.7L438.2 157.6L438.2 157.5L438.2 157.3L438.1 157.2L438.1 157.1L438.0 157.0L438.0 156.9L437.9 156.8L437.9 156.7L437.8 156.6L437.8 156.4L437.8 156.3L437.7 156.2L437.7 156.1L437.6 156.0L437.6 155.9L437.5 155.8L437.5 155.6L437.4 155.5L437.4 155.4L437.3 155.3L437.3 155.2L437.2 155.1L437.2 154.9L437.1 154.8L437.1 154.7L437.0 154.6L437.0 154.5L436.9 154.4L436.8 154.2L436.8 154.1L436.7 154.0L436.7 153.9L436.6 153.8L436.6 153.7L436.5 153.5L436.4 153.4L436.4 153.3L436.3 153.2L436.3 153.1L436.2 153.0L436.2 152.8L436.1 152.7L436.0 152.6L436.0 152.5L435.9 152.4L435.8 152.2L435.8 152.1L435.7 152.0L435.7 151.9L435.6 151.8L435.5 151.6L435.5 151.5L435.4 151.4L435.3 151.3L435.3 151.2L435.2 151.0L435.1 150.9L435.1 150.8L435.0 150.7L434.9 150.6L434.8 150.4L434.8 150.3L434.7 150.2L434.6 150.1L434.6 150.0L434.5 149.8L434.4 149.7L434.3 149.6L434.3 149.5L434.2 149.4L434.1 149.2L434.0 149.1L434.0 149.0L433.9 148.9L433.8 148.7L433.7 148.6L433.7 148.5L433.6 148.4L433.5 148.3L433.4 148.1L433.4 148.0L433.3 147.9L433.2 147.8L433.1 147.7L433.0 147.5L432.9 147.4L432.9 147.3L432.8 147.2L432.7 147.0L432.6 146.9L432.5 146.8L432.4 146.7L432.4 146.6L432.3 146.4L432.2 146.3L432.1 146.2L432.0 146.1L431.9 146.0L431.8 145.8L431.8 145.7L431.7 145.6L431.6 145.5L431.5 145.4L431.4 145.2L431.3 145.1L431.2 145.0L431.1 144.9L431.0 144.7L430.9 144.6L430.8 144.5L430.7 144.4L430.7 144.3L430.6 144.1L430.5 144.0L430.4 143.9L430.3 143.8L430.2 143.7L430.1 143.5L430.0 143.4L429.9 143.3L429.8 143.2L429.7 143.0L429.6 142.9L429.5 142.8L429.4 142.7L429.3 142.6L429.2 142.4L429.1 142.3L429.0 142.2L428.9 142.1L428.8 142.0L428.7 141.8L428.6 141.7L428.5 141.6L428.4 141.5L428.2 141.4L428.1 141.2L428.0 141.1L427.9 141.0L427.8 140.9L427.7 140.8L427.6 140.6L427.5 140.5L427.4 140.4L427.3 140.3L427.2 140.2L427.1 140.0L426.9 139.9L426.8 139.8L426.7 139.7L426.6 139.6L426.5 139.5L426.4 139.3L426.3 139.2L426.1 139.1L426.0 139.0L425.9 138.9L425.8 138.7L425.7 138.6L425.6 138.5L425.4 138.4L425.3 138.3L425.2 138.1L425.1 138.0L425.0 137.9L424.8 137.8L424.7 137.7L424.6 137.6L424.5 137.4L424.4 137.3L424.2 137.2L424.1 137.1L424.0 137.0L423.9 136.9L423.7 136.7L423.6 136.6L423.5 136.5L423.4 136.4L423.2 136.3L423.1 136.2L423.0 136.0L422.9 135.9L422.7 135.8L422.6 135.7L422.5 135.6L422.4 135.5L422.2 135.3L422.1 135.2L422.0 135.1L421.8 135.0L421.7 134.9L421.6 134.8L421.4 134.7L421.3 134.5L421.2 134.4L421.0 134.3L420.9 134.2L420.8 134.1L420.6 134.0L420.5 133.9L420.4 133.7L420.2 133.6L420.1 133.5L419.9 133.4L419.8 133.3L419.7 133.2L419.5 133.1L419.4 132.9L419.2 132.8L419.1 132.7L419.0 132.6L418.8 132.5L418.7 132.4L418.5 132.3L418.4 132.2L418.3 132.0L418.1 131.9L418.0 131.8L417.8 131.7L417.7 131.6L417.5 131.5L417.4 131.4L417.2 131.3L417.1 131.2L417.0 131.0L416.8 130.9L416.7 130.8L416.5 130.7L416.4 130.6L416.2 130.5L416.1 130.4L415.9 130.3L415.8 130.2L415.6 130.1L415.5 129.9L415.3 129.8L415.2 129.7L415.0 129.6L414.8 129.5L414.7 129.4L414.5 129.3L414.4 129.2L414.2 129.1L414.1 129.0L413.9 128.9L413.8 128.7L413.6 128.6L413.4 128.5L413.3 128.4L413.1 128.3L413.0 128.2L412.8 128.1L412.7 128.0L412.5 127.9L412.3 127.8L412.2 127.7L412.0 127.6L411.9 127.5L411.7 127.4L411.5 127.3L411.4 127.2L411.2 127.0L411.0 126.9L410.9 126.8L410.7 126.7L410.6 126.6L410.4 126.5L410.2 126.4L410.1 126.3L409.9 126.2L409.7 126.1L409.6 126.0L409.4 125.9L409.2 125.8L409.1 125.7L408.9 125.6L408.7 125.5L408.5 125.4L408.4 125.3L408.2 125.2L408.0 125.1L407.9 125.0L407.7 124.9L407.5 124.8L407.3 124.7L407.2 124.6L407.0 124.5L406.8 124.4L406.7 124.3L406.5 124.2L406.3 124.1L406.1 124.0L406.0 123.9L405.8 123.8L405.6 123.7L405.4 123.6L405.2 123.5L405.1 123.4L404.9 123.3L404.7 123.2L404.5 123.1L404.4 123.0L404.2 122.9L404.0 122.8L403.8 122.7L403.6 122.6L403.5 122.5L403.3 122.4L403.1 122.3L402.9 122.2L402.7 122.1L402.5 122.0L402.4 121.9L402.2 121.8L402.0 121.7L401.8 121.6L401.6 121.5L401.4 121.5L401.3 121.4L401.1 121.3L400.9 121.2L400.7 121.1L400.5 121.0L400.3 120.9L400.1 120.8L399.9 120.7L399.8 120.6L399.6 120.5L399.4 120.4L399.2 120.3L399.0 120.2L398.8 120.1L398.6 120.1L398.4 120.0L398.2 119.9L398.0 119.8L397.9 119.7L397.7 119.6L397.5 119.5L397.3 119.4L397.1 119.3L396.9 119.2L396.7 119.1L396.5 119.1L396.3 119.0L396.1 118.9L395.9 118.8L395.7 118.7L395.5 118.6L395.3 118.5L395.1 118.4L394.9 118.3L394.7 118.3L394.5 118.2L394.3 118.1L394.1 118.0L393.9 117.9L393.7 117.8L393.5 117.7L393.3 117.7L393.1 117.6L392.9 117.5L392.7 117.4L392.5 117.3L392.3 117.2L392.1 117.1L391.9 117.1L391.7 117.0L391.5 116.9L391.3 116.8L391.1 116.7L390.9 116.6L390.7 116.6L390.5 116.5L390.3 116.4L390.1 116.3L389.9 116.2L389.7 116.1L389.5 116.1L389.3 116.0L389.0 115.9L388.8 115.8L388.6 115.7L388.4 115.7L388.2 115.6L388.0 115.5L387.8 115.4L387.6 115.3L387.4 115.3L387.2 115.2L387.0 115.1L386.7 115.0L386.5 114.9L386.3 114.9L386.1 114.8L385.9 114.7L385.7 114.6L385.5 114.5L385.3 114.5L385.0 114.4L384.8 114.3L384.6 114.2L384.4 114.2L384.2 114.1L384.0 114.0L383.8 113.9L383.5 113.9L383.3 113.8L383.1 113.7L382.9 113.6L382.7 113.6L382.5 113.5L382.2 113.4L382.0 113.3L381.8 113.3L381.6 113.2L381.4 113.1L381.2 113.0L380.9 113.0L380.7 112.9L380.5 112.8L380.3 112.8L380.1 112.7L379.8 112.6L379.6 112.5L379.4 112.5L379.2 112.4L379.0 112.3L378.7 112.3L378.5 112.2L378.3 112.1L378.1 112.1L377.8 112.0L377.6 111.9L377.4 111.8L377.2 111.8L376.9 111.7L376.7 111.6L376.5 111.6L376.3 111.5L376.0 111.4L375.8 111.4L375.6 111.3L375.4 111.2L375.1 111.2L374.9 111.1L374.7 111.0L374.5 111.0L374.2 110.9L374.0 110.8L373.8 110.8L373.6 110.7L373.3 110.7L373.1 110.6L372.9 110.5L372.6 110.5L372.4 110.4L372.2 110.3L371.9 110.3L371.7 110.2L371.5 110.1L371.3 110.1L371.0 110.0L370.8 110.0L370.6 109.9L370.3 109.8L370.1 109.8L369.9 109.7L369.6 109.7L369.4 109.6L369.2 109.5L368.9 109.5L368.7 109.4L368.5 109.4L368.2 109.3L368.0 109.2L367.8 109.2L367.5 109.1L367.3 109.1L367.1 109.0L366.8 109.0L366.6 108.9L366.4 108.8L366.1 108.8L365.9 108.7L365.7 108.7L365.4 108.6L365.2 108.6L364.9 108.5L364.7 108.5L364.5 108.4L364.2 108.3L364.0 108.3L363.8 108.2L363.5 108.2L363.3 108.1L363.0 108.1L362.8 108.0L362.6 108.0L362.3 107.9L362.1 107.9L361.8 107.8L361.6 107.8L361.4 107.7L361.1 107.7L360.9 107.6L360.6 107.6L360.4 107.5L360.2 107.5L359.9 107.4L359.7 107.4L359.4 107.3L359.2 107.3L359.0 107.2L358.7 107.2L358.5 107.1L358.2 107.1L358.0 107.0L357.7 107.0L357.5 106.9L357.3 106.9L357.0 106.8L356.8 106.8L356.5 106.7L356.3 106.7L356.0 106.7L355.8 106.6L355.5 106.6L355.3 106.5L355.1 106.5L354.8 106.4L354.6 106.4L354.3 106.3L354.1 106.3L353.8 106.3L353.6 106.2L353.3 106.2L353.1 106.1L352.8 106.1L352.6 106.0L352.4 106.0L352.1 106.0L351.9 105.9L351.6 105.9L351.4 105.8L351.1 105.8L350.9 105.8L350.6 105.7L350.4 105.7L350.1 105.6L349.9 105.6L349.6 105.6L349.4 105.5L349.1 105.5L348.9 105.5L348.6 105.4L348.4 105.4L348.1 105.3L347.9 105.3L347.6 105.3L347.4 105.2L347.1 105.2L346.9 105.2L346.6 105.1L346.4 105.1L346.1 105.1L345.9 105.0L345.6 105.0L345.4 105.0L345.1 104.9L344.9 104.9L344.6 104.9L344.4 104.8L344.1 104.8L343.9 104.8L343.6 104.7L343.4 104.7L343.1 104.7L342.9 104.6L342.6 104.6L342.4 104.6L342.1 104.6L341.9 104.5L341.6 104.5L341.3 104.5L341.1 104.4L340.8 104.4L340.6 104.4L340.3 104.3L340.1 104.3L339.8 104.3L339.6 104.3L339.3 104.2L339.1 104.2L338.8 104.2L338.6 104.2L338.3 104.1L338.0 104.1L337.8 104.1L337.5 104.1L337.3 104.0L337.0 104.0L336.8 104.0L336.5 104.0L336.3 103.9L336.0 103.9L335.8 103.9L335.5 103.9L335.2 103.8L335.0 103.8L334.7 103.8L334.5 103.8L334.2 103.8L334.0 103.7L333.7 103.7L333.5 103.7L333.2 103.7L332.9 103.7L332.7 103.6L332.4 103.6L332.2 103.6L331.9 103.6L331.7 103.6L331.4 103.5L331.1 103.5L330.9 103.5L330.6 103.5L330.4 103.5L330.1 103.5L329.9 103.4L329.6 103.4L329.3 103.4L329.1 103.4L328.8 103.4L328.6 103.4L328.3 103.3L328.1 103.3L327.8 103.3L327.5 103.3L327.3 103.3L327.0 103.3L326.8 103.3L326.5 103.3L326.3 103.2L326.0 103.2L325.7 103.2L325.5 103.2L325.2 103.2L325.0 103.2L324.7 103.2L324.4 103.2L324.2 103.2L323.9 103.1L323.7 103.1L323.4 103.1L323.2 103.1L322.9 103.1L322.6 103.1L322.4 103.1L322.1 103.1L321.9 103.1L321.6 103.1L321.3 103.1L321.1 103.0L320.8 103.0L320.6 103.0L320.3 103.0L320.1 103.0L319.8 103.0L319.5 103.0L319.3 103.0L319.0 103.0L318.8 103.0L318.5 103.0L318.2 103.0L318.0 103.0L317.7 103.0L317.5 103.0L317.2 103.0L316.9 103.0L316.7 103.0L316.4 103.0L316.2 103.0L315.9 103.0L315.7 103.0L315.4 103.0L315.1 103.0L314.9 103.0L314.6 103.0L314.4 103.0L314.1 103.0L313.8 103.0L313.6 103.0L313.3 103.0L313.1 103.0L312.8 103.0L312.5 103.0L312.3 103.0L312.0 103.0L311.8 103.0L311.5 103.0L311.2 103.0L311.0 103.0L310.7 103.0L310.5 103.0L310.2 103.0L310.0 103.0L309.7 103.0L309.4 103.0L309.2 103.0L308.9 103.0L308.7 103.1L308.4 103.1L308.1 103.1L307.9 103.1L307.6 103.1L307.4 103.1L307.1 103.1L306.9 103.1L306.6 103.1L306.3 103.1L306.1 103.1L305.8 103.2L305.6 103.2L305.3 103.2L305.0 103.2L304.8 103.2L304.5 103.2L304.3 103.2L304.0 103.2L303.8 103.2L303.5 103.3L303.2 103.3L303.0 103.3L302.7 103.3L302.5 103.3L302.2 103.3L302.0 103.3L301.7 103.3L301.4 103.4L301.2 103.4L300.9 103.4L300.7 103.4L300.4 103.4L300.1 103.4L299.9 103.5L299.6 103.5L299.4 103.5L299.1 103.5L298.9 103.5L298.6 103.5L298.4 103.6L298.1 103.6L297.8 103.6L297.6 103.6L297.3 103.6L297.1 103.7L296.8 103.7L296.6 103.7L296.3 103.7L296.0 103.7L295.8 103.8L295.5 103.8L295.3 103.8L295.0 103.8L294.8 103.8L294.5 103.9L294.3 103.9L294.0 103.9L293.7 103.9L293.5 104.0L293.2 104.0L293.0 104.0L292.7 104.0L292.5 104.1L292.2 104.1L292.0 104.1L291.7 104.1L291.5 104.2L291.2 104.2L290.9 104.2L290.7 104.2L290.4 104.3L290.2 104.3L289.9 104.3L289.7 104.3L289.4 104.4L289.2 104.4L288.9 104.4L288.7 104.5L288.4 104.5L288.2 104.5L287.9 104.6L287.7 104.6L287.4 104.6L287.1 104.6L286.9 104.7L286.6 104.7L286.4 104.7L286.1 104.8L285.9 104.8L285.6 104.8L285.4 104.9L285.1 104.9L284.9 104.9L284.6 105.0L284.4 105.0L284.1 105.0L283.9 105.1L283.6 105.1L283.4 105.1L283.1 105.2L282.9 105.2L282.6 105.2L282.4 105.3L282.1 105.3L281.9 105.3L281.6 105.4L281.4 105.4L281.1 105.5L280.9 105.5L280.6 105.5L280.4 105.6L280.1 105.6L279.9 105.6L279.6 105.7L279.4 105.7L279.1 105.8L278.9 105.8L278.6 105.8L278.4 105.9L278.2 105.9L277.9 106.0L277.7 106.0L277.4 106.0L277.2 106.1L276.9 106.1L276.7 106.2L276.4 106.2L276.2 106.3L275.9 106.3L275.7 106.3L275.4 106.4L275.2 106.4L275.0 106.5L274.7 106.5L274.5 106.6L274.2 106.6L274.0 106.7L273.7 106.7L273.5 106.7L273.2 106.8L273.0 106.8L272.8 106.9L272.5 106.9L272.3 107.0L272.0 107.0L271.8 107.1L271.5 107.1L271.3 107.2L271.1 107.2L270.8 107.3L270.6 107.3L270.3 107.4L270.1 107.4L269.8 107.5L269.6 107.5L269.4 107.6L269.1 107.6L268.9 107.7L268.6 107.7L268.4 107.8L268.2 107.8L267.9 107.9L267.7 107.9L267.4 108.0L267.2 108.0L267.0 108.1L266.7 108.1L266.5 108.2L266.3 108.2L266.0 108.3L265.8 108.3L265.5 108.4L265.3 108.5L265.1 108.5L264.8 108.6L264.6 108.6L264.4 108.7L264.1 108.7L263.9 108.8L263.6 108.8L263.4 108.9L263.2 109.0L262.9 109.0L262.7 109.1L262.5 109.1L262.2 109.2L262.0 109.2L261.8 109.3L261.5 109.4L261.3 109.4L261.1 109.5L260.8 109.5L260.6 109.6L260.4 109.7L260.1 109.7L259.9 109.8L259.7 109.8L259.4 109.9L259.2 110.0L259.0 110.0L258.8 110.1L258.5 110.2L258.3 110.2L258.1 110.3L257.8 110.3L257.6 110.4L257.4 110.5L257.1 110.5L256.9 110.6L256.7 110.7L256.5 110.7L256.2 110.8L256.0 110.9L255.8 110.9L255.5 111.0L255.3 111.0L255.1 111.1L254.9 111.2L254.6 111.2L254.4 111.3L254.2 111.4L254.0 111.4L253.7 111.5L253.5 111.6L253.3 111.6L253.1 111.7L252.8 111.8L252.6 111.9L252.4 111.9L252.2 112.0L251.9 112.1L251.7 112.1L251.5 112.2L251.3 112.3L251.1 112.3L250.8 112.4L250.6 112.5L250.4 112.6L250.2 112.6L250.0 112.7L249.7 112.8L249.5 112.8L249.3 112.9L249.1 113.0L248.9 113.1L248.6 113.1L248.4 113.2L248.2 113.3L248.0 113.4L247.8 113.4L247.5 113.5L247.3 113.6L247.1 113.6L246.9 113.7L246.7 113.8L246.5 113.9L246.3 113.9L246.0 114.0L245.8 114.1L245.6 114.2L245.4 114.3L245.2 114.3L245.0 114.4L244.8 114.5L244.5 114.6L244.3 114.6L244.1 114.7L243.9 114.8L243.7 114.9L243.5 115.0L243.3 115.0L243.1 115.1L242.8 115.2L242.6 115.3L242.4 115.3L242.2 115.4L242.0 115.5L241.8 115.6L241.6 115.7L241.4 115.8L241.2 115.8L241.0 115.9L240.8 116.0L240.6 116.1L240.3 116.2L240.1 116.2L239.9 116.3L239.7 116.4L239.5 116.5L239.3 116.6L239.1 116.7L238.9 116.7L238.7 116.8L238.5 116.9L238.3 117.0L238.1 117.1L237.9 117.2L237.7 117.2L237.5 117.3L237.3 117.4L237.1 117.5L236.9 117.6L236.7 117.7L236.5 117.8L236.3 117.8L236.1 117.9L235.9 118.0L235.7 118.1L235.5 118.2L235.3 118.3L235.1 118.4L234.9 118.5L234.7 118.6L234.5 118.6L234.3 118.7L234.1 118.8L233.9 118.9L233.7 119.0L233.5 119.1L233.3 119.2L233.1 119.3L232.9 119.4L232.7 119.4L232.6 119.5L232.4 119.6L232.2 119.7L232.0 119.8L231.8 119.9L231.6 120.0L231.4 120.1L231.2 120.2L231.0 120.3L230.8 120.4L230.6 120.5L230.5 120.5L230.3 120.6L230.1 120.7L229.9 120.8L229.7 120.9L229.5 121.0L229.3 121.1L229.1 121.2L229.0 121.3L228.8 121.4L228.6 121.5L228.4 121.6L228.2 121.7L228.0 121.8L227.8 121.9L227.7 122.0L227.5 122.1L227.3 122.2L227.1 122.3L226.9 122.4L226.7 122.5L226.6 122.5L226.4 122.6L226.2 122.7L226.0 122.8L225.8 122.9L225.7 123.0L225.5 123.1L225.3 123.2L225.1 123.3L225.0 123.4L224.8 123.5L224.6 123.6L224.4 123.7L224.2 123.8L224.1 123.9L223.9 124.0L223.7 124.1L223.5 124.2L223.4 124.3L223.2 124.4L223.0 124.5L222.9 124.6L222.7 124.7L222.5 124.8L222.3 124.9L222.2 125.0L222.0 125.1L221.8 125.2L221.7 125.4L221.5 125.5L221.3 125.6L221.1 125.7L221.0 125.8L220.8 125.9L220.6 126.0L220.5 126.1L220.3 126.2L220.1 126.3L220.0 126.4L219.8 126.5L219.6 126.6L219.5 126.7L219.3 126.8L219.2 126.9L219.0 127.0L218.8 127.1L218.7 127.2L218.5 127.3L218.3 127.4L218.2 127.6L218.0 127.7L217.9 127.8L217.7 127.9L217.5 128.0L217.4 128.1L217.2 128.2L217.1 128.3L216.9 128.4L216.7 128.5L216.6 128.6L216.4 128.7L216.3 128.8L216.1 129.0L216.0 129.1L215.8 129.2L215.7 129.3L215.5 129.4L215.3 129.5L215.2 129.6L215.0 129.7L214.9 129.8L214.7 129.9L214.6 130.1L214.4 130.2L214.3 130.3L214.1 130.4L214.0 130.5L213.8 130.6L213.7 130.7L213.5 130.8L213.4 130.9L213.2 131.1L213.1 131.2L213.0 131.3L212.8 131.4L212.7 131.5L212.5 131.6L212.4 131.7L212.2 131.8L212.1 132.0L211.9 132.1L211.8 132.2L211.7 132.3L211.5 132.4L211.4 132.5L211.2 132.6L211.1 132.8L210.9 132.9L210.8 133.0L210.7 133.1L210.5 133.2L210.4 133.3L210.3 133.4L210.1 133.6L210.0 133.7L209.8 133.8L209.7 133.9L209.6 134.0L209.4 134.1L209.3 134.3L209.2 134.4L209.0 134.5L208.9 134.6L208.8 134.7L208.6 134.8L208.5 135.0L208.4 135.1L208.2 135.2L208.1 135.3L208.0 135.4L207.9 135.5L207.7 135.7L207.6 135.8L207.5 135.9L207.3 136.0L207.2 136.1L207.1 136.3L207.0 136.4L206.8 136.5L206.7 136.6L206.6 136.7L206.5 136.8L206.3 137.0L206.2 137.1L206.1 137.2L206.0 137.3L205.8 137.4L205.7 137.6L205.6 137.7L205.5 137.8L205.4 137.9L205.2 138.1L205.1 138.2L205.0 138.3L204.9 138.4L204.8 138.5L204.7 138.7L204.5 138.8L204.4 138.9L204.3 139.0L204.2 139.1L204.1 139.3L204.0 139.4L203.8 139.5L203.7 139.6L203.6 139.8L203.5 139.9L203.4 140.0L203.3 140.1L203.2 140.2L203.1 140.4L203.0 140.5L202.8 140.6L202.7 140.7L202.6 140.9L202.5 141.0L202.4 141.1L202.3 141.2L202.2 141.4L202.1 141.5L202.0 141.6L201.9 141.7L201.8 141.9L201.7 142.0L201.6 142.1L201.5 142.2L201.4 142.4L201.3 142.5L201.2 142.6L201.1 142.7L201.0 142.9L200.9 143.0L200.8 143.1L200.7 143.2L200.6 143.4L200.5 143.5L200.4 143.6L200.3 143.7L200.2 143.9L200.1 144.0L200.0 144.1L199.9 144.2L199.8 144.4L199.7 144.5L199.6 144.6L199.5 144.8L199.4 144.9L199.3 145.0L199.2 145.1L199.1 145.3L199.1 145.4L199.0 145.5L198.9 145.7L198.8 145.8L198.7 145.9L198.6 146.0L198.5 146.2L198.4 146.3L198.4 146.4L198.3 146.5L198.2 146.7L198.1 146.8L198.0 146.9L197.9 147.1L197.8 147.2L197.8 147.3L197.7 147.5L197.6 147.6L197.5 147.7L197.4 147.8L197.4 148.0L197.3 148.1L197.2 148.2L197.1 148.4L197.0 148.5L197.0 148.6L196.9 148.7L196.8 148.9L196.7 149.0L196.7 149.1L196.6 149.3L196.5 149.4L196.4 149.5L196.4 149.7L196.3 149.8L196.2 149.9L196.2 150.1L196.1 150.2L196.0 150.3L195.9 150.4L195.9 150.6L195.8 150.7L195.7 150.8L195.7 151.0L195.6 151.1L195.5 151.2L195.5 151.4L195.4 151.5L195.3 151.6L195.3 151.8L195.2 151.9L195.1 152.0L195.1 152.2L195.0 152.3L194.9 152.4L194.9 152.6L194.8 152.7L194.8 152.8L194.7 152.9L194.6 153.1L194.6 153.2L194.5 153.3L194.5 153.5L194.4 153.6L194.4 153.7L194.3 153.9L194.2 154.0L194.2 154.1L194.1 154.3L194.1 154.4L194.0 154.5L194.0 154.7L193.9 154.8L193.9 154.9L193.8 155.1L193.8 155.2L193.7 155.3L193.7 155.5L193.6 155.6L193.6 155.7L193.5 155.9L193.5 156.0L193.4 156.1L193.4 156.3L193.3 156.4L193.3 156.5L193.2 156.7L193.2 156.8L193.1 157.0L193.1 157.1L193.1 157.2L193.0 157.4L193.0 157.5L192.9 157.6L192.9 157.8L192.8 157.9L192.8 158.0L192.8 158.2L192.7 158.3L192.7 158.4L192.7 158.6L192.6 158.7L192.6 158.8L192.5 159.0L192.5 159.1L192.5 159.2L192.4 159.4L192.4 159.5L192.4 159.6L192.3 159.8L192.3 159.9L192.3 160.1L192.2 160.2L192.2 160.3L192.2 160.5L192.2 160.6L192.1 160.7L192.1 160.9L192.1 161.0L192.0 161.1L192.0 161.3L192.0 161.4L192.0 161.5L191.9 161.7L191.9 161.8L191.9 161.9L191.9 162.1L191.8 162.2L191.8 162.4L191.8 162.5L191.8 162.6L191.7 162.8L191.7 162.9L191.7 163.0L191.7 163.2L191.7 163.3L191.7 163.4L191.6 163.6L191.6 163.7L191.6 163.8L191.6 164.0L191.6 164.1L191.6 164.3L191.5 164.4L191.5 164.5L191.5 164.7L191.5 164.8L191.5 164.9L191.5 165.1L191.5 165.2L191.5 165.3L191.4 165.5L191.4 165.6L191.4 165.8L191.4 165.9L191.4 166.0L191.4 166.2L191.4 166.3L191.4 166.4L191.4 166.6L191.4 166.7L191.4 166.8L191.4 167.0L191.4 167.1L191.4 167.2L191.4 167.4L191.4 167.5L191.3 167.7L191.3 167.8L191.3 167.9L191.3 168.1L191.3 168.2L191.3 168.3L191.4 168.5L191.4 168.6L191.4 168.7L191.4 168.9L191.4 169.0L191.4 169.2L191.4 169.3L191.4 169.4L191.4 169.6L191.4 169.7L191.4 169.8L191.4 170.0L191.4 170.1L191.4 170.2L191.4 170.4L191.4 170.5L191.4 170.7L191.5 170.8L191.5 170.9L191.5 171.1L191.5 171.2L191.5 171.3L191.5 171.5L191.5 171.6L191.6 171.7L191.6 171.9L191.6 172.0L191.6 172.1L191.6 172.3L191.6 172.4L191.7 172.6L191.7 172.7L191.7 172.8L191.7 173.0L191.7 173.1L191.7 173.2L191.8 173.4L191.8 173.5L191.8 173.6L191.8 173.8L191.9 173.9L191.9 174.0L191.9 174.2L191.9 174.3L192.0 174.5L192.0 174.6L192.0 174.7L192.0 174.9L192.1 175.0L192.1 175.1L192.1 175.3L192.2 175.4L192.2 175.5L192.2 175.7L192.2 175.8L192.3 175.9L192.3 176.1L192.3 176.2L192.4 176.4L192.4 176.5L192.4 176.6L192.5 176.8L192.5 176.9L192.5 177.0L192.6 177.2L192.6 177.3L192.7 177.4L192.7 177.6L192.7 177.7L192.8 177.8L192.8 178.0L192.8 178.1L192.9 178.2L192.9 178.4L193.0 178.5L193.0 178.6L193.1 178.8L193.1 178.9L193.1 179.0L193.2 179.2L193.2 179.3L193.3 179.4L193.3 179.6L193.4 179.7L193.4 179.8L193.5 180.0L193.5 180.1L193.6 180.2L193.6 180.4L193.7 180.5L193.7 180.7L193.8 180.8L193.8 180.9L193.9 181.1L193.9 181.2L194.0 181.3L194.0 181.5L194.1 181.6L194.1 181.7L194.2 181.9L194.2 182.0L194.3 182.1L194.4 182.2L194.4 182.4L194.5 182.5L194.5 182.6L194.6 182.8L194.6 182.9L194.7 183.0L194.8 183.2L194.8 183.3L194.9 183.4L194.9 183.6L195.0 183.7L195.1 183.8L195.1 184.0L195.2 184.1L195.3 184.2L195.3 184.4L195.4 184.5L195.5 184.6L195.5 184.8L195.6 184.9L195.7 185.0L195.7 185.2L195.8 185.3L195.9 185.4L195.9 185.6L196.0 185.7L196.1 185.8L196.1 185.9L196.2 186.1L196.3 186.2L196.4 186.3L196.4 186.5L196.5 186.6L196.6 186.7L196.7 186.9L196.7 187.0L196.8 187.1L196.9 187.2L197.0 187.4L197.0 187.5L197.1 187.6L197.2 187.8L197.3 187.9L197.4 188.0L197.4 188.2L197.5 188.3L197.6 188.4L197.7 188.5L197.8 188.7L197.8 188.8L197.9 188.9L198.0 189.1L198.1 189.2L198.2 189.3L198.3 189.4L198.4 189.6L198.4 189.7L198.5 189.8L198.6 190.0L198.7 190.1L198.8 190.2L198.9 190.3L199.0 190.5L199.1 190.6L199.1 190.7L199.2 190.9L199.3 191.0L199.4 191.1L199.5 191.2L199.6 191.4L199.7 191.5L199.8 191.6L199.9 191.7L200.0 191.9L200.1 192.0L200.2 192.1L200.3 192.3L200.4 192.4L200.5 192.5L200.6 192.6L200.7 192.8L200.8 192.9L200.9 193.0L201.0 193.1L201.1 193.3L201.2 193.4L201.3 193.5L201.4 193.6L201.5 193.8L201.6 193.9L201.7 194.0L201.8 194.1L201.9 194.3L202.0 194.4L202.1 194.5L202.2 194.6L202.3 194.8L202.4 194.9L202.5 195.0L202.6 195.1L202.7 195.3L202.8 195.4L202.9 195.5L203.1 195.6L203.2 195.7L203.3 195.9L203.4 196.0L203.5 196.1L203.6 196.2L203.7 196.4L203.8 196.5L204.0 196.6L204.1 196.7L204.2 196.9L204.3 197.0L204.4 197.1L204.5 197.2L204.6 197.3L204.8 197.5L204.9 197.6L205.0 197.7L205.1 197.8L205.2 197.9L205.4 198.1L205.5 198.2L205.6 198.3L205.7 198.4L205.8 198.5L206.0 198.7L206.1 198.8L206.2 198.9L206.3 199.0L206.5 199.1L206.6 199.3L206.7 199.4L206.8 199.5L207.0 199.6L207.1 199.7L207.2 199.9L207.3 200.0L207.5 200.1L207.6 200.2L207.7 200.3L207.8 200.5L208.0 200.6L208.1 200.7L208.2 200.8L208.4 200.9L208.5 201.0L208.6 201.2L208.8 201.3L208.9 201.4L209.0 201.5L209.2 201.6L209.3 201.7L209.4 201.9L209.6 202.0L209.7 202.1L209.8 202.2L210.0 202.3L210.1 202.4L210.2 202.6L210.4 202.7L210.5 202.8L210.7 202.9L210.8 203.0L210.9 203.1L211.1 203.2L211.2 203.4L211.4 203.5L211.5 203.6L211.6 203.7L211.8 203.8L211.9 203.9L212.1 204.0L212.2 204.2L212.4 204.3L212.5 204.4L212.7 204.5L212.8 204.6L212.9 204.7L213.1 204.8L213.2 204.9L213.4 205.1L213.5 205.2L213.7 205.3L213.8 205.4L214.0 205.5L214.1 205.6L214.3 205.7L214.4 205.8L214.6 205.9L214.7 206.1L214.9 206.2L215.0 206.3L215.2 206.4L215.3 206.5L215.5 206.6L215.6 206.7L215.8 206.8L216.0 206.9L216.1 207.0L216.3 207.2L216.4 207.3L216.6 207.4L216.7 207.5L216.9 207.6L217.1 207.7L217.2 207.8L217.4 207.9L217.5 208.0L217.7 208.1L217.9 208.2L218.0 208.3L218.2 208.4L218.3 208.6L218.5 208.7L218.7 208.8L218.8 208.9L219.0 209.0L219.1 209.1L219.3 209.2L219.5 209.3L219.6 209.4L219.8 209.5L220.0 209.6L220.1 209.7L220.3 209.8L220.5 209.9L220.6 210.0L220.8 210.1L221.0 210.2L221.1 210.3L221.3 210.4L221.5 210.5L221.6 210.6L221.8 210.7L222.0 210.8L222.2 211.0L222.3 211.1L222.5 211.2L222.7 211.3L222.8 211.4L223.0 211.5L223.2 211.6L223.4 211.7L223.5 211.8L223.7 211.9L223.9 212.0L224.1 212.1L224.2 212.2L224.4 212.3L224.6 212.4L224.8 212.5L224.9 212.6L225.1 212.7L225.3 212.8L225.5 212.9L225.7 213.0L225.8 213.1L226.0 213.2L226.2 213.3L226.4 213.4L226.6 213.4L226.7 213.5L226.9 213.6L227.1 213.7L227.3 213.8L227.5 213.9L227.7 214.0L227.8 214.1L228.0 214.2L228.2 214.3L228.4 214.4L228.6 214.5L228.8 214.6L228.9 214.7L229.1 214.8L229.3 214.9L229.5 215.0L229.7 215.1L229.9 215.2L230.1 215.3L230.3 215.4L230.4 215.4L230.6 215.5L230.8 215.6L231.0 215.7L231.2 215.8L231.4 215.9L231.6 216.0L231.8 216.1L232.0 216.2L232.2 216.3L232.4 216.4L232.5 216.5L232.7 216.6L232.9 216.6L233.1 216.7L233.3 216.8L233.5 216.9L233.7 217.0L233.9 217.1L234.1 217.2L234.3 217.3L234.5 217.4L234.7 217.4L234.9 217.5L235.1 217.6L235.3 217.7L235.5 217.8L235.7 217.9L235.9 218.0L236.1 218.1L236.3 218.1L236.5 218.2L236.7 218.3L236.9 218.4L237.1 218.5L237.3 218.6L237.5 218.7L237.7 218.7L237.9 218.8L238.1 218.9L238.3 219.0L238.5 219.1L238.7 219.2L238.9 219.3L239.1 219.3L239.3 219.4L239.5 219.5L239.7 219.6L239.9 219.7L240.1 219.8L240.3 219.8L240.5 219.9L240.8 220.0L241.0 220.1L241.2 220.2L241.4 220.2L241.6 220.3L241.8 220.4L242.0 220.5L242.2 220.6L242.4 220.6L242.6 220.7L242.8 220.8L243.1 220.9L243.3 221.0L243.5 221.0L243.7 221.1L243.9 221.2L244.1 221.3L244.3 221.4L244.5 221.4L244.7 221.5L245.0 221.6L245.2 221.7L245.4 221.7L245.6 221.8L245.8 221.9L246.0 222.0L246.2 222.0L246.5 222.1L246.7 222.2L246.9 222.3L247.1 222.4L247.3 222.4L247.5 222.5L247.8 222.6L248.0 222.6L248.2 222.7L248.4 222.8L248.6 222.9L248.8 222.9L249.1 223.0L249.3 223.1L249.5 223.2L249.7 223.2L249.9 223.3L250.2 223.4L250.4 223.4L250.6 223.5L250.8 223.6L251.1 223.7L251.3 223.7L251.5 223.8L251.7 223.9L251.9 223.9L252.2 224.0L252.4 224.1L252.6 224.1L252.8 224.2L253.1 224.3L253.3 224.3L253.5 224.4L253.7 224.5L254.0 224.6L254.2 224.6L254.4 224.7L254.6 224.8L254.9 224.8L255.1 224.9L255.3 225.0L255.5 225.0L255.8 225.1L256.0 225.1L256.2 225.2L256.4 225.3L256.7 225.3L256.9 225.4L257.1 225.5L257.4 225.5L257.6 225.6L257.8 225.7L258.1 225.7L258.3 225.8L258.5 225.8L258.7 225.9L259.0 226.0L259.2 226.0L259.4 226.1L259.7 226.2L259.9 226.2L260.1 226.3L260.4 226.3L260.6 226.4L260.8 226.5L261.1 226.5L261.3 226.6L261.5 226.6L261.8 226.7L262.0 226.8L262.2 226.8L262.5 226.9L262.7 226.9L262.9 227.0L263.2 227.0L263.4 227.1L263.6 227.2L263.9 227.2L264.1 227.3L264.3 227.3L264.6 227.4L264.8 227.4L265.1 227.5L265.3 227.5L265.5 227.6L265.8 227.7L266.0 227.7L266.2 227.8L266.5 227.8L266.7 227.9L267.0 227.9L267.2 228.0L267.4 228.0L267.7 228.1L267.9 228.1L268.2 228.2L268.4 228.2L268.6 228.3L268.9 228.3L269.1 228.4L269.4 228.4L269.6 228.5L269.8 228.5L270.1 228.6L270.3 228.6L270.6 228.7L270.8 228.7L271.0 228.8L271.3 228.8L271.5 228.9L271.8 228.9L272.0 229.0L272.3 229.0L272.5 229.1L272.7 229.1L273.0 229.2L273.2 229.2L273.5 229.3L273.7 229.3L274.0 229.3L274.2 229.4L274.5 229.4L274.7 229.5L274.9 229.5L275.2 229.6L275.4 229.6L275.7 229.7L275.9 229.7L276.2 229.7L276.4 229.8L276.7 229.8L276.9 229.9L277.2 229.9L277.4 229.9L277.6 230.0L277.9 230.0L278.1 230.1L278.4 230.1L278.6 230.2L278.9 230.2L279.1 230.2L279.4 230.3L279.6 230.3L279.9 230.4L280.1 230.4L280.4 230.4L280.6 230.5L280.9 230.5L281.1 230.5L281.4 230.6L281.6 230.6L281.9 230.7L282.1 230.7L282.4 230.7L282.6 230.8L282.9 230.8L283.1 230.8L283.4 230.9L283.6 230.9L283.9 230.9L284.1 231.0L284.4 231.0L284.6 231.0L284.9 231.1L285.1 231.1L285.4 231.1L285.6 231.2L285.9 231.2L286.1 231.2L286.4 231.3L286.6 231.3L286.9 231.3L287.1 231.4L287.4 231.4L287.6 231.4L287.9 231.4L288.1 231.5L288.4 231.5L288.7 231.5L288.9 231.6L289.2 231.6L289.4 231.6L289.7 231.6L289.9 231.7L290.2 231.7L290.4 231.7L290.7 231.8L290.9 231.8L291.2 231.8L291.4 231.8L291.7 231.9L292.0 231.9L292.2 231.9L292.5 231.9L292.7 232.0L293.0 232.0L293.2 232.0L293.5 232.0L293.7 232.1L294.0 232.1L294.2 232.1L294.5 232.1L294.8 232.2L295.0 232.2L295.3 232.2L295.5 232.2L295.8 232.2L296.0 232.3L296.3 232.3L296.5 232.3L296.8 232.3L297.1 232.3L297.3 232.4L297.6 232.4L297.8 232.4L298.1 232.4L298.3 232.4L298.6 232.5L298.9 232.5L299.1 232.5L299.4 232.5L299.6 232.5L299.9 232.5L300.1 232.6L300.4 232.6L300.7 232.6L300.9 232.6L301.2 232.6L301.4 232.6L301.7 232.7L301.9 232.7L302.2 232.7L302.5 232.7L302.7 232.7L303.0 232.7L303.2 232.7L303.5 232.7L303.7 232.8L304.0 232.8L304.3 232.8L304.5 232.8L304.8 232.8L305.0 232.8L305.3 232.8L305.6 232.8L305.8 232.8L306.1 232.9L306.3 232.9L306.6 232.9L306.8 232.9L307.1 232.9L307.4 232.9L307.6 232.9L307.9 232.9L308.1 232.9L308.4 232.9L308.7 232.9L308.9 232.9L309.2 233.0L309.4 233.0L309.7 233.0L309.9 233.0L310.2 233.0L310.5 233.0L310.7 233.0L311.0 233.0L311.2 233.0L311.5 233.0L311.8 233.0L312.0 233.0L312.3 233.0L312.5 233.0L312.8 233.0L313.1 233.0L313.3 233.0L313.6 233.0L313.8 233.0L314.1 233.0L314.3 233.0L314.6 233.0L314.9 233.0L315.1 233.0L315.4 233.0L315.6 233.0L315.9 233.0L316.2 233.0L316.4 233.0L316.7 233.0L316.9 233.0L317.2 233.0L317.5 233.0L317.7 233.0L318.0 233.0L318.2 233.0L318.5 233.0L318.8 233.0L319.0 233.0L319.3 233.0L319.5 233.0L319.8 233.0L320.0 233.0L320.3 233.0L320.6 233.0L320.8 233.0L321.1 233.0L321.3 232.9L321.6 232.9L321.9 232.9L322.1 232.9L322.4 232.9L322.6 232.9L322.9 232.9L323.1 232.9L323.4 232.9L323.7 232.9L323.9 232.9L324.2 232.8L324.4 232.8L324.7 232.8L325.0 232.8L325.2 232.8L325.5 232.8L325.7 232.8L326.0 232.8L326.2 232.8L326.5 232.7L326.8 232.7L327.0 232.7L327.3 232.7L327.5 232.7L327.8 232.7L328.0 232.7L328.3 232.7L328.6 232.6L328.8 232.6L329.1 232.6L329.3 232.6L329.6 232.6L329.9 232.6L330.1 232.5L330.4 232.5L330.6 232.5L330.9 232.5L331.1 232.5L331.4 232.5L331.6 232.4L331.9 232.4L332.2 232.4L332.4 232.4L332.7 232.4L332.9 232.3L333.2 232.3L333.4 232.3L333.7 232.3L334.0 232.3L334.2 232.2L334.5 232.2L334.7 232.2L335.0 232.2L335.2 232.2L335.5 232.1L335.7 232.1L336.0 232.1L336.3 232.1L336.5 232.0L336.8 232.0L337.0 232.0L337.3 232.0L337.5 231.9L337.8 231.9L338.0 231.9L338.3 231.9L338.5 231.8L338.8 231.8L339.1 231.8L339.3 231.8L339.6 231.7L339.8 231.7L340.1 231.7L340.3 231.7L340.6 231.6L340.8 231.6L341.1 231.6L341.3 231.5L341.6 231.5L341.8 231.5L342.1 231.4L342.3 231.4L342.6 231.4L342.9 231.4L343.1 231.3L343.4 231.3L343.6 231.3L343.9 231.2L344.1 231.2L344.4 231.2L344.6 231.1L344.9 231.1L345.1 231.1L345.4 231.0L345.6 231.0L345.9 231.0L346.1 230.9L346.4 230.9L346.6 230.9L346.9 230.8L347.1 230.8L347.4 230.8L347.6 230.7L347.9 230.7L348.1 230.7L348.4 230.6L348.6 230.6L348.9 230.5L349.1 230.5L349.4 230.5L349.6 230.4L349.9 230.4L350.1 230.4L350.4 230.3L350.6 230.3L350.9 230.2L351.1 230.2L351.4 230.2L351.6 230.1L351.8 230.1L352.1 230.0L352.3 230.0L352.6 230.0L352.8 229.9L353.1 229.9L353.3 229.8L353.6 229.8L353.8 229.7L354.1 229.7L354.3 229.7L354.6 229.6L354.8 229.6L355.0 229.5L355.3 229.5L355.5 229.4L355.8 229.4L356.0 229.3L356.3 229.3L356.5 229.3L356.8 229.2L357.0 229.2L357.2 229.1L357.5 229.1L357.7 229.0L358.0 229.0L358.2 228.9L358.5 228.9L358.7 228.8L358.9 228.8L359.2 228.7L359.4 228.7L359.7 228.6L359.9 228.6L360.2 228.5L360.4 228.5L360.6 228.4L360.9 228.4L361.1 228.3L361.4 228.3L361.6 228.2L361.8 228.2L362.1 228.1L362.3 228.1L362.6 228.0L362.8 228.0L363.0 227.9L363.3 227.9L363.5 227.8L363.7 227.8L364.0 227.7L364.2 227.7L364.5 227.6L364.7 227.5L364.9 227.5L365.2 227.4L365.4 227.4L365.6 227.3L365.9 227.3L366.1 227.2L366.4 227.2L366.6 227.1L366.8 227.0L367.1 227.0L367.3 226.9L367.5 226.9L367.8 226.8L368.0 226.8L368.2 226.7L368.5 226.6L368.7 226.6L368.9 226.5L369.2 226.5L369.4 226.4L369.6 226.3L369.9 226.3L370.1 226.2L370.3 226.2L370.6 226.1L370.8 226.0L371.0 226.0L371.2 225.9L371.5 225.8L371.7 225.8L371.9 225.7L372.2 225.7L372.4 225.6L372.6 225.5L372.9 225.5L373.1 225.4L373.3 225.3L373.5 225.3L373.8 225.2L374.0 225.1L374.2 225.1L374.5 225.0L374.7 225.0L374.9 224.9L375.1 224.8L375.4 224.8L375.6 224.7L375.8 224.6L376.0 224.6L376.3 224.5L376.5 224.4L376.7 224.4L376.9 224.3L377.2 224.2L377.4 224.1L377.6 224.1L377.8 224.0L378.1 223.9L378.3 223.9L378.5 223.8L378.7 223.7L378.9 223.7L379.2 223.6L379.4 223.5L379.6 223.4L379.8 223.4L380.0 223.3L380.3 223.2L380.5 223.2L380.7 223.1L380.9 223.0L381.1 222.9L381.4 222.9L381.6 222.8L381.8 222.7L382.0 222.6L382.2 222.6L382.5 222.5L382.7 222.4L382.9 222.4L383.1 222.3L383.3 222.2L383.5 222.1L383.7 222.1L384.0 222.0L384.2 221.9L384.4 221.8L384.6 221.7L384.8 221.7L385.0 221.6L385.2 221.5L385.5 221.4L385.7 221.4L385.9 221.3L386.1 221.2L386.3 221.1L386.5 221.0L386.7 221.0L386.9 220.9L387.2 220.8L387.4 220.7L387.6 220.7L387.8 220.6L388.0 220.5L388.2 220.4L388.4 220.3L388.6 220.2L388.8 220.2L389.0 220.1L389.2 220.0L389.4 219.9L389.7 219.8L389.9 219.8L390.1 219.7L390.3 219.6L390.5 219.5L390.7 219.4L390.9 219.3L391.1 219.3L391.3 219.2L391.5 219.1L391.7 219.0L391.9 218.9L392.1 218.8L392.3 218.8L392.5 218.7L392.7 218.6L392.9 218.5L393.1 218.4L393.3 218.3L393.5 218.2L393.7 218.2L393.9 218.1L394.1 218.0L394.3 217.9L394.5 217.8L394.7 217.7L394.9 217.6L395.1 217.5L395.3 217.4L395.5 217.4L395.7 217.3L395.9 217.2L396.1 217.1L396.3 217.0L396.5 216.9L396.7 216.8L396.9 216.7L397.1 216.6L397.3 216.6L397.4 216.5L397.6 216.4L397.8 216.3L398.0 216.2L398.2 216.1L398.4 216.0L398.6 215.9L398.8 215.8L399.0 215.7L399.2 215.6L399.4 215.5L399.5 215.5L399.7 215.4L399.9 215.3L400.1 215.2L400.3 215.1L400.5 215.0L400.7 214.9L400.9 214.8L401.0 214.7L401.2 214.6L401.4 214.5L401.6 214.4L401.8 214.3L402.0 214.2L402.2 214.1L402.3 214.0L402.5 213.9L402.7 213.8L402.9 213.7L403.1 213.6L403.3 213.5L403.4 213.5L403.6 213.4L403.8 213.3L404.0 213.2L404.2 213.1L404.3 213.0L404.5 212.9L404.7 212.8L404.9 212.7L405.0 212.6L405.2 212.5L405.4 212.4L405.6 212.3L405.8 212.2L405.9 212.1L406.1 212.0L406.3 211.9L406.5 211.8L406.6 211.7L406.8 211.6L407.0 211.5L407.1 211.4L407.3 211.3L407.5 211.2L407.7 211.1L407.8 211.0L408.0 210.9L408.2 210.8L408.3 210.6L408.5 210.5L408.7 210.4L408.9 210.3L409.0 210.2L409.2 210.1L409.4 210.0L409.5 209.9L409.7 209.8L409.9 209.7L410.0 209.6L410.2 209.5L410.4 209.4L410.5 209.3L410.7 209.2L410.8 209.1L411.0 209.0L411.2 208.9L411.3 208.8L411.5 208.7L411.7 208.6L411.8 208.4L412.0 208.3L412.1 208.2L412.3 208.1L412.5 208.0L412.6 207.9L412.8 207.8L412.9 207.7L413.1 207.6L413.3 207.5L413.4 207.4L413.6 207.3L413.7 207.2L413.9 207.0L414.0 206.9L414.2 206.8L414.3 206.7L414.5 206.6L414.7 206.5L414.8 206.4L415.0 206.3L415.1 206.2L415.3 206.1L415.4 205.9L415.6 205.8L415.7 205.7L415.9 205.6L416.0 205.5L416.2 205.4L416.3 205.3L416.5 205.2L416.6 205.1L416.8 204.9L416.9 204.8L417.0 204.7L417.2 204.6L417.3 204.5L417.5 204.4L417.6 204.3L417.8 204.2L417.9 204.0L418.1 203.9L418.2 203.8L418.3 203.7L418.5 203.6L418.6 203.5L418.8 203.4L418.9 203.2L419.1 203.1L419.2 203.0L419.3 202.9L419.5 202.8L419.6 202.7L419.7 202.6L419.9 202.4L420.0 202.3L420.2 202.2L420.3 202.1L420.4 202.0L420.6 201.9L420.7 201.7L420.8 201.6L421.0 201.5L421.1 201.4L421.2 201.3L421.4 201.2L421.5 201.0L421.6 200.9L421.8 200.8L421.9 200.7L422.0 200.6L422.1 200.5L422.3 200.3L422.4 200.2L422.5 200.1L422.7 200.0L422.8 199.9L422.9 199.7L423.0 199.6L423.2 199.5L423.3 199.4L423.4 199.3L423.5 199.2L423.7 199.0L423.8 198.9L423.9 198.8L424.0 198.7L424.2 198.6L424.3 198.4L424.4 198.3L424.5 198.2L424.6 198.1L424.8 197.9L424.9 197.8L425.0 197.7L425.1 197.6L425.2 197.5L425.3 197.3L425.5 197.2L425.6 197.1L425.7 197.0L425.8 196.9L425.9 196.7L426.0 196.6L426.2 196.5L426.3 196.4L426.4 196.2L426.5 196.1L426.6 196.0L426.7 195.9L426.8 195.8L426.9 195.6L427.0 195.5L427.2 195.4L427.3 195.3L427.4 195.1L427.5 195.0L427.6 194.9L427.7 194.8L427.8 194.6L427.9 194.5L428.0 194.4L428.1 194.3L428.2 194.1L428.3 194.0L428.4 193.9L428.5 193.8L428.6 193.6L428.7 193.5L428.8 193.4L428.9 193.3L429.0 193.1L429.1 193.0L429.2 192.9L429.3 192.8L429.4 192.6L429.5 192.5L429.6 192.4L429.7 192.3L429.8 192.1L429.9 192.0L430.0 191.9L430.1 191.8L430.2 191.6L430.3 191.5L430.4 191.4L430.5 191.2L430.6 191.1L430.7 191.0L430.8 190.9L430.9 190.7L430.9 190.6L431.0 190.5L431.1 190.3L431.2 190.2L431.3 190.1L431.4 190.0L431.5 189.8L431.6 189.7L431.6 189.6L431.7 189.5L431.8 189.3L431.9 189.2L432.0 189.1L432.1 188.9L432.2 188.8L432.2 188.7L432.3 188.5L432.4 188.4L432.5 188.3L432.6 188.2L432.6 188.0L432.7 187.9L432.8 187.8L432.9 187.6L433.0 187.5L433.0 187.4L433.1 187.3L433.2 187.1L433.3 187.0L433.3 186.9L433.4 186.7L433.5 186.6L433.6 186.5L433.6 186.3L433.7 186.2L433.8 186.1L433.8 185.9L433.9 185.8L434.0 185.7L434.1 185.6L434.1 185.4L434.2 185.3L434.3 185.2L434.3 185.0L434.4 184.9L434.5 184.8L434.5 184.6L434.6 184.5L434.7 184.4L434.7 184.2L434.8 184.1L434.9 184.0L434.9 183.8L435.0 183.7L435.1 183.6L435.1 183.4L435.2 183.3L435.2 183.2L435.3 183.1L435.4 182.9L435.4 182.8L435.5 182.7L435.5 182.5L435.6 182.4L435.6 182.3L435.7 182.1L435.8 182.0L435.8 181.9L435.9 181.7L435.9 181.6L436.0 181.5L436.0 181.3L436.1 181.2L436.1 181.1L436.2 180.9L436.2 180.8L436.3 180.7L436.3 180.5L436.4 180.4L436.4 180.3L436.5 180.1L436.5 180.0L436.6 179.9L436.6 179.7L436.7 179.6L436.7 179.5L436.8 179.3L436.8 179.2" fill="none" stroke="#39c5e0" stroke-width="2"/><text x="72" y="50" fill="#ffb454" font-size="10">target path</text><text x="164" y="50" fill="#39c5e0" font-size="10">actual (Kp=40)</text><text x="72" y="66" fill="#3fe0a0" font-size="11">RMSE = 8.3 mm</text>
</g>
<line x1="16" y1="384" x2="584" y2="384" stroke="#2c3a47" stroke-width="1"/>
<text x="16" y="400" fill="#8a97a3" font-size="10">amber = commanded circle · cyan = actual · task-space proportional law, Kp=40 (lower gain fails >10 mm)</text><text x="584" y="400" fill="#3a4753" font-size="9" text-anchor="end">B9 · SOURCE Family 3 · Coordinated · baseline_control · 2026-06-23 · USED IN 3.5</text>
</svg>
