<svg viewBox="0 0 600 320" xmlns="http://www.w3.org/2000/svg" font-family="ui-monospace, 'SF Mono', Menlo, Consolas, monospace">
  <rect width="600" height="320" rx="6" fill="#0e1217" stroke="#2c3a47"/>
  <text x="20" y="30" fill="#39c5e0" font-size="13" letter-spacing="2.5">ARTIFACT CHAIN</text>
  <text x="20" y="48" fill="#5b6975" font-size="11">each module's headline artifact builds on the previous — work accumulates, never restarts</text>

  <defs><marker id="a" markerWidth="10" markerHeight="10" refX="7" refY="3" orient="auto"><path d="M0,0 L6,3 L0,6 Z" fill="#8a97a3"/></marker></defs>

  <!-- row 1 (M0-M1) -->
  <g font-size="10" text-anchor="middle">
    <rect x="20" y="78" width="120" height="40" rx="5" fill="#151b22" stroke="#39c5e0"/><text x="80" y="102" fill="#cdd6df">Project proposal</text>
    <rect x="164" y="78" width="120" height="40" rx="5" fill="#151b22" stroke="#39c5e0"/><text x="224" y="102" fill="#cdd6df">Workspace map</text>
    <rect x="308" y="78" width="120" height="40" rx="5" fill="#151b22" stroke="#39c5e0"/><text x="368" y="102" fill="#cdd6df">IK / FK impl.</text>
    <rect x="452" y="78" width="128" height="40" rx="5" fill="#151b22" stroke="#39c5e0"/><text x="516" y="102" fill="#cdd6df">Geometry config</text>
  </g>
  <line x1="140" y1="98" x2="164" y2="98" stroke="#8a97a3" stroke-width="1.4" marker-end="url(#a)"/>
  <line x1="284" y1="98" x2="308" y2="98" stroke="#8a97a3" stroke-width="1.4" marker-end="url(#a)"/>
  <line x1="428" y1="98" x2="452" y2="98" stroke="#8a97a3" stroke-width="1.4" marker-end="url(#a)"/>

  <!-- row 2 (M2) -->
  <g font-size="10" text-anchor="middle">
    <rect x="20" y="150" width="128" height="40" rx="5" fill="#151b22" stroke="#39c5e0"/><text x="84" y="174" fill="#cdd6df">Hydraulic sizing</text>
    <rect x="172" y="150" width="128" height="40" rx="5" fill="#151b22" stroke="#39c5e0"/><text x="236" y="174" fill="#cdd6df">Design review pkg</text>
    <rect x="324" y="150" width="160" height="40" rx="5" fill="#151b22" stroke="#ffb454"/><text x="404" y="174" fill="#ffb454">2-DOF + twin (midterm)</text>
  </g>
  <line x1="148" y1="170" x2="172" y2="170" stroke="#8a97a3" stroke-width="1.4" marker-end="url(#a)"/>
  <line x1="300" y1="170" x2="324" y2="170" stroke="#8a97a3" stroke-width="1.4" marker-end="url(#a)"/>

  <!-- row 3 (M3-M4) -->
  <g font-size="10" text-anchor="middle">
    <rect x="20" y="222" width="128" height="40" rx="5" fill="#151b22" stroke="#39c5e0"/><text x="84" y="246" fill="#cdd6df">Manip / safe map</text>
    <rect x="172" y="222" width="128" height="40" rx="5" fill="#151b22" stroke="#39c5e0"/><text x="236" y="246" fill="#cdd6df">Tuned control rpt</text>
    <rect x="324" y="222" width="128" height="40" rx="5" fill="#151b22" stroke="#39c5e0"/><text x="388" y="246" fill="#cdd6df">Twin accuracy rpt</text>
    <rect x="476" y="222" width="104" height="40" rx="5" fill="#151b22" stroke="#3fe0a0"/><text x="528" y="241" fill="#3fe0a0">3-DOF final</text><text x="528" y="253" fill="#3fe0a0">validated</text>
  </g>
  <line x1="148" y1="242" x2="172" y2="242" stroke="#8a97a3" stroke-width="1.4" marker-end="url(#a)"/>
  <line x1="300" y1="242" x2="324" y2="242" stroke="#8a97a3" stroke-width="1.4" marker-end="url(#a)"/>
  <line x1="452" y1="242" x2="476" y2="242" stroke="#8a97a3" stroke-width="1.4" marker-end="url(#a)"/>
  <!-- row connectors -->
  <line x1="516" y1="118" x2="516" y2="135" stroke="#8a97a3" stroke-width="1" stroke-dasharray="2 2"/><line x1="516" y1="135" x2="84" y2="135" stroke="#8a97a3" stroke-width="1" stroke-dasharray="2 2"/><line x1="84" y1="135" x2="84" y2="150" stroke="#8a97a3" stroke-width="1" marker-end="url(#a)"/>
  <line x1="404" y1="190" x2="404" y2="207" stroke="#8a97a3" stroke-width="1" stroke-dasharray="2 2"/><line x1="404" y1="207" x2="84" y2="207" stroke="#8a97a3" stroke-width="1" stroke-dasharray="2 2"/><line x1="84" y1="207" x2="84" y2="222" stroke="#8a97a3" stroke-width="1" marker-end="url(#a)"/>

  <text x="20" y="300" fill="#3a4753" font-size="9" letter-spacing="1">FIG C4 · ARTIFACT CHAIN · USED IN handbook · process diagram · amber=midterm green=final</text>
</svg>
