<svg viewBox="0 0 600 372" xmlns="http://www.w3.org/2000/svg" font-family="ui-monospace, Menlo, Consolas, monospace">
<rect width="600" height="372" rx="6" fill="#0e1217" stroke="#2c3a47"/>
<text x="20" y="30" fill="#39c5e0" font-size="13" letter-spacing="2.5">CURRICULUM TRACEABILITY GRAPH</text>
<text x="20" y="48" fill="#5b6975" font-size="11">competencies → lessons → artifacts → demo families → assessments (one connected architecture)</text>
<line x1="190.0" y1="93" x2="190.0" y2="143" stroke="#22303c" stroke-width="0.7"/>
<line x1="216.3" y1="93" x2="239.3" y2="143" stroke="#22303c" stroke-width="0.7"/>
<line x1="242.5" y1="93" x2="239.3" y2="143" stroke="#22303c" stroke-width="0.7"/>
<line x1="268.8" y1="93" x2="288.5" y2="143" stroke="#22303c" stroke-width="0.7"/>
<line x1="295.1" y1="93" x2="321.3" y2="143" stroke="#22303c" stroke-width="0.7"/>
<line x1="295.1" y1="93" x2="288.5" y2="143" stroke="#22303c" stroke-width="0.7"/>
<line x1="321.3" y1="93" x2="337.8" y2="143" stroke="#22303c" stroke-width="0.7"/>
<line x1="321.3" y1="93" x2="304.9" y2="143" stroke="#22303c" stroke-width="0.7"/>
<line x1="347.6" y1="93" x2="321.3" y2="143" stroke="#22303c" stroke-width="0.7"/>
<line x1="347.6" y1="93" x2="321.3" y2="143" stroke="#22303c" stroke-width="0.7"/>
<line x1="373.9" y1="93" x2="387.0" y2="143" stroke="#22303c" stroke-width="0.7"/>
<line x1="400.1" y1="93" x2="419.8" y2="143" stroke="#22303c" stroke-width="0.7"/>
<line x1="426.4" y1="93" x2="436.3" y2="143" stroke="#22303c" stroke-width="0.7"/>
<line x1="426.4" y1="93" x2="419.8" y2="143" stroke="#22303c" stroke-width="0.7"/>
<line x1="452.7" y1="93" x2="469.1" y2="143" stroke="#22303c" stroke-width="0.7"/>
<line x1="452.7" y1="93" x2="436.3" y2="143" stroke="#22303c" stroke-width="0.7"/>
<line x1="478.9" y1="93" x2="469.1" y2="143" stroke="#22303c" stroke-width="0.7"/>
<line x1="505.2" y1="93" x2="518.3" y2="143" stroke="#22303c" stroke-width="0.7"/>
<line x1="505.2" y1="93" x2="518.3" y2="143" stroke="#22303c" stroke-width="0.7"/>
<line x1="531.5" y1="93" x2="551.2" y2="143" stroke="#22303c" stroke-width="0.7"/>
<line x1="557.7" y1="93" x2="567.6" y2="143" stroke="#22303c" stroke-width="0.7"/>
<line x1="584.0" y1="93" x2="584.0" y2="143" stroke="#22303c" stroke-width="0.7"/>
<line x1="584.0" y1="93" x2="567.6" y2="143" stroke="#22303c" stroke-width="0.7"/>
<line x1="190.0" y1="153" x2="190.0" y2="203" stroke="#22303c" stroke-width="0.7"/>
<line x1="206.4" y1="153" x2="220.3" y2="203" stroke="#22303c" stroke-width="0.7"/>
<line x1="206.4" y1="153" x2="205.2" y2="203" stroke="#22303c" stroke-width="0.7"/>
<line x1="222.8" y1="153" x2="220.3" y2="203" stroke="#22303c" stroke-width="0.7"/>
<line x1="239.3" y1="153" x2="235.5" y2="203" stroke="#22303c" stroke-width="0.7"/>
<line x1="239.3" y1="153" x2="235.5" y2="203" stroke="#22303c" stroke-width="0.7"/>
<line x1="255.7" y1="153" x2="250.6" y2="203" stroke="#22303c" stroke-width="0.7"/>
<line x1="272.1" y1="153" x2="280.9" y2="203" stroke="#22303c" stroke-width="0.7"/>
<line x1="288.5" y1="153" x2="296.1" y2="203" stroke="#22303c" stroke-width="0.7"/>
<line x1="288.5" y1="153" x2="296.1" y2="203" stroke="#22303c" stroke-width="0.7"/>
<line x1="304.9" y1="153" x2="311.2" y2="203" stroke="#22303c" stroke-width="0.7"/>
<line x1="304.9" y1="153" x2="296.1" y2="203" stroke="#22303c" stroke-width="0.7"/>
<line x1="321.3" y1="153" x2="326.4" y2="203" stroke="#22303c" stroke-width="0.7"/>
<line x1="321.3" y1="153" x2="326.4" y2="203" stroke="#22303c" stroke-width="0.7"/>
<line x1="337.8" y1="153" x2="326.4" y2="203" stroke="#22303c" stroke-width="0.7"/>
<line x1="354.2" y1="153" x2="341.5" y2="203" stroke="#22303c" stroke-width="0.7"/>
<line x1="370.6" y1="153" x2="356.7" y2="203" stroke="#22303c" stroke-width="0.7"/>
<line x1="387.0" y1="153" x2="402.2" y2="203" stroke="#22303c" stroke-width="0.7"/>
<line x1="387.0" y1="153" x2="387.0" y2="203" stroke="#22303c" stroke-width="0.7"/>
<line x1="403.4" y1="153" x2="417.3" y2="203" stroke="#22303c" stroke-width="0.7"/>
<line x1="419.8" y1="153" x2="417.3" y2="203" stroke="#22303c" stroke-width="0.7"/>
<line x1="419.8" y1="153" x2="417.3" y2="203" stroke="#22303c" stroke-width="0.7"/>
<line x1="436.3" y1="153" x2="447.6" y2="203" stroke="#22303c" stroke-width="0.7"/>
<line x1="452.7" y1="153" x2="432.5" y2="203" stroke="#22303c" stroke-width="0.7"/>
<line x1="452.7" y1="153" x2="462.8" y2="203" stroke="#22303c" stroke-width="0.7"/>
<line x1="469.1" y1="153" x2="462.8" y2="203" stroke="#22303c" stroke-width="0.7"/>
<line x1="469.1" y1="153" x2="477.9" y2="203" stroke="#22303c" stroke-width="0.7"/>
<line x1="485.5" y1="153" x2="477.9" y2="203" stroke="#22303c" stroke-width="0.7"/>
<line x1="501.9" y1="153" x2="508.2" y2="203" stroke="#22303c" stroke-width="0.7"/>
<line x1="501.9" y1="153" x2="493.1" y2="203" stroke="#22303c" stroke-width="0.7"/>
<line x1="518.3" y1="153" x2="538.5" y2="203" stroke="#22303c" stroke-width="0.7"/>
<line x1="518.3" y1="153" x2="508.2" y2="203" stroke="#22303c" stroke-width="0.7"/>
<line x1="534.8" y1="153" x2="508.2" y2="203" stroke="#22303c" stroke-width="0.7"/>
<line x1="551.2" y1="153" x2="553.7" y2="203" stroke="#22303c" stroke-width="0.7"/>
<line x1="567.6" y1="153" x2="553.7" y2="203" stroke="#22303c" stroke-width="0.7"/>
<line x1="584.0" y1="153" x2="568.8" y2="203" stroke="#22303c" stroke-width="0.7"/>
<line x1="190.0" y1="213" x2="190.0" y2="263" stroke="#22303c" stroke-width="0.7"/>
<line x1="190.0" y1="213" x2="321.3" y2="263" stroke="#22303c" stroke-width="0.7"/>
<line x1="205.2" y1="213" x2="190.0" y2="263" stroke="#22303c" stroke-width="0.7"/>
<line x1="205.2" y1="213" x2="190.0" y2="263" stroke="#22303c" stroke-width="0.7"/>
<line x1="220.3" y1="213" x2="452.7" y2="263" stroke="#22303c" stroke-width="0.7"/>
<line x1="220.3" y1="213" x2="190.0" y2="263" stroke="#22303c" stroke-width="0.7"/>
<line x1="235.5" y1="213" x2="321.3" y2="263" stroke="#22303c" stroke-width="0.7"/>
<line x1="250.6" y1="213" x2="321.3" y2="263" stroke="#22303c" stroke-width="0.7"/>
<line x1="265.8" y1="213" x2="190.0" y2="263" stroke="#22303c" stroke-width="0.7"/>
<line x1="280.9" y1="213" x2="321.3" y2="263" stroke="#22303c" stroke-width="0.7"/>
<line x1="280.9" y1="213" x2="190.0" y2="263" stroke="#22303c" stroke-width="0.7"/>
<line x1="296.1" y1="213" x2="321.3" y2="263" stroke="#22303c" stroke-width="0.7"/>
<line x1="311.2" y1="213" x2="452.7" y2="263" stroke="#22303c" stroke-width="0.7"/>
<line x1="326.4" y1="213" x2="452.7" y2="263" stroke="#22303c" stroke-width="0.7"/>
<line x1="341.5" y1="213" x2="321.3" y2="263" stroke="#22303c" stroke-width="0.7"/>
<line x1="341.5" y1="213" x2="452.7" y2="263" stroke="#22303c" stroke-width="0.7"/>
<line x1="356.7" y1="213" x2="321.3" y2="263" stroke="#22303c" stroke-width="0.7"/>
<line x1="371.8" y1="213" x2="584.0" y2="263" stroke="#22303c" stroke-width="0.7"/>
<line x1="387.0" y1="213" x2="321.3" y2="263" stroke="#22303c" stroke-width="0.7"/>
<line x1="402.2" y1="213" x2="321.3" y2="263" stroke="#22303c" stroke-width="0.7"/>
<line x1="402.2" y1="213" x2="190.0" y2="263" stroke="#22303c" stroke-width="0.7"/>
<line x1="417.3" y1="213" x2="452.7" y2="263" stroke="#22303c" stroke-width="0.7"/>
<line x1="417.3" y1="213" x2="584.0" y2="263" stroke="#22303c" stroke-width="0.7"/>
<line x1="432.5" y1="213" x2="452.7" y2="263" stroke="#22303c" stroke-width="0.7"/>
<line x1="432.5" y1="213" x2="321.3" y2="263" stroke="#22303c" stroke-width="0.7"/>
<line x1="447.6" y1="213" x2="452.7" y2="263" stroke="#22303c" stroke-width="0.7"/>
<line x1="447.6" y1="213" x2="452.7" y2="263" stroke="#22303c" stroke-width="0.7"/>
<line x1="462.8" y1="213" x2="584.0" y2="263" stroke="#22303c" stroke-width="0.7"/>
<line x1="477.9" y1="213" x2="584.0" y2="263" stroke="#22303c" stroke-width="0.7"/>
<line x1="477.9" y1="213" x2="321.3" y2="263" stroke="#22303c" stroke-width="0.7"/>
<line x1="493.1" y1="213" x2="452.7" y2="263" stroke="#22303c" stroke-width="0.7"/>
<line x1="508.2" y1="213" x2="584.0" y2="263" stroke="#22303c" stroke-width="0.7"/>
<line x1="508.2" y1="213" x2="321.3" y2="263" stroke="#22303c" stroke-width="0.7"/>
<line x1="523.4" y1="213" x2="452.7" y2="263" stroke="#22303c" stroke-width="0.7"/>
<line x1="538.5" y1="213" x2="584.0" y2="263" stroke="#22303c" stroke-width="0.7"/>
<line x1="538.5" y1="213" x2="584.0" y2="263" stroke="#22303c" stroke-width="0.7"/>
<line x1="553.7" y1="213" x2="584.0" y2="263" stroke="#22303c" stroke-width="0.7"/>
<line x1="568.8" y1="213" x2="584.0" y2="263" stroke="#22303c" stroke-width="0.7"/>
<line x1="584.0" y1="213" x2="584.0" y2="263" stroke="#22303c" stroke-width="0.7"/>
<line x1="584.0" y1="213" x2="584.0" y2="263" stroke="#22303c" stroke-width="0.7"/>
<line x1="190.0" y1="273" x2="190.0" y2="323" stroke="#22303c" stroke-width="0.7"/>
<line x1="190.0" y1="273" x2="205.2" y2="323" stroke="#22303c" stroke-width="0.7"/>
<line x1="321.3" y1="273" x2="296.1" y2="323" stroke="#22303c" stroke-width="0.7"/>
<line x1="452.7" y1="273" x2="447.6" y2="323" stroke="#22303c" stroke-width="0.7"/>
<line x1="584.0" y1="273" x2="584.0" y2="323" stroke="#22303c" stroke-width="0.7"/>
<line x1="321.3" y1="93" x2="321.3" y2="143" stroke="#39c5e0" stroke-width="1.6"/>
<line x1="321.3" y1="153" x2="326.4" y2="203" stroke="#39c5e0" stroke-width="1.6"/>
<line x1="326.4" y1="213" x2="321.3" y2="263" stroke="#39c5e0" stroke-width="1.6"/>
<line x1="321.3" y1="273" x2="326.4" y2="323" stroke="#39c5e0" stroke-width="1.6"/>
<circle cx="321.3" cy="88" r="4.5" fill="#39c5e0"/>
<circle cx="321.3" cy="148" r="4.5" fill="#39c5e0"/>
<circle cx="326.4" cy="208" r="4.5" fill="#39c5e0"/>
<circle cx="321.3" cy="268" r="4.5" fill="#39c5e0"/>
<circle cx="326.4" cy="328" r="4.5" fill="#39c5e0"/>
<line x1="505.2" y1="93" x2="501.9" y2="143" stroke="#3fe0a0" stroke-width="1.6"/>
<line x1="501.9" y1="153" x2="493.1" y2="203" stroke="#3fe0a0" stroke-width="1.6"/>
<line x1="493.1" y1="213" x2="452.7" y2="263" stroke="#3fe0a0" stroke-width="1.6"/>
<line x1="452.7" y1="273" x2="493.1" y2="323" stroke="#3fe0a0" stroke-width="1.6"/>
<circle cx="505.2" cy="88" r="4.5" fill="#3fe0a0"/>
<circle cx="501.9" cy="148" r="4.5" fill="#3fe0a0"/>
<circle cx="493.1" cy="208" r="4.5" fill="#3fe0a0"/>
<circle cx="452.7" cy="268" r="4.5" fill="#3fe0a0"/>
<circle cx="493.1" cy="328" r="4.5" fill="#3fe0a0"/>
<text x="20" y="92" fill="#8a97a3" font-size="10">Competencies (16)</text>
<circle cx="190.0" cy="88" r="3" fill="#151b22" stroke="#39c5e0" stroke-width="1"/>
<circle cx="216.3" cy="88" r="3" fill="#151b22" stroke="#39c5e0" stroke-width="1"/>
<circle cx="242.5" cy="88" r="3" fill="#151b22" stroke="#39c5e0" stroke-width="1"/>
<circle cx="268.8" cy="88" r="3" fill="#151b22" stroke="#39c5e0" stroke-width="1"/>
<circle cx="295.1" cy="88" r="3" fill="#151b22" stroke="#39c5e0" stroke-width="1"/>
<circle cx="321.3" cy="88" r="3" fill="#151b22" stroke="#39c5e0" stroke-width="1"/>
<circle cx="347.6" cy="88" r="3" fill="#151b22" stroke="#39c5e0" stroke-width="1"/>
<circle cx="373.9" cy="88" r="3" fill="#151b22" stroke="#39c5e0" stroke-width="1"/>
<circle cx="400.1" cy="88" r="3" fill="#151b22" stroke="#39c5e0" stroke-width="1"/>
<circle cx="426.4" cy="88" r="3" fill="#151b22" stroke="#39c5e0" stroke-width="1"/>
<circle cx="452.7" cy="88" r="3" fill="#151b22" stroke="#39c5e0" stroke-width="1"/>
<circle cx="478.9" cy="88" r="3" fill="#151b22" stroke="#39c5e0" stroke-width="1"/>
<circle cx="505.2" cy="88" r="3" fill="#151b22" stroke="#39c5e0" stroke-width="1"/>
<circle cx="531.5" cy="88" r="3" fill="#151b22" stroke="#39c5e0" stroke-width="1"/>
<circle cx="557.7" cy="88" r="3" fill="#151b22" stroke="#39c5e0" stroke-width="1"/>
<circle cx="584.0" cy="88" r="3" fill="#151b22" stroke="#39c5e0" stroke-width="1"/>
<text x="20" y="152" fill="#8a97a3" font-size="10">Lessons (25)</text>
<circle cx="190.0" cy="148" r="3" fill="#151b22" stroke="#39c5e0" stroke-width="1"/>
<circle cx="206.4" cy="148" r="3" fill="#151b22" stroke="#39c5e0" stroke-width="1"/>
<circle cx="222.8" cy="148" r="3" fill="#151b22" stroke="#39c5e0" stroke-width="1"/>
<circle cx="239.3" cy="148" r="3" fill="#151b22" stroke="#39c5e0" stroke-width="1"/>
<circle cx="255.7" cy="148" r="3" fill="#151b22" stroke="#39c5e0" stroke-width="1"/>
<circle cx="272.1" cy="148" r="3" fill="#151b22" stroke="#39c5e0" stroke-width="1"/>
<circle cx="288.5" cy="148" r="3" fill="#151b22" stroke="#39c5e0" stroke-width="1"/>
<circle cx="304.9" cy="148" r="3" fill="#151b22" stroke="#39c5e0" stroke-width="1"/>
<circle cx="321.3" cy="148" r="3" fill="#151b22" stroke="#39c5e0" stroke-width="1"/>
<circle cx="337.8" cy="148" r="3" fill="#151b22" stroke="#39c5e0" stroke-width="1"/>
<circle cx="354.2" cy="148" r="3" fill="#151b22" stroke="#39c5e0" stroke-width="1"/>
<circle cx="370.6" cy="148" r="3" fill="#151b22" stroke="#39c5e0" stroke-width="1"/>
<circle cx="387.0" cy="148" r="3" fill="#151b22" stroke="#39c5e0" stroke-width="1"/>
<circle cx="403.4" cy="148" r="3" fill="#151b22" stroke="#39c5e0" stroke-width="1"/>
<circle cx="419.8" cy="148" r="3" fill="#151b22" stroke="#39c5e0" stroke-width="1"/>
<circle cx="436.3" cy="148" r="3" fill="#151b22" stroke="#39c5e0" stroke-width="1"/>
<circle cx="452.7" cy="148" r="3" fill="#151b22" stroke="#39c5e0" stroke-width="1"/>
<circle cx="469.1" cy="148" r="3" fill="#151b22" stroke="#39c5e0" stroke-width="1"/>
<circle cx="485.5" cy="148" r="3" fill="#151b22" stroke="#39c5e0" stroke-width="1"/>
<circle cx="501.9" cy="148" r="3" fill="#151b22" stroke="#39c5e0" stroke-width="1"/>
<circle cx="518.3" cy="148" r="3" fill="#151b22" stroke="#39c5e0" stroke-width="1"/>
<circle cx="534.8" cy="148" r="3" fill="#151b22" stroke="#39c5e0" stroke-width="1"/>
<circle cx="551.2" cy="148" r="3" fill="#151b22" stroke="#39c5e0" stroke-width="1"/>
<circle cx="567.6" cy="148" r="3" fill="#151b22" stroke="#39c5e0" stroke-width="1"/>
<circle cx="584.0" cy="148" r="3" fill="#151b22" stroke="#39c5e0" stroke-width="1"/>
<text x="20" y="212" fill="#8a97a3" font-size="10">Artifacts (27)</text>
<circle cx="190.0" cy="208" r="3" fill="#151b22" stroke="#39c5e0" stroke-width="1"/>
<circle cx="205.2" cy="208" r="3" fill="#151b22" stroke="#39c5e0" stroke-width="1"/>
<circle cx="220.3" cy="208" r="3" fill="#151b22" stroke="#39c5e0" stroke-width="1"/>
<circle cx="235.5" cy="208" r="3" fill="#151b22" stroke="#39c5e0" stroke-width="1"/>
<circle cx="250.6" cy="208" r="3" fill="#151b22" stroke="#39c5e0" stroke-width="1"/>
<circle cx="265.8" cy="208" r="3" fill="#151b22" stroke="#39c5e0" stroke-width="1"/>
<circle cx="280.9" cy="208" r="3" fill="#151b22" stroke="#39c5e0" stroke-width="1"/>
<circle cx="296.1" cy="208" r="3" fill="#151b22" stroke="#39c5e0" stroke-width="1"/>
<circle cx="311.2" cy="208" r="3" fill="#151b22" stroke="#39c5e0" stroke-width="1"/>
<circle cx="326.4" cy="208" r="3" fill="#151b22" stroke="#39c5e0" stroke-width="1"/>
<circle cx="341.5" cy="208" r="3" fill="#151b22" stroke="#39c5e0" stroke-width="1"/>
<circle cx="356.7" cy="208" r="3" fill="#151b22" stroke="#39c5e0" stroke-width="1"/>
<circle cx="371.8" cy="208" r="3" fill="#151b22" stroke="#39c5e0" stroke-width="1"/>
<circle cx="387.0" cy="208" r="3" fill="#151b22" stroke="#39c5e0" stroke-width="1"/>
<circle cx="402.2" cy="208" r="3" fill="#151b22" stroke="#39c5e0" stroke-width="1"/>
<circle cx="417.3" cy="208" r="3" fill="#151b22" stroke="#39c5e0" stroke-width="1"/>
<circle cx="432.5" cy="208" r="3" fill="#151b22" stroke="#39c5e0" stroke-width="1"/>
<circle cx="447.6" cy="208" r="3" fill="#151b22" stroke="#39c5e0" stroke-width="1"/>
<circle cx="462.8" cy="208" r="3" fill="#151b22" stroke="#39c5e0" stroke-width="1"/>
<circle cx="477.9" cy="208" r="3" fill="#151b22" stroke="#39c5e0" stroke-width="1"/>
<circle cx="493.1" cy="208" r="3" fill="#151b22" stroke="#39c5e0" stroke-width="1"/>
<circle cx="508.2" cy="208" r="3" fill="#151b22" stroke="#39c5e0" stroke-width="1"/>
<circle cx="523.4" cy="208" r="3" fill="#151b22" stroke="#39c5e0" stroke-width="1"/>
<circle cx="538.5" cy="208" r="3" fill="#151b22" stroke="#39c5e0" stroke-width="1"/>
<circle cx="553.7" cy="208" r="3" fill="#151b22" stroke="#39c5e0" stroke-width="1"/>
<circle cx="568.8" cy="208" r="3" fill="#151b22" stroke="#39c5e0" stroke-width="1"/>
<circle cx="584.0" cy="208" r="3" fill="#151b22" stroke="#39c5e0" stroke-width="1"/>
<text x="20" y="272" fill="#8a97a3" font-size="10">Demo families (4)</text>
<circle cx="190.0" cy="268" r="3" fill="#151b22" stroke="#39c5e0" stroke-width="1"/>
<circle cx="321.3" cy="268" r="3" fill="#151b22" stroke="#39c5e0" stroke-width="1"/>
<circle cx="452.7" cy="268" r="3" fill="#151b22" stroke="#39c5e0" stroke-width="1"/>
<circle cx="584.0" cy="268" r="3" fill="#151b22" stroke="#39c5e0" stroke-width="1"/>
<text x="20" y="332" fill="#8a97a3" font-size="10">Assessments (27)</text>
<circle cx="190.0" cy="328" r="3" fill="#151b22" stroke="#3fe0a0" stroke-width="1"/>
<circle cx="205.2" cy="328" r="3" fill="#151b22" stroke="#3fe0a0" stroke-width="1"/>
<circle cx="220.3" cy="328" r="3" fill="#151b22" stroke="#3fe0a0" stroke-width="1"/>
<circle cx="235.5" cy="328" r="3" fill="#151b22" stroke="#3fe0a0" stroke-width="1"/>
<circle cx="250.6" cy="328" r="3" fill="#151b22" stroke="#3fe0a0" stroke-width="1"/>
<circle cx="265.8" cy="328" r="3" fill="#151b22" stroke="#3fe0a0" stroke-width="1"/>
<circle cx="280.9" cy="328" r="3" fill="#151b22" stroke="#3fe0a0" stroke-width="1"/>
<circle cx="296.1" cy="328" r="3" fill="#151b22" stroke="#3fe0a0" stroke-width="1"/>
<circle cx="311.2" cy="328" r="3" fill="#151b22" stroke="#3fe0a0" stroke-width="1"/>
<circle cx="326.4" cy="328" r="3" fill="#151b22" stroke="#3fe0a0" stroke-width="1"/>
<circle cx="341.5" cy="328" r="3" fill="#151b22" stroke="#3fe0a0" stroke-width="1"/>
<circle cx="356.7" cy="328" r="3" fill="#151b22" stroke="#3fe0a0" stroke-width="1"/>
<circle cx="371.8" cy="328" r="3" fill="#151b22" stroke="#3fe0a0" stroke-width="1"/>
<circle cx="387.0" cy="328" r="3" fill="#151b22" stroke="#3fe0a0" stroke-width="1"/>
<circle cx="402.2" cy="328" r="3" fill="#151b22" stroke="#3fe0a0" stroke-width="1"/>
<circle cx="417.3" cy="328" r="3" fill="#151b22" stroke="#3fe0a0" stroke-width="1"/>
<circle cx="432.5" cy="328" r="3" fill="#151b22" stroke="#3fe0a0" stroke-width="1"/>
<circle cx="447.6" cy="328" r="3" fill="#151b22" stroke="#3fe0a0" stroke-width="1"/>
<circle cx="462.8" cy="328" r="3" fill="#151b22" stroke="#3fe0a0" stroke-width="1"/>
<circle cx="477.9" cy="328" r="3" fill="#151b22" stroke="#3fe0a0" stroke-width="1"/>
<circle cx="493.1" cy="328" r="3" fill="#151b22" stroke="#3fe0a0" stroke-width="1"/>
<circle cx="508.2" cy="328" r="3" fill="#151b22" stroke="#3fe0a0" stroke-width="1"/>
<circle cx="523.4" cy="328" r="3" fill="#151b22" stroke="#3fe0a0" stroke-width="1"/>
<circle cx="538.5" cy="328" r="3" fill="#151b22" stroke="#3fe0a0" stroke-width="1"/>
<circle cx="553.7" cy="328" r="3" fill="#151b22" stroke="#3fe0a0" stroke-width="1"/>
<circle cx="568.8" cy="328" r="3" fill="#151b22" stroke="#3fe0a0" stroke-width="1"/>
<circle cx="584.0" cy="328" r="3" fill="#151b22" stroke="#3fe0a0" stroke-width="1"/>
<text x="20" y="360" fill="#3a4753" font-size="9" letter-spacing="1">FIG C7 · CURRICULUM TRACEABILITY GRAPH · USED IN handbook, instructor, review · highlighted = two end-to-end threads</text>
</svg>
